SplineFontDB: 3.2
FontName: k_kotaro
FullName: k_kotaro
FamilyName: k_kotaro
Weight: Regular
Copyright: kurokky https://black-tree.net
Version: 
ItalicAngle: 0
UnderlinePosition: 0
UnderlineWidth: 0
Ascent: 819
Descent: 205
InvalidEm: 0
LayerCount: 2
Layer: 0 0 "Back" 1
Layer: 1 0 "Fore" 0
XUID: [1021 417 -389133839 15742121]
OS2Version: 0
OS2_WeightWidthSlopeOnly: 0
OS2_UseTypoMetrics: 0
CreationTime: 1642663828
ModificationTime: 1642746666
PfmFamily: 17
TTFWeight: 400
TTFWidth: 5
LineGap: 92
VLineGap: 92
OS2TypoAscent: 0
OS2TypoAOffset: 1
OS2TypoDescent: 0
OS2TypoDOffset: 1
OS2TypoLinegap: 92
OS2WinAscent: 0
OS2WinAOffset: 1
OS2WinDescent: 0
OS2WinDOffset: 1
HheadAscent: 0
HheadAOffset: 1
HheadDescent: 0
HheadDOffset: 1
OS2Vendor: 'PfEd'
MarkAttachClasses: 1
DEI: 91125
Encoding: Original
UnicodeInterp: none
NameList: AGL For New Fonts
DisplaySize: -48
AntiAlias: 1
FitToEm: 0
WinInfo: 0 22 9
BeginPrivate: 0
EndPrivate
BeginChars: 172 171

StartChar: "+MLAw6jDV-1"
Encoding: 1 12353 0
Width: 628
Flags: W
LayerCount: 2
Fore
SplineSet
284.69141 619.04102 m 1
 267.689346055 618.909784488 253.821115917 605.467664645 252.97852 588.64258 c 0
 251.69657 563.04149 249.05489 536.09777 246.11914 508.56055 c 1
 157.33203 506.46094 l 2
 140.022973491 506.054714305 126.095771213 491.875937214 126.095771213 474.469956774 c 0
 126.095771213 474.213272744 126.085776303 473.970086567 126.0918 473.71484 c 0
 126.497927626 456.405696502 140.676744292 442.47839357 158.082787629 442.47839357 c 0
 158.342123208 442.47839357 158.587832093 442.468461567 158.8457 442.47461 c 2
 239.32227 444.37891 l 1
 238.24793 433.5215 237.26078 422.66283 236.40039 411.83203 c 1
 173.66367 393.31235 130.07358 335.48289 121.05664 274.94922 c 1
 121.06664 274.94922 l 1
 117.56925 251.4793 118.96704 226.33242 128.84007 202.77734 c 0
 133.77659 190.99973 141.23202 178.91799 154.49242 170.22266 c 0
 167.75089 161.52857 186.89567 159.06267 202.83617 163.88867 c 0
 226.83124 171.15447 248.43192 181.37836 268.1975 193.76758 c 1
 282.37859 171.98268 301.72785 153.08058 326.60765 139.52148 c 0
 331.149647051 137.045707029 336.356428694 135.638470293 341.889294429 135.638470293 c 0
 354.019058863 135.638470293 364.595218033 142.348438385 370.02171 152.30664 c 0
 372.497207514 156.848445209 373.904276184 162.054935393 373.904276184 167.587470724 c 0
 373.904276184 179.71784147 367.193628765 190.294450277 357.23461 195.7207 c 0
 339.66921 205.2936 327.69774 217.37638 318.82054 233.16797 c 1
 351.74324 263.97516 379.57236 300.33017 406.40648 336.41797 c 1
 429.18407 323.54607 443.04156 306.49036 449.48656 289.97266 c 0
 456.84235 271.12075 455.43869 252.2325 447.84789 237.87109 c 0
 440.25708 223.50961 427.33813 212.64914 403.97093 209.25195 c 0
 388.50332262 207.00321252 376.607040826 193.672919216 376.607040826 177.586026296 c 0
 376.607040826 176.010118371 376.68792864 174.491733638 376.90843 172.97656 c 0
 379.157643561 157.509493171 392.487684075 145.613780185 408.574192401 145.613780185 c 0
 410.147455349 145.613780185 411.663264549 145.694285099 413.17601 145.91406 c 0
 454.64983 151.94377 487.61174 176.14748 504.42992 207.9668 c 0
 521.24821 239.78611 522.78352 278.19604 509.10961 313.24023 c 0
 497.78312 342.26852 475.55612 367.82449 444.37914 386.93359 c 1
 445.14434 387.9179 445.89934 389.00322 446.66625 389.98242 c 0
 450.920529405 395.415794339 453.457629001 402.256983732 453.457629001 409.686068394 c 0
 453.457629001 419.915150485 448.684898757 429.040727797 441.20531 434.90039 c 0
 435.769948827 439.160650366 428.899879456 441.714780423 421.46507 441.71484 c 0
 411.236549254 441.712956644 402.135965552 436.925787602 396.27757 429.44531 c 0
 391.65087 423.53772 387.49158 417.92366 382.99046 412.04688 c 1
 358.75727 417.97057 331.62584 421.01552 301.53734 420.19922 c 1
 302.31404 428.68702 303.14859 437.25345 304.03929 445.91016 c 1
 411.47679 448.45312 l 2
 428.783096127 448.862445837 442.707116198 463.039971659 442.707116198 480.443963452 c 0
 442.707116198 480.700694335 442.71719589 480.943927111 442.71117 481.19922 c 0
 442.301704416 498.505402123 428.124235009 512.429278732 410.720332875 512.429278732 c 0
 410.576512194 512.429278732 410.440484074 512.441345741 410.29711 512.43945 c 0
 410.184910066 512.436079537 410.076978279 512.432275072 409.96507 512.42775 c 2
 310.80882 510.084 l 1
 313.37682 535.30411 315.65752 560.61413 316.90062 585.44143 c 0
 316.927504135 585.978785471 316.941107151 586.519614923 316.941107151 587.063596459 c 0
 316.941107151 604.178388872 303.45220957 618.150373607 286.54688 619 c 0
 286.066990629 619.023869098 285.604337683 619.036644686 285.11914 619.0391 c 2
 285.11714 619.0411 l 2
 285.044887353 619.041580695 284.972578167 619.041821421 284.9002132 619.041821421 c 0
 284.827848233 619.041821421 284.763612647 619.041580695 284.69136 619.0411 c 1
 284.69141 619.04102 l 1
316.27539 356.77539 m 0
 324.53589 356.73039 332.2774 356.28325 339.7168 355.61719 c 1
 326.2026 338.17066 312.76169 321.54282 298.9668 306.24023 c 1
 297.9095 317.60104 297.37865 329.59971 297.34375 342.14453 c 0
 297.33085 346.77162 297.38475 351.46626 297.49414 356.21875 c 0
 301.00994 356.42851 304.45999 356.58429 307.83398 356.67969 c 0
 310.71109 356.76059 313.52189 356.79013 316.27539 356.77539 c 0
233.36523 339.50586 m 1
 233.36523 339.50186 l 2
 233.56661 310.14487 235.92441 281.58698 242.58984 254.64639 c 1
 225.74777 242.71571 207.81491 233.17395 188.2168 226.73624 c 0
 187.90298 227.30196 188.2098 226.69314 187.86328 227.51944 c 0
 184.51625 235.50471 182.55452 253.3754 184.36328 265.51358 c 2
 184.363280545 265.519545163 l 1
 184.36328 265.52528 l 1
 188.40927 292.68738 208.15032 322.43427 233.36523 339.50575 c 1
 233.36523 339.50586 l 1
EndSplineSet
Validated: 524837
EndChar

StartChar: "+MLAw6jDV 2"
Encoding: 2 12354 1
Width: 1024
LayerCount: 2
Fore
SplineSet
473.125 869.8418 m 1
 473.123 869.8378 l 1
 454.593494729 869.740154007 439.263907153 855.955438749 436.69531 838.10938 c 0
 430.52463 795.23798 424.1704 750.65627 419.45117 705.32617 c 1
 268.4707 700.74609 l 2
 248.576423267 700.142686624 232.61079805 683.802764003 232.61079805 663.763295834 c 0
 232.61079805 663.381636204 232.597880823 663.019512624 232.60938 662.64062 c 0
 233.212814498 642.746371246 249.552724376 626.780778222 269.592172341 626.780778222 c 0
 269.973165697 626.780778222 270.334653853 626.767840792 270.71289 626.7793 c 2
 413.51953 631.11133 l 1
 411.99986 602.07673 411.53774 572.95091 412.5957 543.9707 c 1
 347.76361 523.59572 286.84672 482.34308 234.26953 414.51367 c 0
 234.09624714 414.290606394 233.928021637 414.068886179 233.75977 413.8418 c 0
 207.32851 378.09083 206.22124 333.40951 215.65234 293.01562 c 0
 225.08346 252.62174 246.58514 211.68115 289.89844 195.22656 c 0
 290.708118224 194.920865299 291.551197687 194.636068184 292.38672 194.38672 c 0
 328.18881 183.62092 356.4878 188.45984 377.48633 194.96875 c 0
 378.45049 195.20157 379.74077 195.37381 380.51172 195.5957 c 0
 387.73795 197.67573 389.52167 199.41778 391.36328 200.63086 c 0
 395.04651 203.05716 396.44032 204.42171 398.18359 205.97461 c 0
 401.67013 209.08013 405.06557 212.45991 409.28711 216.7832 c 0
 417.73016 225.43001 428.91593 237.47557 442.24609 252.16406 c 0
 452.75061 263.73898 464.57421 276.95876 477.14844 291.17969 c 1
 492.605 263.73676 511.36312 237.28849 533.98242 212.125 c 0
 540.757843968 204.586101257 550.582522501 199.841708581 561.506568992 199.841708581 c 0
 571.00542549 199.841708581 579.683828515 203.449344741 586.23828 209.3418 c 0
 593.777178743 216.117223968 598.521571419 225.941902501 598.521571419 236.865948992 c 0
 598.521571419 246.36480549 594.913935259 255.043208515 589.02148 261.59766 c 0
 563.97807 289.45788 544.50682 319.5249 529.58789 351.32422 c 1
 532.66473 354.89969 535.74186 358.47344 538.82422 362.07227 c 0
 570.65714 399.23855 601.12063 436.05436 626.60156 468.00195 c 1
 681.81347 447.37964 712.40554 423.77091 726.52344 403.58203 c 0
 741.32717 382.41222 742.51029 364.37772 736.57031 342.7832 c 0
 724.69027 299.59443 668.90656 249.52453 637.89648 237.57812 c 0
 624.030473433 232.235274971 614.181357523 218.777973182 614.181357523 203.038439887 c 0
 614.181357523 198.357459488 615.08496855 193.873845495 616.67383 189.75 c 0
 622.015075251 175.880776029 635.47401875 166.028765986 651.215864383 166.028765986 c 0
 655.895221497 166.028765986 660.377338282 166.931717174 664.5 168.51953 c 0
 722.28157 190.77951 786.78781 246.35221 807.91602 323.16211 c 0
 818.4801 361.5671 814.34962 407.11692 787.16602 445.99023 c 0
 764.04846 479.04893 725.87776 506.44755 672.42969 529.08008 c 1
 674.61535 532.44068 677.01728 535.91106 678.82227 539.16406 c 0
 681.85976 544.63833 686.23971 546.43275 686.66797 564.24805 c 0
 686.67529768 564.55074491 686.678982624 564.8543359 686.678982624 565.158780763 c 0
 686.678982624 585.276543429 670.572948045 601.650679632 650.57031 602.13281 c 0
 650.255133714 602.14075645 649.93898355 602.144753515 649.621907187 602.144753515 c 0
 649.600318328 602.144753515 649.595800256 602.144547045 649.57422 602.14451 c 0
 632.721855462 602.09739802 618.507800127 590.752791731 614.09766 575.29686 c 0
 614.05346 575.16079 614.19026 575.20276 614.12106 575.07615 c 0
 614.09836 575.03725 614.00349 574.89431 613.98044 574.8535 c 0
 613.795099224 574.170426789 613.625032279 573.463709501 613.47849 572.7656 c 1
 613.55179 573.14651 613.59033 574.10276 613.66403 574.35936 c 1
 612.48765 572.30136 610.33248 568.82074 607.15231 564.20896 c 0
 605.01718 561.11255 600.53844 555.50603 597.71872 551.66014 c 1
 560.4878 558.86203 523.21524 561.39672 486.6152 558.36131 c 1
 486.07413 583.05712 486.6651 608.10957 488.08981 633.37889 c 1
 688.81052 639.46873 l 2
 708.704801441 640.072128139 724.670432074 656.412052905 724.670432074 676.451524473 c 0
 724.670432074 676.833184 724.683349171 677.195307478 724.67185 677.5742 c 0
 724.069957168 697.469834597 707.729416066 713.437022235 687.688967374 713.437022235 c 0
 687.458143971 713.437022235 687.239563338 713.453418066 687.00974 713.4492 c 0
 686.859892269 713.444826763 686.715778049 713.439753661 686.56638 713.4336 c 2
 494.32028 707.60157 l 1
 498.62104 747.58287 504.21581 787.75453 509.94724 827.57423 c 0
 510.196508997 829.307050572 510.325514919 831.07850717 510.325514919 832.879856947 c 0
 510.325514919 851.49760632 496.506305661 866.886073242 478.59763 869.46485 c 0
 476.965387011 869.700070625 475.330224673 869.827319369 473.63669 869.84181 c 0
 473.54985895 869.842410462 473.462957233 869.842711185 473.375985833 869.842711185 c 0
 473.289014433 869.842711185 473.21180105 869.842410462 473.12497 869.84181 c 1
 473.125 869.8418 l 1
509.41797 488.35742 m 0
 516.12572 488.36872 522.89674 488.13223 529.73047 487.67578 c 0
 534.76412 487.33978 540.03802 486.2218 545.14258 485.64648 c 1
 530.74277 468.0676 516.7029 450.77007 501.56445 432.63477 c 1
 497.28588 450.66307 494.0207 469.05936 491.64844 487.76367 c 1
 497.52511 488.15285 503.44556 488.35232 509.41797 488.35742 c 0
418.76758 471.38281 m 1
 423.74828 435.30529 431.76655 399.78643 443.78711 365.32031 c 1
 423.06989 341.6037 403.5839 319.67311 387.45117 301.89648 c 0
 374.46041 287.58209 363.57766 275.89482 356.33594 268.47852 c 0
 354.32332 266.41735 353.57471 265.7507 352.24023 264.45508 c 0
 340.17969 260.02808 336.35059 258.56909 315.78711 264.67578 c 0
 307.73247 268.07048 293.38034 285.58019 287.71484 309.8457 c 0
 281.99798 334.33141 286.71746 360.71651 293.17773 369.6543 c 0
 333.24087 421.19398 374.77514 453.67573 418.76758 471.38281 c 1
366.90039 268.11523 m 1
 366.93139 268.11523 366.98649 268.10353 367.01758 268.10353 c 1
 366.92156985 268.094110177 366.826264372 268.084383563 366.73047 268.07423 c 1
 366.80227 268.08553 366.82767 268.09983 366.90039 268.10743 c 2
 366.90039 268.11523 l 1
EndSplineSet
Validated: 524841
EndChar

StartChar: "+MLAw6jDV 3"
Encoding: 3 12356 2
Width: 1024
LayerCount: 2
Fore
SplineSet
730.25781 612.64258 m 0
 718.897889283 612.567321952 708.753336333 607.384914427 702.01367 599.25195 c 0
 696.707293999 592.847411429 693.516346801 584.627950003 693.516346801 575.669084116 c 0
 693.516346801 564.209148706 698.70310249 553.947232132 706.89453 547.1582 c 0
 762.56693 501.01509 794.75673 445.90427 803.87695 373.42578 c 0
 806.167816345 355.19740255 821.741414113 341.07774733 840.586810315 341.07774733 c 0
 842.162034255 341.07774733 843.677510777 341.136665878 845.20117 341.32812 c 0
 863.429087581 343.619408447 877.548251749 359.192792297 877.548251749 378.037860795 c 0
 877.548251749 379.615819275 877.488989232 381.133955605 877.29688 382.66016 c 0
 865.94915 472.84055 822.00213 547.86397 754.11523 604.13086 c 0
 747.710015807 609.43955941 739.48873232 612.632061395 730.527684099 612.632061395 c 0
 730.443824638 612.632061395 730.341539008 612.643138293 730.25781 612.64258 c 0
183.04492 607.77148 m 0
 181.200870401 607.756029979 179.419078306 607.606469983 177.64844 607.33008 c 0
 159.948493301 604.569239257 146.386803878 589.242459449 146.386803878 570.773172722 c 0
 146.386803878 568.821089777 146.501098151 566.939106 146.79297 565.06836 c 0
 169.16596 421.67649 222.81944 315.15739 281.81445 227.67188 c 0
 288.464284929 217.810075223 299.738435334 211.31906203 312.516679606 211.31906203 c 0
 316.7709905 211.31906203 320.846620487 212.086316227 324.65234 213.41016 c 0
 409.22182 242.84636 457.75222 303.15437 483.69531 345.98828 c 0
 487.075401815 351.570631454 489.021593235 358.116244294 489.021593235 365.112827498 c 0
 489.021593235 378.533118695 481.924252903 390.310299258 471.21875 396.79688 c 0
 465.635151707 400.17910345 459.087459838 402.126622915 452.088489871 402.126622915 c 0
 438.666748862 402.126622915 426.888481707 395.027735437 420.40234 384.32031 c 0
 402.68142 355.06193 374.04739 318.77468 327.1543 294.92578 c 1
 279.1104 370.97237 238.32515 458.44588 219.91016 576.4707 c 0
 217.162287966 594.099294409 201.944367179 607.659977518 183.57617 607.77148 c 0
 183.486030406 607.772127133 183.395814607 607.772451249 183.305523704 607.772451249 c 0
 183.2152328 607.772451249 183.135059594 607.772127133 183.04492 607.77148 c 0
EndSplineSet
Validated: 524809
EndChar

StartChar: "+MLAw6jDV 4"
Encoding: 4 12358 3
Width: 1024
LayerCount: 2
Fore
SplineSet
490.63477 930.06641 m 0
 479.98960416 930.027580304 470.397174895 925.495979762 463.66797 918.25586 c 0
 457.529356813 911.65023892 453.773282911 902.800727927 453.773282911 893.080861637 c 0
 453.773282911 882.381849633 458.310053842 872.726831231 465.58008 865.96875 c 0
 492.29518 841.13795 510.84762 826.80606 522.25 791.91406 c 0
 527.088600623 777.111558523 541.017828428 766.405405968 557.427879781 766.405405968 c 0
 561.437745672 766.405405968 565.294937127 767.05816064 568.91211 768.24023 c 0
 583.714315811 773.079002175 594.420193054 787.008082779 594.420193054 803.417923137 c 0
 594.420193054 807.427143349 593.767644235 811.283720827 592.58594 814.90039 c 0
 575.06121 868.52659 540.31368 897.52737 515.95508 920.16797 c 0
 509.349210528 926.30786249 500.498763407 930.064817793 490.777756751 930.064817793 c 0
 490.733349129 930.064817793 490.679141156 930.066566674 490.63477 930.06641 c 0
592.0625 668.46875 m 1
 560.59759 668.26745 527.13584 660.93134 493.26953 647.52344 c 0
 483.70695 643.73745 475.40224 639.32086 458.49414 630.95117 c 0
 441.58306 622.5799 420.21327 611.79947 398.82617 600.72266 c 0
 377.43919 589.64577 356.09387 578.31516 338.95117 568.63477 c 0
 330.37987 563.79448 322.90098 559.40244 316.58398 555.36133 c 0
 310.26698 551.32026 307.17805 551.91502 297.31055 539.49023 c 0
 292.296921308 533.176248352 289.30085056 525.1895061 289.30085056 516.508516047 c 0
 289.30085056 504.769874917 294.73812982 494.28814896 303.27539 487.50781 c 0
 309.589721268 482.493115336 317.577322557 479.49633868 326.259335219 479.49633868 c 0
 337.796739022 479.49633868 348.122446991 484.749985258 354.91016 493.03711 c 1
 348.95935 485.60051 352.31034 490.36569 356.46094 493.02151 c 0
 360.81273 495.8054 367.46385 499.74747 375.34375 504.1973 c 0
 391.10354 513.0968 411.93866 524.18442 432.85547 535.01761 c 0
 453.77228 545.85083 474.83001 556.46997 491.32031 564.63284 c 0
 507.37631 572.58085 522.97895 579.64498 520.68164 578.78128 c 1
 562.56523 595.32869 600.43881 597.24911 623.58203 590.42581 c 0
 646.75583 583.59341 655.89131 574.55598 658.19531 550.76956 c 0
 670.14452 427.40249 640.68169 351.09809 599.52539 293.39261 c 0
 558.36928 235.68701 503.61542 197.93611 460.35352 158.17972 c 0
 452.990200293 151.414829288 448.372337632 141.707484464 448.372337632 130.930091144 c 0
 448.372337632 121.282665061 452.088940883 112.482122242 458.14648 105.89261 c 0
 464.911214089 98.5315744495 474.617023983 93.9153528833 485.392502098 93.9153528833 c 0
 495.037849525 93.9153528833 503.836739573 97.6303616914 510.42578 103.68558 c 0
 546.96357 137.26279 609.71469 180.24404 659.76758 250.42386 c 0
 709.82058 320.60364 745.27369 419.3362 731.85156 557.90823 c 0
 726.92007 608.82191 689.72626 648.07118 644.50977 661.40237 c 0
 633.20565 664.73518 621.44503 666.86137 609.32812 667.83987 c 0
 603.64833 668.29857 597.8894 668.50608 592.0625 668.46878 c 1
 592.0625 668.46875 l 1
EndSplineSet
Validated: 524837
EndChar

StartChar: "+MLAw6jDV 5"
Encoding: 5 12360 4
Width: 1024
LayerCount: 2
Fore
SplineSet
413.81055 928.58008 m 1
 405.507559136 928.554943595 397.811624611 925.771728499 391.64648 921.12305 c 0
 382.684981632 914.368033934 376.887178256 903.635445803 376.887178256 891.559393989 c 0
 376.887178256 883.212545417 379.705083717 875.494151568 384.375 869.30078 c 0
 417.58971 825.24888 451.14356 784.73525 489.01367 756.31445 c 0
 495.194561377 751.677674495 502.871894748 748.929471732 511.186040092 748.929471732 c 0
 523.290348818 748.929471732 534.058400142 754.705826774 540.81055 763.70312 c 0
 545.449604537 769.884874531 548.199296142 777.564114702 548.199296142 785.880511841 c 0
 548.199296142 797.982990831 542.424664161 808.749611029 533.42969 815.50195 c 0
 506.43169 835.76335 475.12 871.87066 443.4668 913.85156 c 0
 436.788216102 922.711765666 426.231382624 928.448746003 414.32227 928.57812 c 0
 414.23543895 928.578720462 414.148537233 928.579021185 414.061565833 928.579021185 c 0
 413.974594433 928.579021185 413.89738105 928.578720462 413.81055 928.57812 c 1
 413.81055 928.58008 l 1
464.25391 686.23828 m 0
 464.194395398 686.238561915 464.13484778 686.238703031 464.075267463 686.238703031 c 0
 458.801481004 686.238703031 453.758837257 685.114986488 449.2168 683.12305 c 2
 449.2168 683.12305 391.42316 657.75226 332.66406 631.84766 c 0
 303.28446 618.89537 273.66503 605.81152 250.86523 595.67773 c 0
 239.46533 590.61082 229.78515 586.28509 222.62305 583.05469 c 0
 219.04215 581.43947 216.10139 580.10451 213.80859 579.04492 c 0
 211.51569 577.98533 211.55452 578.21714 207.41602 575.91602 c 0
 196.051634362 569.598149827 188.354961553 557.467851052 188.354961553 543.554083656 c 0
 188.354961553 537.044759516 190.102019196 530.90984528 193.05859 525.59375 c 0
 199.37697695 514.231185781 211.506267877 506.536012284 225.418680007 506.536012284 c 0
 231.925574058 506.536012284 238.058340156 508.281812406 243.37305 511.23633 c 1
 240.18455 509.46343 242.92241 510.98052 244.84961 511.87109 c 0
 246.77691 512.76182 249.57757 514.03467 253.04297 515.59766 c 0
 259.97357 518.72374 269.58973 523.02097 280.92383 528.05859 c 0
 303.59203 538.13387 333.17318 551.20383 362.51758 564.14062 c 0
 378.49387 571.18393 379.52314 571.62075 394.21484 578.08594 c 1
 332.97855 439.74914 255.37644 303.97383 173.90234 168.10352 c 0
 170.573317413 162.551307174 168.658909671 156.055695984 168.658909671 149.116479326 c 0
 168.658909671 135.636175695 175.820319666 123.813830926 186.60547 117.3457 c 0
 192.157681207 114.016680133 198.653289724 112.102274083 205.592503316 112.102274083 c 0
 219.072805109 112.102274083 230.8951485 119.263682108 237.36328 130.04883 c 0
 271.18938 186.45903 304.59971 243.13215 336.62891 300.31055 c 1
 354.51741 315.11235 390.55487 336.01974 416.99414 344.94336 c 0
 422.59257 346.83286 427.35394 347.73141 431.58984 348.48633 c 1
 436.87597 283.00412 446.29664 231.99092 466.38086 191.80664 c 0
 488.04216 148.46665 526.05315 118.98155 571.51172 108.75195 c 0
 658.31802 89.21777 752.6088 112.23735 841.9043 160.15234 c 0
 853.533460867 166.392116877 861.449093689 178.668204445 861.449093689 192.778497924 c 0
 861.449093689 199.087779381 859.805172938 205.045913592 857.01562 210.24609 c 0
 850.775843723 221.875252829 838.49975508 229.790887282 824.389460148 229.790887282 c 0
 818.080183507 229.790887282 812.122053572 228.146968966 806.92188 225.35742 c 0
 728.24266 183.13904 650.68848 166.78628 587.75977 180.94727 c 0
 559.73827 187.25299 546.36571 197.29855 532.57422 224.89258 c 0
 518.78272 252.48657 508.75547 299.66328 504.04297 368.57227 c 0
 503.15436 381.56575 497.75253 396.21374 487.53711 406.46484 c 0
 477.32173 416.71594 464.48797 421.40408 453.45508 423.11719 c 0
 447.93856 423.97378 442.62594 424.3104 437.46484 424.22461 c 0
 424.13925 424.00275 411.79832 420.98733 399.37891 417.03516 c 1
 436.17722 488.81224 469.86993 561.61147 498.60156 635.90039 c 0
 500.198055735 640.03307068 501.073588639 644.523199416 501.073588639 649.216206136 c 0
 501.073588639 669.581348297 484.597268398 686.144811422 464.25391 686.23828 c 0
EndSplineSet
Validated: 524841
EndChar

StartChar: "+MLAw6jDV 6"
Encoding: 6 12362 5
Width: 1024
LayerCount: 2
Fore
SplineSet
402.00781 840.29102 m 1
 402.00981 840.28902 l 1
 401.954430754 840.289264105 401.899022942 840.289386284 401.843586818 840.289386284 c 0
 401.788150695 840.289386284 401.739009246 840.289264105 401.68363 840.28902 c 0
 381.425730356 840.098454456 365.038104203 823.593204888 365.038104203 803.290623957 c 0
 365.038104203 803.172576635 365.03213442 803.061108107 365.03324 802.94332 c 2
 366.1641 680.09957 l 1
 329.131 679.86887 292.53028 679.67274 264.27738 679.61324 c 0
 248.65128 679.58034 235.50014 679.58854 226.21684 679.64444 c 0
 221.57524 679.67244 217.87429 679.71944 215.49809 679.76944 c 0
 214.45639 679.79134 213.81406 679.81404 213.45316 679.82804 c 2
 213.45316 679.82804 213.44316 679.82795 213.44316 679.82804 c 0
 212.297968577 679.935023343 211.137688625 679.989721917 209.964733951 679.989721917 c 0
 192.423614777 679.989721917 177.755844962 667.734528155 173.95683 651.34172 c 0
 173.333578231 648.651371253 173.004111039 645.848995941 173.004111039 642.97027668 c 0
 173.004111039 625.430107451 185.254810167 610.747180536 201.64628 606.94719 c 0
 211.00249 604.77959 208.4868 605.96615 209.8123 605.90617 c 0
 211.1374 605.84607 212.42413 605.81327 213.95292 605.78117 c 0
 217.01022 605.71727 220.92637 605.67784 225.76347 605.64836 c 0
 235.43677 605.58936 248.69869 605.58346 264.42949 605.61716 c 0
 292.92949 605.67726 329.68155 605.86734 366.84355 606.09763 c 1
 367.77714 504.81052 l 1
 276.87705 479.43744 194.83345 431.70745 161.03125 352.03516 c 0
 141.13665 305.14464 156.0234 254.34603 184.625 215.89062 c 0
 213.2266 177.43522 258.80587 147.52986 312.75977 147.63867 c 0
 338.86306 147.69087 367.49149 150.13393 394.12891 165.97461 c 0
 420.76618 181.81521 440.52347 213.54083 443.93555 251.63477 c 0
 444.034310952 252.735782937 444.084760413 253.850623964 444.084760413 254.977155112 c 0
 444.084760413 255.090248889 444.083044735 255.16058402 444.08203 255.27344 c 2
 442.32617 445.63086 l 1
 522.99788 458.4969 609.17558 452.10871 665.42969 428.44531 c 0
 698.19929 414.66092 716.03299 391.03974 725.23047 361.07031 c 0
 734.42829 331.10085 732.78443 294.95672 722.27734 265.22461 c 0
 716.84544 249.8532 708.62939 241.51216 696.38867 234.75977 c 0
 684.14788 228.00738 667.3653 224.07887 649.70508 223.49414 c 0
 632.04478 222.90945 613.69938 225.64531 599.95898 229.74023 c 0
 586.21847 233.83497 577.10866 242.23094 580.80273 237.58594 c 1
 574.021952016 246.112299094 563.559594497 251.582493275 551.829686711 251.582493275 c 0
 543.138155093 251.582493275 535.130079953 248.538291337 528.8125 243.51367 c 0
 520.286140906 236.732892016 514.815946725 226.270534497 514.815946725 214.540626711 c 0
 514.815946725 205.849095093 517.860148663 197.841019953 522.88477 191.52344 c 0
 538.68319 171.65801 557.06771 165.30597 578.82422 158.82227 c 0
 600.58069 152.3386 625.72794 148.6602 652.15625 149.53516 c 0
 678.58426 150.41015 706.49436 155.81893 732.13086 169.96094 c 0
 757.76785 184.10295 780.61767 208.21424 792.05078 240.56836 c 0
 807.73469 284.94957 810.47691 335.51546 795.9707 382.78125 c 0
 781.46491 430.04708 747.51303 474.19619 694.12305 496.6543 c 0
 621.96665 527.00689 530.31017 533.41993 441.63867 520.45312 c 1
 440.84375 606.61719 l 1
 495.33524 607.0202 541.75195 607.39648 541.75195 607.39648 c 2
 562.024406101 607.570166831 578.429078128 624.082022835 578.429078128 644.395160062 c 0
 578.429078128 644.505810289 578.434561501 644.610277385 578.43359 644.7207 c 0
 578.25879655 664.99220246 561.747373328 681.395757391 541.434927736 681.395757391 c 0
 541.327592886 681.395757391 541.226260731 681.401304213 541.11914 681.40039 c 2
 541.11914 681.40039 494.66423 681.02244 440.16016 680.61914 c 1
 439.02539 803.63086 l 2
 438.839249513 823.892578168 422.332266826 840.28467473 402.026916896 840.28467473 c 0
 402.020432137 840.28467473 402.014293983 840.291023343 402.00781 840.29102 c 1
691.6582 725.67578 m 0
 691.593124849 725.676117124 691.528010178 725.676285893 691.4628564 725.676285893 c 0
 678.371972377 725.676285893 666.886404733 718.901706243 660.30859 708.63086 c 0
 656.624189603 702.879212044 654.487285431 696.04299393 654.487285431 688.711613602 c 0
 654.487285431 675.622409665 661.237219369 664.09581686 671.50586 657.51758 c 0
 727.93576 621.37434 780.94644 596.65876 831.62695 576.28125 c 0
 835.888533001 574.566944545 840.541732612 573.623312456 845.413590111 573.623312456 c 0
 860.963882957 573.623312456 874.293117967 583.199701816 879.76367 596.80273 c 0
 881.47729183 601.063582508 882.420527636 605.715850858 882.420527636 610.58668527 c 0
 882.420527636 626.139522628 872.840939683 639.470573068 859.23438 644.93945 c 0
 811.16676 664.26646 763.06331 686.75082 711.41992 719.82812 c 0
 705.720941639 723.4803979 698.914179602 725.636083077 691.6582 725.67578 c 0
368.49414 427.38086 m 1
 370.06641 257.08789 l 2
 368.14271 237.61879 363.83844 234.05518 356.30664 229.57617 c 0
 348.59944 224.99289 332.66818 221.68084 312.61328 221.64062 c 0
 287.13288 221.58962 260.85965 237.38402 243.99805 260.05469 c 0
 227.13645 282.72539 222.9404 308.48098 229.1543 323.12695 c 0
 247.6615 366.74837 300.68714 404.33704 368.49414 427.38086 c 1
EndSplineSet
Validated: 524837
EndChar

StartChar: "+MLAw6jDV 7"
Encoding: 7 12363 6
Width: 1024
LayerCount: 2
Fore
SplineSet
365.98242 900.6875 m 1
 365.934552971 900.687682345 365.886664631 900.6877736 365.838755147 900.6877736 c 0
 348.525128127 900.6877736 333.978826546 888.7540064 329.95117 872.68164 c 2
 271.24414 638.47852 l 1
 153.54688 626.52539 l 2
 134.894134618 624.633995819 120.317148868 608.863604715 120.317148868 589.715442807 c 0
 120.317148868 588.441050671 120.342709058 587.217932887 120.46875 585.97656 c 0
 122.362471391 567.32622653 138.131747359 552.751863984 157.278186284 552.751863984 c 0
 158.55543161 552.751863984 159.781318902 552.777701011 161.02539 552.9043 c 2
 252.11328 562.15625 l 1
 153.64258 169.32031 l 2
 152.919811858 166.435950079 152.535994363 163.41778534 152.535994363 160.31068263 c 0
 152.535994363 142.99844512 164.464750369 128.466522401 180.53516 124.4375 c 0
 183.421174006 123.713846155 186.441190457 123.329543237 189.55025736 123.329543237 c 0
 206.862987225 123.329543237 221.39529153 135.258977013 225.42383 151.33008 c 2
 330.39648 570.10742 l 1
 474.93164 584.78711 l 2
 474.978837673 584.790375805 475.025120975 584.793667014 475.07227 584.79711 c 0
 499.40868 587.35993 509.0211 582.43315 510.38672 581.15257 c 0
 511.72656 579.89607 515.47433 575.1023 512.1875 553.85179 c 2
 456.8457 336.83619 l 2
 455.75701 332.56528 449.30488 318.91554 443.52148 311.62525 c 1
 380.73828 363.2483 l 2
 374.349428893 368.501360542 366.171883773 371.656665132 357.263193278 371.656665132 c 0
 345.751343189 371.656665132 335.448401053 366.423741057 328.66016 358.16822 c 0
 323.406619522 351.7792261 320.250994385 343.601302752 320.250994385 334.692159752 c 0
 320.250994385 323.180854281 325.483432106 312.878341311 333.73828 306.09009 c 2
 410.06641 243.32837 l 2
 412.609853169 241.237087987 415.430959417 239.48494296 418.47461 238.12525 c 0
 435.01851 230.73287 454.85718 232.37637 468.52539 238.51587 c 0
 482.1936 244.65538 491.53466 253.55883 499.22656 262.60963 c 0
 514.60867 280.70903 523.75867 299.77203 528.54688 318.55103 c 1
 528.54688 318.56273 l 1
 584.44922 537.72875 l 2
 584.714296448 538.772810087 584.939212305 539.85465068 585.11328 540.93187 c 0
 590.83915 576.10287 585.8204 611.85948 561.00391 635.13109 c 0
 542.39151 652.58468 518.74332 659.02002 493.27539 659.58812 c 0
 484.78608 659.77751 476.09509 659.31681 467.32031 658.39281 c 2
 349.52734 646.42992 l 1
 401.73242 854.69164 l 2
 402.454967776 857.575588193 402.838664501 860.593292046 402.838664501 863.699905885 c 0
 402.838664501 881.011322626 390.911053793 895.542670978 374.8418 899.5725 c 0
 372.000111185 900.286560588 369.041287909 900.674693396 365.98242 900.68773 c 1
 365.98242 900.6875 l 1
675.11914 834.92969 m 0
 665.026523094 834.839856861 655.882269744 830.705881365 649.25586 824.06445 c 0
 642.576873944 817.369547611 638.445012785 808.132476453 638.445012785 797.93797279 c 0
 638.445012785 787.709476635 642.603978377 778.43457844 649.32226 771.73438 c 0
 711.95062 709.26007 773.53588 650.39222 824.97461 579.03711 c 0
 831.695462639 569.713606298 842.648382227 563.639558423 855.008776717 563.639558423 c 0
 863.069075459 563.639558423 870.54501136 566.275573272 876.625 570.6582 c 0
 885.948503702 577.379052639 892.022551577 588.331972227 892.022551577 600.692366717 c 0
 892.022551577 608.752665459 889.386536728 616.22860136 885.00391 622.30859 c 0
 828.52953 700.649 763.41054 762.45045 701.58594 824.12305 c 0
 694.930653078 830.763083003 685.754127056 834.881020941 675.63086 834.92969 c 0
 675.54402895 834.930290462 675.457127233 834.930591185 675.370155833 834.930591185 c 0
 675.283184433 834.930591185 675.20597105 834.930290462 675.11914 834.92969 c 0
EndSplineSet
Validated: 524837
EndChar

StartChar: "+MLAw6jDV 8"
Encoding: 8 12365 7
Width: 1024
LayerCount: 2
Fore
SplineSet
505.37695 909.86719 m 0
 505.3113329 909.866682775 505.249125801 909.866039139 505.18359 909.86519 c 0
 501.283908978 909.84274975 497.518556739 909.206946784 493.99219 908.06441 c 0
 479.13718173 903.256400287 468.382088538 889.301048417 468.382088538 872.853532501 c 0
 468.382088538 868.878030688 469.022841858 865.053172979 470.18555 861.46285 c 2
 490.53906 798.60348 l 1
 445.63314 788.97528 399.57604 780.74612 352.03125 774.25973 c 0
 333.988948659 771.799948437 320.06719937 756.313029852 320.06719937 737.600171481 c 0
 320.06719937 735.890424204 320.144177609 734.244111099 320.36914 732.5957 c 0
 322.829757169 714.554329546 338.316241501 700.633566379 357.028437115 700.633566379 c 0
 358.738285123 700.633566379 360.384695837 700.710561541 362.0332 700.93555 c 0
 414.1477 708.04534 464.50786 717.16156 513.44727 727.84766 c 1
 547.86914 621.53711 l 1
 445.45797 600.4004 339.46585 581.59987 241.08203 561.60156 c 0
 224.201943266 558.169435537 211.481948857 543.229939157 211.481948857 525.342972945 c 0
 211.481948857 522.810239089 211.709549552 520.364851485 212.19531 517.97461 c 0
 215.62815324 501.095448293 230.567209425 488.376387693 248.453519059 488.376387693 c 0
 250.986389936 488.376387693 253.431908227 488.604028306 255.82227 489.08984 c 0
 355.42795 509.33655 464.33845 528.45385 570.83008 550.62305 c 1
 604.6543 446.15625 l 1
 439.7793 459.79102 l 2
 397.36661 463.2991 350.70708 451.00006 309.98438 426.18164 c 0
 269.26178 401.36326 232.49726 359.61006 232.4668 304.49805 c 0
 232.4396 255.25836 251.13991 213.3692 282.58984 187.06641 c 0
 314.03975 160.7635 354.02616 149.49517 396.35938 144.74805 c 0
 481.02586 135.25357 580.47126 151.65029 666.86914 164.89258 c 0
 684.616039422 167.612868616 698.226802918 182.961663139 698.226802918 201.464335997 c 0
 698.226802918 203.382828836 698.118038531 205.232154086 697.83594 207.07227 c 0
 695.115277077 224.818737264 679.766685103 238.429048638 661.264319559 238.429048638 c 0
 659.347809721 238.429048638 657.500415748 238.320586559 655.66211 238.03906 c 0
 569.13194 224.77636 472.62884 210.65697 404.60547 218.28516 c 0
 370.59376 222.09908 345.05402 231.30217 330.07031 243.83398 c 0
 315.08652 256.36539 306.4525 271.67483 306.4707 304.45312 c 0
 306.4828 326.44393 321.51204 346.54818 348.49414 362.99219 c 0
 375.47614 379.43608 412.42713 387.80519 433.68164 386.04688 c 2
 653.91406 367.82812 l 2
 654.929875306 367.744240049 655.957271454 367.7014655 656.994579296 367.7014655 c 0
 677.417511152 367.7014655 693.998342296 384.282296644 693.998342296 404.7052285 c 0
 693.998342296 408.677732682 693.326939419 412.509635423 692.16602 416.09766 c 2
 643.50195 566.39844 l 1
 691.97625 577.40484 739.36588 589.26376 784.49219 602.40234 c 0
 799.881808829 606.884587012 811.140765549 621.104047651 811.140765549 637.932427303 c 0
 811.140765549 641.522348391 810.627418023 644.982352063 809.67188 648.26562 c 0
 805.190514276 663.656628965 790.970371213 674.916909262 774.141002438 674.916909262 c 0
 774.108939263 674.916909262 774.084774183 674.921961695 774.05273 674.92188 c 0
 770.496541978 674.914616779 767.061259222 674.398572074 763.80664 673.45312 c 0
 718.53863 660.27332 670.33711 648.32121 620.5918 637.1543 c 1
 585.68164 744.98047 l 1
 612.59044 751.86027 639.10564 759.16597 665.25195 766.85547 c 0
 680.596873628 771.365956632 691.813312648 785.563464512 691.813312648 802.360039229 c 0
 691.813312648 805.986106319 691.288616162 809.480473246 690.31445 812.79297 c 0
 685.802482923 828.135542419 671.606130505 839.349746786 654.811229063 839.349746786 c 0
 654.744460222 839.349746786 654.687776256 839.353874034 654.62109 839.35352 c 0
 651.065708939 839.333717881 647.628679522 838.805050585 644.37695 837.84766 c 0
 617.54817 829.95746 590.3865 822.49898 562.8418 815.52148 c 1
 540.58594 884.25781 l 2
 535.778809687 899.114321389 521.825538248 909.86719 505.37695 909.86719 c 0
EndSplineSet
Validated: 524841
EndChar

StartChar: "+MLAw6jDV 9"
Encoding: 9 12367 8
Width: 1024
LayerCount: 2
Fore
SplineSet
661.65625 836.11133 m 0
 649.574023412 836.0802035 638.861178449 830.276691956 632.12891 821.28125 c 1
 636.67859 827.36104 627.5528 816.7519 617.56445 807.54297 c 0
 607.57607 798.33404 593.84825 786.00203 577.83594 771.75 c 0
 545.81132 743.24586 504.60081 706.98193 464.40625 671.09766 c 0
 424.21169 635.21339 385.10496 599.79066 356.62305 572.26758 c 0
 342.38209 558.50602 330.93492 546.94656 322.39258 536.99805 c 0
 318.12141 532.02377 314.64519 528.08356 310.73633 520.91992 c 0
 308.78186 517.3381 305.80972 513.39113 305.23633 502.25781 c 0
 304.94946 496.69117 305.81266 488.35612 310.77344 480.2168 c 0
 315.73293 472.07959 324.42429 466.21685 331.11133 463.93945 c 1
 324.21358 466.28816 335.21503 461.51695 345.61523 454.32031 c 0
 356.01544 447.12368 369.88553 436.89962 385.75195 424.80664 c 0
 417.48487 400.62073 457.36866 368.87311 496.82617 336.88281 c 0
 536.28372 304.89251 575.36858 272.63016 605.75391 247.25781 c 0
 636.13923 221.88584 660.26956 201.03439 661.40625 199.96289 c 0
 668.032392054 193.715286472 676.961328754 189.883981306 686.778053296 189.883981306 c 0
 697.380843828 189.883981306 706.958423666 194.342022078 713.70703 201.49805 c 0
 719.956957892 208.124615626 723.789870556 217.05523902 723.789870556 226.874022746 c 0
 723.789870556 237.478750062 719.330196715 247.057830869 712.17188 253.80664 c 0
 703.41263 262.06642 683.84022 278.45444 653.18164 304.05469 c 0
 622.52302 329.65494 583.22189 362.10205 543.42773 394.36523 c 0
 503.63358 426.62842 463.39763 458.67526 430.61133 483.66406 c 0
 417.90078 493.35171 407.50448 500.83776 397.35547 508.08984 c 1
 401.37776 512.14021 403.16623 514.3383 408.04492 519.05273 c 0
 434.98158 545.08261 473.76458 580.25276 513.6875 615.89453 c 0
 553.61046 651.53631 594.74178 687.72931 627.03516 716.47266 c 0
 643.18183 730.84431 657.09733 743.33488 667.72461 753.13281 c 0
 678.35188 762.93078 682.81731 765.50691 691.37695 776.94531 c 0
 695.997074912 783.119873201 698.734403943 790.783261871 698.734403943 799.08094286 c 0
 698.734403943 811.203702093 692.940607233 821.986114103 683.91992 828.73633 c 0
 677.745365631 833.356431745 670.081996379 836.093745652 661.784338315 836.093745652 c 0
 661.751417699 836.093745652 661.689150594 836.111416121 661.65625 836.11133 c 0
EndSplineSet
Validated: 524809
EndChar

StartChar: "+MLAw6jDV 10"
Encoding: 10 12369 9
Width: 1024
LayerCount: 2
Fore
SplineSet
603.95508 880.79883 m 2
 603.95508 880.79683 l 1
 603.908978361 880.796999138 603.862856962 880.79708378 603.816715949 880.79708378 c 0
 603.770574937 880.79708378 603.729691639 880.796999138 603.68359 880.79683 c 0
 598.745108415 880.744063879 594.004480495 879.704860302 589.70898 877.89448 c 0
 576.408811809 872.284288313 567.063460061 859.118061757 567.063460061 843.786335638 c 0
 567.063460061 838.695238539 568.136430803 833.834130877 570 829.41797 c 0
 584.6524 794.68467 596.22036 761.1108 605.11328 728.50391 c 1
 428.79102 704.33984 l 2
 410.758978615 701.870853797 396.848095906 686.388721772 396.848095906 667.68316796 c 0
 396.848095906 665.967693693 396.925893221 664.315811288 397.15234 662.66211 c 0
 399.62466195 644.633789933 415.105057686 630.726847394 433.807962196 630.726847394 c 0
 435.523802939 630.726847394 437.176040245 630.804708072 438.83008 631.03125 c 2
 620.86914 655.97461 l 1
 648.21765 486.99121 605.95116 342.16347 556.76367 191.69727 c 0
 555.58050306 188.078583593 554.940630546 184.215048206 554.940630546 180.203241925 c 0
 554.940630546 163.79255631 565.634109738 149.867384882 580.4375 145.0293 c 0
 584.054170017 143.847595153 587.915311433 143.208546971 591.924532728 143.208546971 c 0
 608.334369774 143.208546971 622.258885132 153.900918829 627.09766 168.70312 c 0
 676.61597 320.18152 722.27747 480.86056 693.59766 665.93945 c 1
 829.56055 684.57031 l 2
 847.592714389 687.039185917 861.503727348 702.521375332 861.503727348 721.227016715 c 0
 861.503727348 722.943155581 861.425839343 724.595684914 861.19922 726.25 c 0
 858.746995797 744.158430224 843.451056787 758.039805035 824.91797 758.22852 c 0
 824.787007058 758.229887076 824.655881951 758.230572306 824.524598062 758.230572306 c 0
 822.809678655 758.230572306 821.166858823 758.114972758 819.51367 757.88867 c 2
 678.68359 738.58789 l 1
 668.78078 777.33659 655.48653 817.15535 638.17773 858.18555 c 0
 632.566030034 871.482350367 619.40155033 880.824734468 604.072258723 880.824734468 c 0
 604.026691253 880.824734468 604.000609071 880.798994961 603.95508 880.79883 c 2
223.11719 730.75 m 0
 205.084062631 730.689041374 190.06951552 717.668473245 186.87109 700.54297 c 0
 162.44439 569.83799 138.02911 417.60605 212.16211 248.46875 c 0
 217.885194377 235.424335824 230.918881154 226.303558222 246.066029301 226.303558222 c 0
 254.233962396 226.303558222 261.80185368 229.002841866 267.92578 233.49219 c 0
 322.92538 273.82999 345.87643 327.8373 367.95703 371.23047 c 0
 370.517380211 376.260331204 371.96123451 381.952119887 371.96123451 387.978477662 c 0
 371.96123451 402.37544333 363.77933295 414.877669094 351.76172 420.99219 c 0
 346.733572076 423.550325121 341.044259588 424.99284502 335.020687213 424.99284502 c 0
 320.624358624 424.99284502 308.122624317 416.811666888 302.00781 404.79492 c 0
 287.82291 376.91864 275.54544 352.41026 260.15234 330.97656 c 1
 219.81165 458.40447 238.34098 573.12744 259.61328 686.95312 c 0
 260.027228866 689.167243257 260.243705518 691.450532796 260.243705518 693.783984182 c 0
 260.243705518 711.872128419 247.204496356 726.915181233 230.04102 730.12305 c 0
 227.831810964 730.535086345 225.553807457 730.750539421 223.225879286 730.750539421 c 0
 223.178297596 730.750539421 223.164729814 730.75017986 223.11719 730.75 c 0
EndSplineSet
Validated: 524841
EndChar

StartChar: "+MLAw6jDV 11"
Encoding: 11 12371 10
Width: 1024
LayerCount: 2
Fore
SplineSet
520.67188 784.94922 m 0
 485.37298 784.89222 450.36452 781.88577 418.30664 775.98047 c 0
 375.56282 768.10677 338.09323 756.60209 309.76953 732.87109 c 0
 301.668656587 726.081581357 296.514178067 715.889596271 296.514178067 704.50321837 c 0
 296.514178067 695.468350323 299.792178851 687.173828263 305.17969 680.74609 c 0
 311.969196123 672.643116995 322.162531116 667.487091677 333.550617348 667.487091677 c 0
 342.583129628 667.487091677 350.875700626 670.763450502 357.30273 676.14844 c 0
 367.16653 684.41284 395.83198 696.59363 431.71289 703.20312 c 0
 467.59391 709.81252 510.72396 712.37857 551.94727 710.13477 c 0
 593.17057 707.89097 632.69633 700.63049 660.66211 689.80469 c 0
 669.21862 686.49239 675.87906 682.96754 681.68555 679.43164 c 1
 652.1875 663.19922 l 2
 640.745184596 656.90372178 632.984274905 644.730366026 632.984274905 630.758656715 c 0
 632.984274905 624.308413382 634.700598595 618.225613158 637.60742 612.94336 c 0
 643.903155938 601.501863403 656.076059941 593.741629547 670.047160896 593.741629547 c 0
 676.497738977 593.741629547 682.580834162 595.458127711 687.86328 598.36523 c 2
 756.66211 636.22656 l 2
 768.105741626 642.522637828 775.867569371 654.697305806 775.867569371 668.670540071 c 0
 775.867569371 672.338793719 775.287044095 675.856584971 774.29102 679.20312 c 0
 762.0794 720.22563 726.18628 743.79506 687.37695 758.81836 c 0
 648.56767 773.84176 602.90193 781.46503 555.9707 784.01953 c 0
 544.23833 784.65813 532.43826 784.96832 520.67188 784.94922 c 0
285.02344 372.89453 m 0
 285.006985922 372.89386653 284.991088566 372.893214996 284.97464 372.89253 c 0
 270.059023764 372.820140271 257.23351915 363.93363982 251.4473 351.15229 c 0
 249.345638786 346.508060694 248.175372053 341.353785597 248.175372053 335.928336961 c 0
 248.175372053 320.933502032 257.065031195 307.998538749 269.90042 302.1894 c 0
 435.57491 227.21189 584.34857 226.83268 717.94534 261.21089 c 0
 733.903420982 265.317706826 745.709570577 279.814456093 745.709570577 297.046919593 c 0
 745.709570577 300.234888109 745.316320122 303.311368692 744.55667 306.26362 c 0
 740.449853174 322.221700982 725.953103907 334.027850577 708.720640407 334.027850577 c 0
 705.532671891 334.027850577 702.456191308 333.634600122 699.50394 332.87495 c 0
 578.38248 301.70709 451.37504 301.27932 300.41016 369.59961 c 0
 295.763528399 371.703900407 290.606015863 372.875719458 285.176970087 372.875719458 c 0
 285.135168291 372.875719458 285.065209492 372.894668833 285.02344 372.89453 c 0
EndSplineSet
Validated: 524841
EndChar

StartChar: "+MLAw6jDV 12"
Encoding: 12 12373 11
Width: 1024
LayerCount: 2
Fore
SplineSet
508.80078 872.09961 m 0
 508.79052446 872.099618365 508.780267949 872.099622548 508.770010468 872.099622548 c 0
 502.428827746 872.099622548 496.420084807 870.478024874 491.20117 867.66211 c 0
 479.613101403 861.40982643 471.731582328 849.156272213 471.731582328 835.076416901 c 0
 471.731582328 829.374913082 473.083068712 823.962060179 475.39062 819.13672 c 1
 475.35662 819.19472 475.35022 819.19672 475.39062 819.09762 c 0
 475.6979 818.34932 476.21748 817.04073 476.88086 815.35543 c 0
 478.20762 811.98443 480.11651 807.05645 482.47656 800.90035 c 0
 487.19663 788.58775 493.75068 771.31123 501.5 750.79293 c 0
 508.41374 732.48723 516.51353 710.95966 524.89648 688.65816 c 1
 263.6543 642.38867 l 2
 246.319842435 639.320048275 233.136888041 624.165228674 233.136888041 605.955662418 c 0
 233.136888041 603.745164837 233.297546645 601.612122009 233.66992 599.50781 c 0
 236.741061791 582.176414469 251.89443617 568.996608912 270.101827558 568.996608912 c 0
 272.315431847 568.996608912 274.451492736 569.157851987 276.55859 569.53125 c 2
 551.3418 618.19336 l 1
 553.40659 612.68515 555.37224 607.46056 557.43945 601.94336 c 0
 582.54784 534.93116 592.11871 509.24704 607.32617 468.53125 c 1
 592.91585 474.17975 577.47106 480.02649 561.24805 485.6875 c 0
 526.88916 497.6765 489.76352 508.89336 454.43359 515.44336 c 0
 419.10367 521.99328 385.89935 525.58978 353.83984 513.9375 c 0
 313.52171 499.28389 282.87958 469.56136 261.29297 437.20898 c 0
 239.70639 404.85657 226.19904 369.97741 226.39062 335.13281 c 0
 226.68036 282.42692 258.74609 240.35036 298.60938 214.29883 c 0
 338.47266 188.24734 387.15449 173.45137 436.05273 164.18359 c 0
 484.95098 154.91619 534.06811 151.6135 574.48438 151.92188 c 0
 594.69253 152.07608 612.66508 153.12242 627.83398 154.99219 c 0
 643.00289 156.8615 653.5294 157.52345 668.60352 165.58594 c 0
 680.253951639 171.819187141 688.187262032 184.106925576 688.187262032 198.23296616 c 0
 688.187262032 204.52750416 686.550844727 210.47257587 683.77344 215.66406 c 0
 677.539784753 227.313165847 665.252772245 235.245374029 651.127712993 235.245374029 c 0
 644.835009437 235.245374029 638.89157118 233.609874753 633.70117 230.83398 c 1
 639.00744 233.67199 630.11808 229.83254 618.7832 228.43555 c 0
 607.44836 227.03863 591.82474 226.05475 573.91602 225.91797 c 0
 538.09864 225.64471 492.88413 228.72785 449.83398 236.88672 c 0
 406.78384 245.04604 365.90642 258.71494 339.08984 276.24023 c 0
 312.27326 293.76515 300.53287 310.37678 300.39453 335.53906 c 0
 300.32663 347.88829 308.00918 373.89231 322.85156 396.13672 c 0
 337.69393 418.38151 358.72088 436.97266 379.11523 444.38477 c 0
 386.6967 447.14038 411.52434 448.13389 440.94531 442.67969 c 0
 470.36633 437.22511 504.71203 427.03711 536.86719 415.81641 c 0
 601.17755 393.3758 656.33398 367.28906 656.33398 367.28906 c 2
 661.128310765 365.01822959 666.487245543 363.747713957 672.140583478 363.747713957 c 0
 692.563515334 363.747713957 709.144346478 380.3285451 709.144346478 400.751476957 c 0
 709.144346478 405.29614938 708.343549769 409.646130756 706.8418 413.66992 c 2
 706.8418 413.66992 667.06012 520.27974 626.73438 627.90625 c 0
 626.30033 629.06464 625.88724 630.15986 625.45312 631.31836 c 1
 760.33008 655.20508 l 2
 777.662403123 658.275458481 790.843162525 673.429270674 790.843162525 691.6373209 c 0
 790.843162525 693.850808459 790.681949489 695.986757379 790.30859 698.09375 c 0
 787.237771893 715.425538892 772.08421185 728.605748938 753.876541071 728.605748938 c 0
 753.852316682 728.605748938 753.828903556 728.638716639 753.80469 728.63867 c 0
 751.619124589 728.633714552 749.509144432 728.439432071 747.42773 728.07031 c 2
 599.01758 701.78516 l 1
 588.75057 729.11846 579.02633 754.96395 570.72656 776.93945 c 0
 562.95476 797.51715 556.37481 814.85422 551.57031 827.38672 c 0
 549.16808 833.65282 547.21678 838.70944 545.74023 842.46094 c 0
 545.00198 844.33634 544.38896 845.86622 543.8418 847.19922 c 0
 543.2946 848.53192 543.98885 847.74562 541.33203 852.66992 c 0
 535.084181925 864.24866624 522.866926832 872.08790087 508.80078 872.09961 c 0
EndSplineSet
Validated: 524837
EndChar

StartChar: "+MLAw6jDV 13"
Encoding: 13 12375 12
Width: 1024
LayerCount: 2
Fore
SplineSet
375.23047 830.08398 m 1
 375.099696537 830.08398 374.97420502 830.083336479 374.84375 830.08198 c 0
 368.498381755 830.013897929 362.487451263 828.321836782 357.28906 825.43745 c 0
 345.912780139 819.12296109 338.206314254 806.986082402 338.206314254 793.063465846 c 0
 338.206314254 786.565427725 339.947489926 780.440466208 342.89453 775.13081 c 0
 361.82887 741.01868 378.03287 721.69709 381.11719 693.38276 c 1
 366.23633 368.38086 l 2
 366.209722559 367.805699567 366.196271671 367.227127966 366.196271671 366.645439533 c 0
 366.196271671 365.911345387 366.217476255 365.237244449 366.25973 364.51367 c 0
 369.05106 317.23405 382.3572 278.91906 404.92574 250.69922 c 0
 427.49428 222.47938 458.50503 206.00326 489.73629 198.90039 c 0
 552.19888 184.69466 616.48647 202.06499 664.45699 224.56641 c 0
 677.046737767 230.473240339 685.77392819 243.266963331 685.77392819 258.082945899 c 0
 685.77392819 263.685773166 684.473191608 269.0120778 682.24019 273.77344 c 0
 676.334687606 286.366615634 663.539147171 295.096751433 648.720664661 295.096751433 c 0
 643.119009945 295.096751433 637.793756845 293.7965721 633.03316 291.56445 c 0
 596.41748 274.38915 542.84981 262.71113 506.14644 271.05859 c 0
 487.79476 275.23233 473.89625 282.93932 462.71871 296.91602 c 0
 451.686 310.71129 442.56165 332.34827 440.2773 367.59766 c 2
 455.2109 693.75977 l 2
 455.236697654 694.326165633 455.249736947 694.895863653 455.249736947 695.46858313 c 0
 455.249736947 696.630761637 455.196798117 697.718572226 455.09176 698.85352 c 0
 450.22206 751.61005 422.19434 784.74539 407.59762 811.04297 c 0
 401.282734183 822.41785594 389.146626447 830.12317393 375.225046831 830.12317393 c 0
 375.218966282 830.12317393 375.236509867 830.08398294 375.23043 830.08398 c 1
 375.23047 830.08398 l 1
EndSplineSet
Validated: 524841
EndChar

StartChar: "+MLAw6jDV 14"
Encoding: 14 12377 13
Width: 1024
LayerCount: 2
Fore
SplineSet
549.45508 872.17969 m 0
 545.898956929 872.164624852 542.462157091 871.640601731 539.20898 870.6875 c 0
 523.85330058 866.183792292 512.626636409 851.980999459 512.626636409 835.176770424 c 0
 512.626636409 831.560721844 513.148203531 828.07588453 514.11719 824.77148 c 0
 522.97867 794.55019 531.30918 758.78714 538.39258 720.99414 c 1
 408.55379 717.70974 266.57343 720.4933 204.92773 734.00391 c 0
 202.368256344 734.5648039 199.709957963 734.860413921 196.983160997 734.860413921 c 0
 179.28951947 734.860413921 164.505328382 722.39090169 160.86523 705.7832 c 0
 160.3043361 703.223726344 160.008726079 700.565427963 160.008726079 697.838630997 c 0
 160.008726079 680.14498947 172.47823831 665.360798382 189.08594 661.7207 c 0
 271.58954 643.63889 415.95691 643.4647 550.19141 647.27148 c 1
 551.79461 635.22227 553.25171 623.18696 554.50391 611.27344 c 1
 547.42992 611.37054 540.53184 610.65542 534.23242 609.14062 c 0
 508.58564 602.97202 486.43879 588.86099 466.3125 571.4707 c 0
 446.18621 554.07989 428.45473 533.0978 415.66602 509.88281 c 0
 402.87742 486.6682 393.69498 460.39661 399.74219 431.28711 c 0
 408.1053 391.03238 438.77854 373.14016 462.03125 359.50586 c 0
 485.20852 345.91615 506.6769 338.22176 506.81641 338.17188 c 0
 517.98279 334.07789 530.11441 332.18555 542.0293 332.67383 c 1
 521.73282 262.12105 497.19141 203.34168 497.19141 203.3418 c 1
 495.292772203 198.890679666 494.241807183 193.992738076 494.241807183 188.851267471 c 0
 494.241807183 173.571351367 503.480456441 160.433087161 516.70898 154.79102 c 0
 521.158910514 152.893583941 526.055295542 151.843321734 531.195046729 151.843321734 c 0
 546.471986492 151.843321734 559.608065878 161.078320453 565.25195 174.30273 c 2
 565.25195 174.30273 596.38928 247.08715 619.0293 332.14844 c 0
 630.34928 374.67874 639.74148 420.41911 641.81641 463.70898 c 0
 643.17628 492.08122 641.30452 519.85129 633.0918 545.36719 c 1
 632.00329 579.01288 629.0141 614.45882 624.58789 649.9082 c 1
 666.73839 651.7054 705.7134 653.87152 738.26953 656.07422 c 0
 763.03832 657.75002 784.10292 659.43663 800.32812 661.01953 c 0
 816.55341 662.60243 824.52118 662.85558 836.6543 666.14258 c 0
 852.386012329 670.402532357 863.972821781 684.789280152 863.972821781 701.860916807 c 0
 863.972821781 705.210185845 863.533029927 708.440951028 862.69727 711.52734 c 0
 858.435059018 727.255659192 844.04996422 738.839195492 826.980739015 738.839195492 c 0
 826.845004105 738.839195492 826.721331709 738.849121222 826.58594 738.84766 c 0
 823.377771959 738.813367261 820.270297172 738.365369973 817.30664 737.5625 c 1
 821.38948 738.6683 808.26187 736.14432 793.14648 734.66992 c 0
 778.0311 733.19512 757.51269 731.5485 733.27148 729.9082 c 0
 699.3585 727.6134 658.02202 725.34166 613.36523 723.50586 c 1
 605.46183 767.44086 595.74397 809.36814 585.12305 845.58984 c 0
 580.620417472 860.9472238 566.416787298 872.17550865 549.611345379 872.17550865 c 0
 549.55611534 872.17550865 549.510253584 872.179932294 549.45508 872.17969 c 0
555.38281 538.73828 m 1
 556.97139 536.63116 558.42509 533.47486 559.83398 530.13867 c 0
 559.87408 527.74774 560.22553 524.96289 560.24023 522.60938 c 0
 560.5339 475.60418 554.58768 435.86674 546.53906 417.63086 c 0
 542.51477 408.51316 539.01108 406.13934 538.98047 406.12305 c 0
 538.95027 406.10795 539.80896 404.88351 532.27734 407.65039 c 0
 532.228296554 407.667920477 532.178048543 407.685761059 532.12891 407.70309 c 2
 532.12891 407.70309 515.97912 413.65795 499.45703 423.34567 c 0
 482.93471 433.03328 471.83131 448.09204 472.19531 446.33981 c 1
 471.67143 448.86193 472.82599 460.28601 480.47852 474.1777 c 0
 488.13111 488.06898 500.95054 503.60389 514.69336 515.47849 c 0
 528.43606 527.35301 543.47182 535.25559 551.53711 537.19528 c 0
 554.86071 537.99461 555.17471 538.40754 555.38281 538.73825 c 2
 555.38281 538.73828 l 1
EndSplineSet
Validated: 524841
EndChar

StartChar: "+MLAw6jDV 15"
Encoding: 15 12379 14
Width: 1024
LayerCount: 2
Fore
SplineSet
670.74219 796.44727 m 1
 651.527968589 796.377491288 635.742036009 781.593801855 634.0293 762.80664 c 0
 630.7238 726.61384 628.41386 691.47247 625.23438 656.70117 c 1
 588.36085 650.72267 549.19897 644.25281 509.66016 637.5957 c 0
 480.78445 632.73402 452.10138 627.82861 424.0918 622.99414 c 1
 422.04297 716.57422 l 2
 421.606857108 736.617633708 405.199056201 752.755460563 385.051807282 752.755460563 c 0
 384.926689366 752.755460563 384.808416553 752.768821822 384.68359 752.76758 c 0
 384.53338449 752.765092623 384.389997254 752.761856135 384.24023 752.75758 c 0
 364.197169898 752.32106714 348.05975277 735.913427054 348.05975277 715.766433898 c 0
 348.05975277 715.490559758 348.04866987 715.229290478 348.05469 714.95485 c 2
 350.35352 610.11891 l 1
 335.50732 607.48953 321.12238 604.92337 307.67578 602.49196 c 0
 249.99258 592.06197 210.19227 584.74491 191.29297 579.55641 c 0
 175.622535354 575.255835053 164.094770667 560.898958335 164.094770667 543.870874575 c 0
 164.094770667 540.478177555 164.547473638 537.205957854 165.4043 534.08375 c 0
 169.70420979 518.41230769 184.061578043 506.883573188 201.090378063 506.883573188 c 0
 204.485684159 506.883573188 207.760414246 507.336980275 210.88477 508.19508 c 0
 217.91697 510.12567 263.5941 519.32542 320.8457 529.6775 c 0
 330.6481 531.45003 341.39989 533.35812 351.99609 535.24391 c 1
 355.63867 369.24 l 1
 353.20697 290.10369 420.08529 220.78019 500.875 228.06032 c 0
 611.84862 238.06201 710.8549 255.86504 798.35742 281.54274 c 0
 813.709179554 286.048919473 824.932116761 300.249786398 824.932116761 317.051225915 c 0
 824.932116761 320.667383942 824.410452985 324.15230703 823.44141 327.4568 c 0
 818.936076339 342.809901144 804.734550245 354.034113857 787.932155998 354.034113857 c 0
 784.31274394 354.034113857 780.824702079 353.511514012 777.51758 352.54079 c 0
 695.63177 328.51168 601.29677 311.41096 494.23047 301.76149 c 0
 461.31925 298.79569 428.17367 332.88565 429.61719 367.63844 c 0
 429.638008464 368.147568646 429.648519355 368.659336188 429.648519355 369.173539308 c 0
 429.648519355 369.457044356 429.64504623 369.702159786 429.63869 369.98415 c 2
 425.73244 548.18336 l 1
 456.98294 553.59398 489.41462 559.13839 521.94143 564.615 c 0
 553.87065 569.9907 585.53548 575.23594 616.00588 580.21657 c 1
 609.79298 541.34125 600.69145 502.32872 585.96486 462.2361 c 0
 584.505438711 458.262739951 583.708624779 453.970536057 583.708624779 449.493694895 c 0
 583.708624779 433.549594759 593.788472629 419.945439289 607.93947 414.74782 c 0
 611.912654791 413.288545013 616.204642872 412.491814807 620.681248821 412.491814807 c 0
 636.62598939 412.491814807 650.23059715 422.572489326 655.42775 436.72438 c 0
 675.32508 490.89366 686.05767 542.62414 692.78908 592.57789 c 1
 702.54438 594.1173 712.08441 595.61347 721.09768 597.00758 c 0
 749.06849 601.33371 773.17369 604.91119 791.34377 607.3943 c 0
 809.51347 609.87749 824.2597 611.15643 823.47658 611.1443 c 1
 843.628573059 611.456845407 859.892537227 627.91400257 859.892537227 648.13983621 c 0
 859.892537227 648.333877828 859.901442945 648.517373048 859.89846 648.71071 c 0
 859.587858686 668.864400846 843.129930179 685.130342514 822.902866968 685.130342514 c 0
 822.859569257 685.130342514 822.818673049 685.140538943 822.77541 685.14039 c 0
 822.62520449 685.137902623 822.481817254 685.134666135 822.33205 685.13039 c 0
 811.11895 684.95657 800.23218 683.29212 781.32619 680.70851 c 0
 762.4199 678.12441 738.00977 674.5044 709.78127 670.1382 c 0
 706.85569 669.6857 703.7259 669.19419 700.72072 668.72609 c 1
 703.15451 698.32609 705.10193 727.40465 707.72072 756.07765 c 0
 707.82284814 757.196943755 707.87503701 758.330580286 707.87503701 759.476309991 c 0
 707.87503701 778.751270022 693.066485731 794.568213808 674.23635 796.28664 c 0
 673.243329363 796.378314804 672.268011873 796.429457412 671.25393 796.44094 c 0
 671.16709895 796.441540462 671.080197233 796.441841185 670.993225833 796.441841185 c 0
 670.906254433 796.441841185 670.82904105 796.441540462 670.74221 796.44094 c 1
 670.74219 796.44727 l 1
EndSplineSet
Validated: 524841
EndChar

StartChar: "+MLAw6jDV 16"
Encoding: 16 12381 15
Width: 1024
LayerCount: 2
Fore
SplineSet
653.41602 831.36328 m 1
 653.41602 831.36128 l 1
 653.407561303 831.361285689 653.399101946 831.361288535 653.390641929 831.361288535 c 0
 651.798309241 831.361288535 650.268102779 831.261911691 648.72852 831.06636 c 0
 571.63145 821.206 492.07787 813.07186 398.42383 783.26953 c 0
 383.480358178 778.513623996 372.642591079 764.514334423 372.642591079 748.003723655 c 0
 372.642591079 744.094178674 373.260764511 740.331518895 374.38672 736.79297 c 0
 379.143163807 721.85040516 393.142003389 711.013487083 409.651967432 711.013487083 c 0
 413.561718251 711.013487083 417.32456904 711.631740651 420.86328 712.75781 c 0
 461.5276 725.69778 499.24764 734.02333 536.10938 740.46289 c 1
 439.36292 663.53401 334.6501 601.2041 230.76562 529.36133 c 0
 221.118325247 522.679892732 214.794426337 511.532582156 214.794426337 498.91990134 c 0
 214.794426337 478.496968932 231.375257929 461.91613734 251.798190337 461.91613734 c 0
 255.905890945 461.91613734 259.900555747 462.617598141 263.59375 463.85547 c 0
 372.3077 500.37478 476.58276 540.52259 585.08203 571.0332 c 1
 538.99296 530.67012 506.81705 489.02508 487.20508 447.40039 c 0
 448.98272 366.27472 461.84865 283.68049 510.41406 230.60156 c 0
 528.16424 211.20352 549.65362 205.02587 571.73438 200.24023 c 0
 593.81475 195.45422 617.62108 193.5264 641.21289 192.88086 c 0
 688.39651 191.59015 733.53731 195.58276 755.57422 198.75 c 0
 773.489930466 201.322560417 787.27793467 216.750367228 787.27793467 235.373122489 c 0
 787.27793467 237.171729844 787.187973851 238.904470075 786.93945 240.63477 c 0
 784.364075363 258.547296713 768.937756734 272.331946483 750.317266942 272.331946483 c 0
 748.515637609 272.331946483 746.779957502 272.241535009 745.04688 271.99219 c 0
 729.22653 269.71842 684.62127 265.7235 643.24414 266.85547 c 0
 622.55576 267.42126 602.37582 269.3162 587.40625 272.56055 c 0
 572.4363 275.80527 563.80863 281.86732 565.00977 280.55469 c 1
 536.47849 311.7373 526.10214 356.33352 554.15039 415.86523 c 0
 582.19902 475.39657 652.94876 548.243 788.51172 614.89648 c 0
 800.761431218 620.931128592 809.198013835 633.544151297 809.198013835 648.112094103 c 0
 809.198013835 668.535026511 792.617182243 685.115858103 772.194249835 685.115858103 c 0
 770.589035915 685.115858103 769.010537479 684.993598697 767.45898 684.79492 c 0
 674.19687 672.76847 587.79368 650.45797 504.56055 624.41211 c 1
 564.32017 666.8528 623.32032 712.95086 679.34766 767.9668 c 0
 686.181183495 774.68220653 690.421745244 784.027833607 690.421745244 794.356081229 c 0
 690.421745244 814.777354876 673.836669499 831.360586896 653.41602 831.36328 c 1
EndSplineSet
Validated: 524841
EndChar

StartChar: "+MLAw6jDV 17"
Encoding: 17 12383 16
Width: 1024
LayerCount: 2
Fore
SplineSet
312.06055 847.09961 m 1
 312.06055 847.09561 l 1
 311.997885206 847.095922599 311.935183782 847.096079083 311.872446098 847.096079083 c 0
 311.809708413 847.096079083 311.754074794 847.095922599 311.69141 847.09561 c 0
 293.016017372 846.872588732 277.64097774 832.745894757 275.41016 814.6171 c 2
 263.71289 719.51163 l 1
 161.89844 696.01163 l 2
 145.491753779 692.222741774 133.245146678 677.509548773 133.245146678 659.958578976 c 0
 133.245146678 657.089962172 133.552870637 654.320270435 134.17188 651.63858 c 0
 137.958067873 635.228197446 152.673036025 622.977928668 170.226629453 622.977928668 c 0
 173.094637117 622.977928668 175.863751833 623.285456004 178.54492 623.90421 c 2
 254.09961 641.34366 l 1
 202.08398 218.4335 l 2
 201.900075345 216.939509441 201.805373569 215.418075744 201.805373569 213.874697805 c 0
 201.805373569 194.994929186 216.016363624 179.435829786 234.29297 177.18936 c 0
 235.78642016 177.00559137 237.307290789 176.910960703 238.850089182 176.910960703 c 0
 257.729111783 176.910960703 273.287724047 191.120830253 275.53516 209.39639 c 2
 330.83789 659.05655 l 1
 496.66016 697.33194 l 2
 513.070474184 701.118177833 525.320675228 715.833113151 525.320675228 733.386658051 c 0
 525.320675228 736.257444733 525.01249943 739.029249332 524.39258 741.7128 c 0
 520.605365576 758.11883594 505.896590364 770.387193421 488.34766 770.39053 c 0
 485.476842254 770.389951326 482.703025641 770.059864905 480.01953 769.43936 c 2
 340.45117 737.22452 l 1
 348.85938 805.5878 l 2
 349.042682499 807.079396717 349.1370695 808.598336239 349.1370695 810.139147063 c 0
 349.1370695 829.017928694 334.927561676 844.576381991 316.65234 846.82413 c 0
 315.162766912 847.00692428 313.645935658 847.10104563 312.107294658 847.10104563 c 0
 312.078368187 847.10104563 312.089461018 847.099586496 312.06055 847.09952 c 1
 312.06055 847.09961 l 1
718.01367 608.82422 m 1
 716.33979 608.82422 714.67461 608.82395 713.01562 608.81252 c 0
 633.38283 608.244 570.88131 589.07985 529.98047 577.10744 c 0
 514.615804267 572.609404184 503.380593906 558.402196858 503.380593906 541.59157301 c 0
 503.380593906 537.980226722 503.900630294 534.49984396 504.86719 531.19924 c 0
 509.365901696 515.835644484 523.572583331 504.601452077 540.382445606 504.601452077 c 0
 543.991190355 504.601452077 547.469079359 505.120741696 550.76758 506.08596 c 0
 606.4746 522.39235 682.46263 546.04443 786.33984 529.18361 c 0
 788.279952939 528.868938919 790.270452957 528.705361833 792.298856964 528.705361833 c 0
 810.688814642 528.705361833 825.92886821 542.187057483 828.78516 559.77541 c 0
 829.100667597 561.718015452 829.264688352 563.711161612 829.264688352 565.742314567 c 0
 829.264688352 584.132041406 815.783337732 599.371972314 798.19531 602.22854 c 0
 769.89689 606.82206 743.12164 608.75666 718.01367 608.82424 c 1
 718.01367 608.82422 l 1
547.31836 392.28906 m 1
 543.594530776 392.272713476 539.99741993 391.69769649 536.60938 390.65625 c 0
 521.480307369 386.011973708 510.468187268 371.920807672 510.468187268 355.277919463 c 0
 510.468187268 351.500829064 511.041919905 347.863323444 512.0957 344.42969 c 0
 518.35256 324.04779 532.95328 313.26239 546.2207 305.83789 c 0
 559.48813 298.41339 573.79446 293.58613 589.50195 289.45703 c 0
 620.91689 281.1991 658.01023 276.39392 695.13672 273.29883 c 0
 732.26324 270.20411 769.14474 268.98916 798.58594 268.88477 c 0
 813.30655 268.83257 826.13351 269.05249 836.43359 269.49609 c 0
 846.73368 269.93977 851.4022 269.45609 862.68359 272.25781 c 0
 878.792058525 276.26020095 890.744999802 290.829734647 890.744999802 308.168997062 c 0
 890.744999802 311.247796936 890.381941896 314.219582152 889.67188 317.08008 c 0
 885.67223422 333.192460402 871.100810336 345.149231567 853.758770273 345.149231567 c 0
 850.679966084 345.149231567 847.70816149 344.786233826 844.84766 344.07617 c 1
 850.54148 345.49017 841.94072 343.80811 833.24414 343.43359 c 0
 824.54752 343.05866 812.6405 342.83176 798.84375 342.88086 c 0
 771.25018 342.97876 735.94577 344.15356 701.28516 347.04297 c 0
 666.62455 349.93204 632.33567 354.71199 608.31836 361.02539 c 0
 596.30974 364.18201 586.88281 367.88065 582.35547 370.41406 c 0
 580.72222 371.32837 580.80072 371.44089 580.69531 371.56641 c 0
 574.726265553 383.750916711 562.269416556 392.145856658 547.83008 392.28711 c 0
 547.74324895 392.287710462 547.656347233 392.288011185 547.569375833 392.288011185 c 0
 547.482404433 392.288011185 547.40519105 392.287710462 547.31836 392.28711 c 1
 547.31836 392.28906 l 1
EndSplineSet
Validated: 524837
EndChar

StartChar: "+MLAw6jDV 18"
Encoding: 18 12385 17
Width: 1024
LayerCount: 2
Fore
SplineSet
428.0625 890.97656 m 1
 409.92028 890.77625 394.59742 877.45277 391.88281 859.51367 c 2
 391.88281 859.51367 379.20077 775.53617 370.36328 717.04688 c 1
 347.28188 715.14817 325.33826 713.42185 306.37109 712.00195 c 0
 271.87742 709.41945 243.68682 707.78257 242.47461 707.76367 c 0
 222.328995836 707.443823578 206.072460067 690.98956461 206.072460067 670.768350469 c 0
 206.072460067 670.572247251 206.063363453 670.386793379 206.06641 670.19141 c 0
 206.382039229 650.04211072 222.837972518 633.781283808 243.061855322 633.781283808 c 0
 243.258579491 633.781283808 243.444620271 633.772324165 243.64062 633.77539 c 0
 254.78478 633.95038 277.05685 635.59637 311.90039 638.20508 c 0
 326.16317 639.27268 342.24884 640.53327 359.00977 641.88086 c 1
 356.82166 627.38055 356.77627 627.11386 354.56055 612.41992 c 0
 345.26874 550.79964 336.01607 489.33279 329.16602 443.55859 c 0
 325.741 420.67129 322.91442 401.71605 320.98047 388.58594 c 0
 320.01352 382.02135 319.26883 376.92739 318.77344 373.44531 c 0
 318.52588 371.70412 318.34818 370.40671 318.20508 369.3125 c 0
 318.13368 368.7656 318.08384 368.43959 317.97461 367.34961 c 0
 317.92021 366.8046 319.09281 368.4044 317.8125 361.92969 c 0
 306.26955 303.54922 376.92971 302.70213 385.43164 342.77344 c 0
 385.43264 342.77344 390.30466 353.10537 390.56836 354.10547 c 0
 398.76952 385.20418 439.82772 423.93362 494.88281 447.19922 c 0
 549.93802 470.46523 615.77106 477.68405 658.33984 464.69336 c 0
 682.04655 457.45825 710.42614 434.81763 727.06445 408.30273 c 0
 743.70265 381.78821 747.92114 355.17095 739.63672 336.33008 c 0
 705.64153 259.01448 645.66144 226.64685 577.58984 213.50195 c 0
 509.51813 200.35717 434.91998 210.48274 390.47266 222.81836 c 0
 370.78328 228.28246 350.39147 216.75161 344.92578 197.0625 c 0
 339.46198 177.37078 350.99751 156.98009 370.68945 151.51758 c 0
 424.8159 136.49619 507.47795 124.59319 591.62305 140.8418 c 0
 675.76807 157.0907 762.96016 205.53671 807.37305 306.54492 c 0
 828.58236 354.78073 815.32004 406.89543 789.75195 447.64062 c 0
 764.18375 488.38624 725.63746 521.52459 679.93945 535.4707 c 0
 612.59315 556.02298 534.22222 544.16358 466.07031 515.36328 c 0
 446.60053 507.13555 427.87608 497.30559 410.39648 486.13867 c 1
 415.94838 523.10128 421.38522 559.31817 427.72852 601.38477 c 0
 430.29542 618.40715 432.28722 631.56489 434.81055 648.2832 c 0
 434.91637 648.2932 435.02113 648.3018 435.12695 648.3106 c 0
 479.26598 652.2444 523.22981 656.53953 557.85742 660.67583 c 0
 575.17132 662.74393 590.09116 664.75725 602.03125 666.77935 c 0
 608.00124 667.79035 613.18386 668.78121 618.07227 669.97661 c 0
 622.96067 671.17211 626.0027 670.62735 636.17969 677.09185 c 0
 646.513703278 683.657400056 653.377046307 695.205992815 653.377046307 708.344955496 c 0
 653.377046307 715.625499243 651.207822027 722.433535978 647.57031 728.16021 c 0
 641.005055153 738.495722512 629.455598202 745.360256836 616.315495282 745.360256836 c 0
 616.109449848 745.360256836 615.937670124 745.31982266 615.73242 745.31646 c 0
 610.284568302 745.227612393 605.077146169 743.938415064 600.44336 741.73443 c 1
 600.59908 741.83343 600.67487 741.89737 600.49606 741.85357 c 0
 598.45697 741.35506 594.59012 740.56592 589.68161 739.73443 c 0
 579.86451 738.07212 565.72135 736.14195 549.08005 734.15435 c 0
 520.29827 730.71625 483.78825 727.07601 446.18747 723.63091 c 1
 456.58276 792.43481 465.05259 848.44146 465.0527 848.44146 c 0
 468.1063 868.64415 454.20598 887.49744 434.00388 890.55474 c 0
 432.03765 890.85332 430.05137 890.99631 428.06247 890.97661 c 1
 428.0625 890.97656 l 1
EndSplineSet
Validated: 524841
EndChar

StartChar: "+MLAw6jDV 19"
Encoding: 19 12388 18
Width: 1024
LayerCount: 2
Fore
SplineSet
566.57227 773.8457 m 0
 559.15065 773.7935 551.81613 773.63465 544.5957 773.375 c 1
 544.5957 773.367 l 1
 525.3412 772.67459 506.89627 771.26776 489.76367 769.24004 c 2
 489.75567 769.24004 l 1
 489.74007 769.24004 l 1
 365.43346 754.44452 235.81923 700.19058 146.74805 634.46875 c 0
 137.614722368 627.728519732 131.686218627 616.890860118 131.686218627 604.679451008 c 0
 131.686218627 596.471318722 134.415343755 588.870086823 138.94531 582.73047 c 0
 145.685490319 573.596608792 156.523474816 567.667698008 168.73530313 567.667698008 c 0
 176.944003521 567.667698008 184.545708674 570.397193931 190.68555 574.92773 c 0
 267.27128 631.43696 389.84934 682.82855 498.4668 695.76172 c 0
 557.79827 702.78446 642.65034 700.83969 709.49219 685.375 c 0
 742.91311 677.64246 771.73858 666.36166 790.19727 653.76562 c 0
 808.65591 641.16959 815.77391 630.17117 817.20117 616.75195 c 0
 826.19887 532.12342 781.12883 471.31602 713.48633 421.62695 c 0
 645.84386 371.93788 557.52681 339.24815 499.15234 322.77734 c 0
 483.609791837 318.393118261 472.204804938 304.098713844 472.204804938 287.161552384 c 0
 472.204804938 283.673998566 472.686157375 280.311332228 473.58984 277.11133 c 0
 477.977273335 261.573739034 492.269252546 250.173499147 509.202888825 250.173499147 c 0
 512.687921513 250.173499147 516.048147515 250.654217636 519.24609 251.55664 c 0
 583.04184 269.55702 677.75877 303.56857 757.28906 361.99023 c 0
 836.81932 420.41153 903.05964 509.11091 890.7832 624.57812 c 0
 886.65698 663.37309 861.99559 694.36092 831.91406 714.88867 c 0
 801.8325 735.41604 765.35353 748.40236 726.17578 757.4668 c 0
 674.75502 769.36371 618.52359 774.21135 566.57227 773.8457 c 0
EndSplineSet
Validated: 524841
EndChar

StartChar: "+MLAw6jDV 20"
Encoding: 20 12390 19
Width: 1024
LayerCount: 2
Fore
SplineSet
699.96875 811.05469 m 0
 694.714358184 811.033023779 689.685031518 809.895561337 685.16211 807.89648 c 0
 683.17219 807.41951 679.59268 806.64889 674.59766 805.71875 c 0
 663.88912 803.72505 647.92469 801.11096 628.80859 798.1875 c 0
 590.57641 792.34095 539.47332 785.17743 488.26367 778.21289 c 0
 437.05402 771.24798 385.69949 764.47635 346.67969 759.36719 c 0
 327.1698 756.8126 310.74879 754.67095 298.94922 753.12891 c 0
 293.04945 752.35826 288.30859 751.73637 284.88672 751.2832 c 0
 281.46485 750.82966 281.55558 750.93669 277.74805 750.29492 c 0
 260.265005358 747.349748037 246.928772211 732.124890104 246.928772211 713.809767851 c 0
 246.928772211 711.704522193 247.069745491 709.673689055 247.4082 707.66406 c 0
 250.353375953 690.181020117 265.578231646 676.844791894 283.893350518 676.844791894 c 0
 285.998596745 676.844791894 288.029430431 676.985765312 290.03906 677.32422 c 1
 287.15899 676.83893 291.28374 677.49088 294.60742 677.92969 c 0
 297.93106 678.37038 302.64469 678.98477 308.5293 679.75391 c 0
 320.29848 681.2918 336.74403 683.43187 356.2832 685.99023 c 0
 395.36163 691.10696 446.82945 697.89692 498.23828 704.88867 c 0
 526.43484 708.72338 549.86153 712.21964 575.99023 715.93945 c 1
 547.1654 685.9678 521.57605 653.7994 501.07227 619.49414 c 0
 458.5643 548.37326 437.32236 466.99711 455.48242 384.36719 c 0
 467.3806 330.23075 499.64233 275.54642 552.25781 241.81641 c 0
 604.87341 208.08639 678.93148 200.10477 756.39062 238.06445 c 0
 768.675797515 244.085290817 777.142704589 256.716715135 777.142704589 271.310086319 c 0
 777.142704589 277.139262986 775.735644659 282.669324772 773.33008 287.57617 c 0
 767.308794581 299.860117222 754.678029185 308.325978549 740.085559242 308.325978549 c 0
 734.259791141 308.325978549 728.732808035 306.920505247 723.82812 304.51758 c 0
 665.11468 275.74441 624.82656 283.19127 592.19336 304.11133 c 0
 559.56009 325.03139 535.66754 364.22153 527.75 400.24609 c 0
 514.31352 461.38335 529.06794 522.10341 564.58594 581.5293 c 0
 599.75516 640.37125 655.5725 696.31071 719.79688 742.52148 c 0
 722.88928 743.90933 727.02369 745.98384 732.69336 756.48828 c 0
 735.506805216 761.70576906 737.103942315 767.674174799 737.103942315 774.012668234 c 0
 737.103942315 794.435600642 720.523110723 811.016432234 700.100178315 811.016432234 c 0
 700.047707204 811.016432234 700.021170173 811.054908681 699.96875 811.05469 c 0
680.18555 805.23047 m 1
 679.653033315 804.888363459 679.134488379 804.536158759 678.62109 804.16797 c 0
 677.37914 803.28091 676.24876 802.25714 675.01172 801.36328 c 1
 677.20347 803.35849 678.82454 804.66241 680.18555 805.23047 c 1
EndSplineSet
Validated: 524841
EndChar

StartChar: "+MLAw6jDV 21"
Encoding: 21 12392 20
Width: 1024
LayerCount: 2
Fore
SplineSet
654.04883 743.25977 m 0
 646.274308255 743.245065255 639.022081759 740.80634811 633.07031 736.68945 c 0
 555.21492 682.84255 468.122 631.26922 399.13281 554.76172 c 1
 362.24532 590.8717 336.8526 652.02952 300.31641 711.85742 c 0
 293.822388416 722.485995147 282.139732498 729.550606137 268.78711 729.56641 c 0
 268.768199851 729.566438443 268.749286396 729.56645267 268.730369644 729.56645267 c 0
 261.686803991 729.56645267 255.061870423 727.570592825 249.45508 724.14844 c 0
 238.811725523 717.647835029 231.701282946 705.922071693 231.701282946 692.548680669 c 0
 231.701282946 685.501497399 233.738659725 678.89577306 237.16406 673.28711 c 0
 269.85986 619.7482 295.51551 547.30383 353.57031 495.89844 c 1
 344.15751 481.54005 335.36386 466.38919 327.31836 450.31641 c 0
 307.29446 414.5134 296.02418 384.3651 292.77148 356.5957 c 0
 289.47428 328.4485 295.89781 301.80052 309.88281 282.49023 c 0
 337.85281 243.86951 381.26845 237.26508 408.39453 231.8418 c 0
 521.89563 209.1488 658.83079 213.24922 772.73438 274.31055 c 0
 784.36933228 280.548552794 792.289776899 292.827813442 792.289776899 306.942394989 c 0
 792.289776899 313.249376564 790.647036431 319.205478193 787.85938 324.4043 c 0
 781.621241503 336.038809608 769.342223368 343.958886398 755.227969568 343.958886398 c 0
 748.921599264 343.958886398 742.966041693 342.316452462 737.76758 339.5293 c 0
 644.98479 289.79037 523.07012 284.38005 422.90625 304.40625 c 0
 397.69714 309.44625 375.44181 318.12685 369.81641 325.89453 c 0
 367.00361 329.77796 364.63962 334.10645 366.26562 347.98828 c 0
 367.89152 361.87018 375.07024 384.4159 392.53125 415.40039 c 0
 392.828641228 415.932221909 393.115236007 416.475869 393.38672 417.02344 c 0
 452.00182 534.27942 562.69536 598.0502 675.16016 675.83398 c 0
 684.815664643 682.513478296 691.146053817 693.665124455 691.146053817 706.283644774 c 0
 691.146053817 714.083403456 688.67055695 721.337529898 684.54297 727.30664 c 0
 677.863714928 736.963894822 666.711029294 743.295642981 654.091154598 743.295642981 c 0
 654.069624811 743.295642981 654.070351232 743.259806842 654.04883 743.25977 c 0
EndSplineSet
Validated: 524841
EndChar

StartChar: "+MLAw6jDV 22"
Encoding: 22 12394 21
Width: 1024
LayerCount: 2
Fore
SplineSet
363.69922 851.41992 m 2
 363.677794313 851.419956516 363.656364379 851.419974781 363.634930213 851.419974781 c 0
 347.328219921 851.419974781 333.482193478 840.855025367 328.56055 826.19727 c 2
 299.80078 740.58594 l 1
 194.95508 737.82812 l 2
 174.990163705 737.303605656 158.943124952 720.931519458 158.943124952 700.841022614 c 0
 158.943124952 700.511307929 158.930859507 700.198748064 158.93945 699.87109 c 0
 159.462832528 679.905164311 175.835378157 663.85696025 195.926604456 663.85696025 c 0
 196.258960164 663.85696025 196.574034429 663.844791772 196.9043 663.85352 c 2
 274.71094 665.90039 l 1
 186.6582 403.7832 l 2
 185.415902825 400.084293493 184.742636065 396.125141652 184.742636065 392.009980823 c 0
 184.742636065 375.705601039 195.294727366 361.853183633 209.94922 356.92969 c 0
 213.649623317 355.686271511 217.610566301 355.012370421 221.727665261 355.012370421 c 0
 238.032692462 355.012370421 251.885610241 365.565300984 256.80859 380.2207 c 2
 353.47266 667.9707 l 1
 500.06445 671.82617 l 2
 520.029463127 672.350575774 536.076613665 688.722706046 536.076613665 708.813272866 c 0
 536.076613665 709.145645879 536.088809134 709.460737344 536.08008 709.79102 c 0
 535.554965443 729.755400956 519.183122908 745.801821703 499.093012933 745.801821703 c 0
 498.913400368 745.801821703 498.743459496 745.817006508 498.56445 745.81445 c 0
 498.415151478 745.810707813 498.271906554 745.806259523 498.12305 745.80075 c 2
 378.5625 742.65622 l 1
 398.71094 802.63278 l 2
 399.954732789 806.333682762 400.628845631 810.295223461 400.628845631 814.412969203 c 0
 400.628845631 830.718217421 390.07562844 844.571305687 375.41992 849.49411 c 0
 371.739169711 850.730476808 367.792694383 851.413167694 363.69922 851.41989 c 1
 363.69922 851.41992 l 2
733.16602 733.85742 m 0
 722.711235902 733.777510085 713.277459846 729.362675045 706.59375 722.31055 c 0
 700.307085733 715.677367532 696.44874951 706.720125421 696.44874951 696.868831846 c 0
 696.44874951 686.299520222 700.879587697 676.748932468 707.99609 670.00391 c 2
 761.78125 619.03125 l 1
 750.964668413 612.570547245 743.714706976 600.746546285 743.714706976 587.242588405 c 0
 743.714706976 582.159678463 744.798353329 577.312799134 746.65625 572.90234 c 0
 752.263047993 559.594602018 765.433200273 550.242578638 780.770398063 550.242578638 c 0
 785.853242616 550.242578638 790.706776427 551.312068604 795.11719 553.16992 c 2
 842.42188 573.09375 l 2
 855.731324989 578.700939869 865.084615211 591.872604256 865.084615211 607.211607705 c 0
 865.084615211 617.78237492 860.627454196 627.306989488 853.50977 634.05273 c 2
 758.90234 723.71289 l 2
 752.321261067 729.950277506 743.437690911 733.797342301 733.67773 733.85742 c 0
 733.590900644 733.858020438 733.504000624 733.858321149 733.417030924 733.858321149 c 0
 733.330061223 733.858321149 733.252849356 733.858020438 733.16602 733.85742 c 0
671.86914 607.33008 m 0
 651.825134337 607.164217859 635.553628627 591.014147306 635.18164 571.01953 c 2
 632.42773 422.7832 l 1
 593.91257 433.9494 554.23202 440.03177 516.30469 430.98438 c 0
 491.97364 425.17978 464.91983 415.06836 440.17383 399.66406 c 0
 415.42786 384.25984 391.10087 363.21473 381.7832 330.35744 c 0
 375.20762 307.15987 375.58343 282.56307 382.4707 258.68557 c 0
 389.35795 234.80799 403.7999 210.32812 429.72852 196.1465 c 0
 486.18642 165.26671 550.67033 168.25331 602.11133 183.91408 c 0
 627.83181 191.74451 650.61403 202.78812 669.04297 217.49611 c 0
 687.10828 231.9135 704.47371 251.72576 703.80273 280.45705 c 2
 704.46094 315.96291 l 1
 748.17374 295.77082 781.16602 276.51955 781.16602 276.51955 c 2
 786.697006976 273.225977963 793.157688181 271.333595698 800.056871122 271.333595698 c 0
 813.578306274 271.333595698 825.431562452 278.539111384 831.88672 289.37893 c 0
 835.182084655 294.910996348 837.075579933 301.373448241 837.075579933 308.274659778 c 0
 837.075579933 321.794050661 829.872260049 333.64577135 819.03516 340.10158 c 2
 819.03516 340.10158 771.55198 368.4272 711.74023 393.959 c 0
 709.88441 394.75119 707.82936 395.48952 705.95312 396.28322 c 2
 709.16992 569.6426 l 2
 709.174176085 569.873454418 709.17631345 570.10482275 709.17631345 570.336686351 c 0
 709.17631345 590.525300802 692.959964899 606.947142898 672.85938 607.31838 c 0
 672.544323957 607.326320368 672.228294801 607.330314366 671.911340157 607.330314366 c 0
 671.891618132 607.330314366 671.888854847 607.330110916 671.86914 607.33008 c 0
549.61523 360.46484 m 1
 549.61723 360.46284 l 1
 570.45316 360.22057 600.30613 353.84231 630.97465 344.43159 c 1
 629.80082 281.10933 l 1
 629.85572 284.4265 630.11687 281.11133 622.88285 275.33784 c 0
 614.30264 268.49005 598.80886 260.26984 580.55473 254.71284 c 0
 544.04642 243.59793 497.78008 243.27493 465.23423 261.07612 c 0
 461.48554 263.12614 456.50372 269.03462 453.57016 279.20503 c 0
 450.63661 289.37574 450.80048 302.48974 452.98032 310.17964 c 0
 454.48578 315.48874 463.28973 326.88922 479.2811 336.8437 c 0
 495.27243 346.7983 516.56642 354.97034 533.47251 359.00386 c 0
 536.92537 359.82738 540.99118 360.29165 545.57212 360.42964 c 0
 546.87862 360.46854 548.22603 360.47994 549.61508 360.46474 c 2
 549.61523 360.46484 l 1
EndSplineSet
Validated: 524837
EndChar

StartChar: "+MLAw6jDV 23"
Encoding: 23 12395 22
Width: 1024
LayerCount: 2
Fore
SplineSet
248.22461 746.95508 m 1
 230.023881554 746.901856784 214.894554301 733.645230571 211.87891 716.28906 c 0
 193.63996 611.40228 180.50901 504.01228 186.88281 392.4082 c 0
 188.96487 355.86157 199.35089 313.79384 234.01562 285.41602 c 0
 240.394881744 280.194971522 248.547161329 277.061035316 257.425634819 277.061035316 c 0
 268.96653749 277.061035316 279.292446424 282.319875193 286.08008 290.61133 c 0
 291.302542158 296.991017926 294.437421497 305.14441482 294.437421497 314.024224163 c 0
 294.437421497 325.563489346 289.180048231 335.888109035 280.89062 342.67578 c 0
 269.81612 351.74177 262.18524 371.63583 260.76172 396.62305 c 0
 254.87329 499.72856 266.98134 601.25127 284.78125 703.61328 c 0
 285.141486871 705.684277461 285.329283144 707.814146641 285.329283144 709.987531866 c 0
 285.329283144 728.234123754 272.058463303 743.380676071 254.67188 746.40625 c 0
 252.732227775 746.744223444 250.766711242 746.930301182 248.73633 746.95312 c 0
 248.64949895 746.953720462 248.562597233 746.954021185 248.475625833 746.954021185 c 0
 248.388654433 746.954021185 248.31144105 746.953720462 248.22461 746.95312 c 1
 248.22461 746.95508 l 1
634.61914 746.39258 m 0
 629.20837 746.37368 623.80205 746.29858 618.40625 746.17773 c 0
 575.23955 745.21163 532.78153 741.31856 494.74414 739.88086 c 0
 474.981771597 739.1318114 459.167454235 722.852011902 459.167454235 702.907727827 c 0
 459.167454235 702.432423469 459.154077269 701.980751292 459.17188 701.50977 c 0
 459.920923434 681.747396883 476.200725082 665.93307413 496.145012556 665.93307413 c 0
 496.620316785 665.93307413 497.071988835 665.919697278 497.54297 665.9375 c 0
 578.33664 668.9913 668.13205 678.26057 728.28516 663.13867 c 0
 731.177656437 662.411538878 734.204931833 662.025329899 737.321699351 662.025329899 c 0
 754.625923171 662.025329899 769.152557574 673.94282546 773.18945 690.00195 c 0
 773.916582637 692.894449258 774.302792446 695.921727812 774.302792446 699.038498683 c 0
 774.302792446 716.342723345 762.385295727 730.869358401 746.32617 734.90625 c 0
 710.55869 743.89785 672.49466 746.52358 634.61914 746.39258 c 0
494.73047 459.53906 m 0
 494.694229979 459.539164498 494.657977772 459.539216782 494.62171345 459.539216782 c 0
 483.64736902 459.539216782 473.790089893 454.767390964 467.01172 447.16797 c 0
 461.176396744 440.626367729 457.628178855 432.001461915 457.628178855 422.554365081 c 0
 457.628178855 411.57992724 462.394606493 401.704155046 469.99414 394.92578 c 0
 478.24462 387.56598 479.98304 388.14159 483.19141 386.6582 c 0
 486.39988 385.17512 489.65 383.84785 493.37109 382.39844 c 0
 500.8134 379.49912 509.99433 376.22079 520.64844 372.56641 c 0
 541.95651 365.2579 568.96163 356.53464 595.89844 348.02734 c 0
 622.83513 339.52004 649.65359 331.25228 670.30859 324.95898 c 0
 690.9636 318.66566 700.55319 315.58382 708.90039 313.4375 c 0
 752.77598 302.15372 788.49008 306.96301 812.88281 314.66992 c 0
 827.86327144 319.403828615 838.735689148 333.421461621 838.735689148 349.958445042 c 0
 838.735689148 353.843227269 838.125966232 357.582530061 837.01367 361.10156 c 0
 832.279247477 376.081159645 818.262041658 386.952769505 801.725672618 386.952769505 c 0
 797.842834624 386.952769505 794.105385557 386.343647003 790.58789 385.23242 c 0
 775.6495 380.51251 758.10278 377.1943 727.33398 385.10742 c 1
 731.49838 384.0363 712.3249 389.51472 691.87891 395.74414 c 0
 671.4328 401.97394 644.80552 410.18431 618.18555 418.5918 c 0
 591.56554 426.99902 564.9039 435.62578 544.66211 442.56836 c 0
 534.5411 446.03986 525.97877 449.116 520.23438 451.35352 c 0
 517.53526 452.4049 515.60476 453.22344 514.60156 453.67773 c 0
 508.874625574 457.353302133 502.029447772 459.516615406 494.73047 459.53906 c 0
EndSplineSet
Validated: 524841
EndChar

StartChar: "+MLAw6jDV 24"
Encoding: 24 12396 23
Width: 1024
LayerCount: 2
Fore
SplineSet
188.38867 770.24023 m 2
 188.350880312 770.240343629 188.313077369 770.240400484 188.275261251 770.240400484 c 0
 188.139130599 770.240400484 188.012735436 770.239699744 187.87695 770.23823 c 2
 187.87695 770.23423 l 1
 187.840792715 770.234334021 187.804623299 770.234386067 187.768441823 770.234386067 c 0
 187.732260347 770.234386067 187.700217285 770.234334021 187.66406 770.23423 c 0
 183.421203356 770.175263728 179.327121297 769.388434701 175.54297 768.01352 c 0
 161.332779623 762.846960735 151.172122197 749.214855264 151.172122197 733.228328065 c 0
 151.172122197 728.794633185 151.979415346 724.540600389 153.41211 720.59946 c 0
 168.60661 678.79816 182.88453 633.45053 197.58203 587.02719 c 1
 161.17203 552.33412 125.76043 508.15149 91.736328 453.35337 c 0
 64.85383 410.05737 53.15133 352.61695 57.173828 299.60337 c 0
 59.185028 273.09644 65.105453 247.23887 80.876953 224.94907 c 0
 96.648355 202.659 126.65416 186.49139 157.66406 188.79282 c 0
 215.20486 193.06062 270.38294 226.79324 322.17773 278.99985 c 1
 334.08054 259.66772 346.86013 241.42914 360.70312 224.60337 c 0
 367.491401804 216.350539554 377.78067561 211.083828023 389.2903488 211.083828023 c 0
 398.200834199 211.083828023 406.391832634 214.276135653 412.78125 219.5311 c 0
 421.033599553 226.319389018 426.299954994 236.608356237 426.299954994 248.117640327 c 0
 426.299954994 257.032099326 423.104879942 265.226370374 417.8457 271.61704 c 0
 402.08919 290.76892 387.56933 313.35716 373.98242 338.48618 c 1
 379.25044 345.26726 384.48049 352.19712 389.66211 359.30063 c 0
 439.25061 427.28182 483.558 511.53877 515.79688 604.76157 c 1
 544.61899 596.75468 573.5301 585.05094 602.45312 570.49594 c 0
 632.31812 555.46775 670.15239 528.83045 697.04297 496.47055 c 0
 702.02469 490.47543 706.1806 484.23097 710.33789 477.99399 c 1
 640.81979 487.45267 563.96427 471.23428 499.91016 403.14829 c 0
 465.23076 366.28659 448.43704 310.88514 468.32227 258.54477 c 0
 478.26484 232.37495 501.14702 208.39471 532.31641 198.01352 c 0
 563.48579 187.63222 600.66182 188.91882 645.50391 201.21665 c 0
 715.74442 220.48014 788.70907 272.85295 805.77148 366.31235 c 1
 844.15278 345.90933 880.78796 322.19584 912.02734 304.13462 c 0
 917.466499349 300.98974639 923.778624103 299.189412995 930.507921081 299.189412995 c 0
 944.198962398 299.189412995 956.17929234 306.578469752 962.57812 317.64438 c 0
 965.72299361 323.083539349 967.523327005 329.395664103 967.523327005 336.124961081 c 0
 967.523327005 349.816002398 960.134270248 361.79633234 949.06836 368.19516 c 0
 914.03936 388.44738 863.08115 424.19422 803.43945 450.39243 c 1
 794.21227 485.83491 775.80507 517.46833 753.95898 543.75766 c 0
 718.47618 586.45763 673.89654 617.38781 635.71484 636.60141 c 0
 604.32163 652.399 571.48736 665.96017 537.60938 675.54087 c 1
 541.97008 692.07627 545.9719 708.79912 549.48047 725.73032 c 0
 549.984366139 728.162693854 550.249169874 730.68213921 550.249169874 733.262944736 c 0
 550.249169874 751.102845123 537.569635967 765.983216412 520.75586 769.46665 c 0
 518.322938706 769.970784247 515.802897452 770.235716388 513.221466274 770.235716388 c 0
 513.088551433 770.235716388 512.990005827 770.23563121 512.85742 770.23423 c 0
 495.195473421 770.046877595 480.477505762 757.431256423 477.01953 740.74399 c 0
 473.39761 723.26599 469.16251 706.01386 464.5293 688.94516 c 1
 431.80891 691.73786 398.44853 690.19064 364.70312 682.30844 c 0
 329.38583 674.05925 294.42404 659.19998 260.11523 636.89047 c 1
 247.92624 674.06558 235.69073 710.85086 222.95703 745.88266 c 0
 217.813188084 760.031315739 204.285266772 770.152027612 188.38867 770.24008 c 1
 188.38867 770.24023 l 2
436.25586 616.4375 m 0
 437.91836 616.4375 439.59031 616.20551 441.25391 616.17188 c 1
 413.67201 540.25069 377.61276 471.04108 338.22266 414.60938 c 1
 318.89476 461.12417 301.24742 512.06685 284.07422 563.87695 c 1
 317.16402 588.33537 349.72564 602.81435 381.53516 610.24414 c 0
 399.68743 614.48405 417.93638 616.45262 436.25586 616.4375 c 0
223.20898 507.56445 m 1
 241.40608 452.94197 261.2295 398.67426 284.8457 348.57617 c 1
 234.3741 295.12598 184.04564 264.94773 152.18555 262.58594 c 0
 144.06465 261.98352 145.32412 261.98759 141.29102 267.6875 c 0
 137.25802 273.38778 132.31809 287.34056 130.96289 305.20117 c 0
 128.25249 340.92296 139.79932 390.46289 154.60742 414.3125 c 0
 177.60822 451.35659 200.49848 482.13866 223.20898 507.56445 c 1
669.71094 408.89844 m 1
 669.71294 408.89844 l 2
 690.83895 408.84254 712.35437 404.40422 734.72857 397.51172 c 0
 734.81247 397.48522 734.89308 397.44992 734.97661 397.42382 c 0
 734.85718 394.41082 735.3992 391.52823 735.04301 388.46874 c 0
 726.78372 317.42224 681.86219 287.92123 625.93168 272.58202 c 0
 590.21998 262.78813 567.5223 264.27896 555.6934 268.21874 c 0
 543.86461 272.15844 540.61621 276.60743 537.49613 284.8203 c 0
 531.25572 301.24541 540.59486 338.39008 553.81059 352.43749 c 0
 591.68467 392.69547 628.02324 407.89752 665.49223 408.85155 c 0
 666.89734 408.88935 668.30257 408.90255 669.71098 408.89845 c 1
 669.71094 408.89844 l 1
EndSplineSet
Validated: 524837
EndChar

StartChar: "+MLAw6jDV 25"
Encoding: 25 12397 24
Width: 1024
LayerCount: 2
Fore
SplineSet
374.36328 867.41602 m 2
 374.36328 867.41202 l 1
 374.296310241 867.412377053 374.229298611 867.412555805 374.162245561 867.412555805 c 0
 374.09519251 867.412555805 374.035719759 867.412377053 373.96875 867.41202 c 0
 354.954326407 867.187876549 339.360438314 852.553263194 337.57422 833.95108 c 0
 333.09782 787.31828 329.86644 739.66464 327.52734 691.29874 c 1
 145.81641 595.44922 l 2
 134.060576491 589.248891481 126.039476398 576.903551559 126.039476398 562.699566909 c 0
 126.039476398 556.481814745 127.637063755 550.604866266 130.35156 545.45898 c 0
 136.551889867 533.703150746 148.897227468 525.682054204 163.101208974 525.682054204 c 0
 169.318962796 525.682054204 175.195912743 527.279642403 180.3418 529.99414 c 2
 279.7832 582.44922 l 1
 137.23828 281.26758 l 1
 137.26758 281.25198 l 2
 137.20558 281.11857 137.11423 281.0092 137.05273 280.87503 c 0
 134.946181579 276.226064527 133.773036291 271.065516344 133.773036291 265.633127605 c 0
 133.773036291 245.210195749 150.353867435 228.629364605 170.776799291 228.629364605 c 0
 185.484776612 228.629364605 198.160460041 237.164427249 204.125 249.60547 c 2
 204.32422 250.0332 l 1
 204.25222 249.86539 210.90589 260.87912 220.86719 273.67773 c 0
 230.84329 286.49521 244.48185 302.77007 260.62695 321.00977 c 0
 278.37625 341.06156 299.18178 363.5274 321.73828 386.8418 c 1
 321.73888 322.42361 322.11722 257.79022 322.19922 193.54102 c 0
 322.224003504 173.141160806 338.793644373 156.586787487 359.199255162 156.586787487 c 0
 359.215840568 156.586787487 359.231469669 156.585918134 359.24805 156.58594 c 0
 379.646988661 156.611806982 396.200277035 173.181030568 396.200277035 193.585972672 c 0
 396.200277035 193.600567055 396.201186932 193.614319546 396.20117 193.62891 c 0
 396.08741 282.78169 395.44984 372.21285 396.00781 460.25195 c 1
 435.84339 497.82272 476.85164 533.51941 513.31641 560.87109 c 0
 554.68689 591.9029 593.46589 610.61013 604.08398 611.96094 c 0
 634.50037 615.83083 654.95585 608.21173 674.18945 592.87891 c 0
 693.42317 577.54612 710.1464 552.85105 722.4375 524.74414 c 0
 734.72852 496.63776 742.60882 465.48573 746.33203 439.67383 c 0
 748.11521 427.30952 748.3453 415.67203 748.26562 406.81055 c 1
 738.08052 409.22944 728.37882 411.80982 717.78711 413.97852 c 0
 676.94021 422.34261 634.10137 428.52451 594.81836 427.06641 c 0
 555.53535 425.60789 514.30386 417.46783 490.85938 381.41602 c 0
 477.85708 361.42043 478.91288 341.28073 482.19336 323.46094 c 0
 485.47395 305.64084 492.31865 288.46804 501.51953 272.03125 c 0
 519.92145 239.15817 546.15951 206.30678 589.48242 198.08789 c 0
 674.03283 182.04716 752.4722 235.89522 796.20508 317.66602 c 1
 827.03778 308.49231 848.45312 301.04297 848.45312 301.04297 c 2
 852.344501818 299.650888047 856.53621224 298.892544264 860.903645649 298.892544264 c 0
 876.959193369 298.892544264 890.640523143 309.117284675 895.75586 323.42383 c 0
 897.146206439 327.313063521 897.903560542 331.50215247 897.903560542 335.86673508 c 0
 897.903560542 351.924162245 887.676360102 365.606769983 873.36719 370.7207 c 2
 873.36719 370.7207 853.0011 377.93907 822.42578 387.15234 c 1
 825.11571 406.17474 823.10856 425.74687 819.57617 450.23828 c 0
 814.98446 482.07286 805.81903 518.77138 790.24023 554.39648 c 0
 774.66102 590.0219 752.69534 624.93375 720.31836 650.74414 c 0
 687.94104 676.55494 643.8665 691.61474 594.74609 685.36523 c 0
 552.38749 679.97604 514.09602 653.96271 468.90625 620.06641 c 0
 445.70963 602.6669 421.55223 582.76249 397.2832 561.5 c 1
 399.13861 652.94379 403.09835 742.07906 411.23828 826.87695 c 0
 411.351427936 828.054161195 411.409315889 829.247414125 411.409315889 830.454080819 c 0
 411.409315889 849.671200506 396.688693921 865.450305215 377.93945 867.24805 c 0
 376.768077109 867.36006057 375.580838874 867.417359849 374.380323283 867.417359849 c 0
 374.361911794 867.417359849 374.381685234 867.416046945 374.36328 867.41602 c 2
322.25977 499.22266 m 1
 322.23367 496.76268 322.21347 494.29754 322.18947 491.83594 c 0
 320.04267 489.65054 317.90481 487.46205 315.65041 485.25586 c 1
 322.25977 499.22266 l 1
603.11133 353.24414 m 0
 631.42581 353.55293 667.70109 348.69481 702.94141 341.47852 c 0
 709.68631 340.09744 715.86292 338.39195 722.48242 336.88086 c 1
 690.77521 288.23796 643.89419 263.08227 603.27148 270.78906 c 0
 598.43036 271.70745 577.74069 287.37679 566.0957 308.17969 c 0
 560.27319 318.58099 556.31225 329.53829 554.96484 336.85742 c 0
 554.40064 339.9222 554.62508 341.45732 554.7207 342.52734 c 0
 558.9777 345.99434 572.13469 352.16957 597.55859 353.11328 c 0
 599.37277 353.18018 601.22372 353.22373 603.11133 353.24414 c 0
EndSplineSet
Validated: 524841
EndChar

StartChar: "+MLAw6jDV 26"
Encoding: 26 12398 25
Width: 1024
LayerCount: 2
Fore
SplineSet
535.00391 761.54492 m 0
 529.77422 761.57062 524.51677 761.51622 519.23242 761.38086 c 1
 519.24042 761.37286 l 1
 384.88219 757.93254 269.93386 682.04976 204.67578 542.33008 c 2
 202.82227 538.36719 l 1
 201.94336 534.07812 l 2
 196.86367 509.21979 182.57441 469.83092 182.90625 426.29492 c 0
 183.07255 404.52673 187.50773 380.61171 201.06641 358.96484 c 0
 214.62471 337.31798 236.82313 319.63987 265.36914 308.31641 c 0
 331.85934 281.95004 421.20514 292.02398 471.17578 366.87109 c 2
 472.04688 368.17773 l 1
 472.80664 369.55078 l 2
 518.98188 453.31796 545.42803 566.33665 536.65234 674.08984 c 0
 536.282401183 678.631491679 535.069345793 683.010670244 533.20508 686.94141 c 1
 600.41528 686.7033 659.14655 670.97011 699.48242 643.49219 c 0
 742.28406 614.33427 766.30986 575.23993 767.03516 519.32031 c 0
 768.08511 438.50834 752.17554 393.24099 729.2168 369.2168 c 0
 706.25768 345.19299 670.49508 334.52662 612.48047 336.70703 c 0
 612.012193403 336.724627825 611.541701807 336.733505655 611.069153045 336.733505655 c 0
 591.122310624 336.733505655 574.862350414 320.892866006 574.11719 301.12695 c 0
 574.099592175 300.658673403 574.090714345 300.188181807 574.090714345 299.715633045 c 0
 574.090714345 279.768790624 589.931353994 263.508830414 609.69727 262.76367 c 0
 678.55005 260.17621 740.36883 273.77299 782.7207 318.08984 c 0
 825.07258 362.40669 842.20189 429.55653 841.02344 520.28711 c 0
 840.00297 598.95646 800.58749 664.1651 741.14648 704.6582 c 0
 685.42054 742.62049 613.44921 761.15989 535.00391 761.54492 c 0
463.88281 680.02539 m 1
 463.88281 680.01739 l 2
 463.168940246 677.149714834 462.78999801 674.15021667 462.78999801 671.062910229 c 0
 462.78999801 670.043859637 462.827210451 669.086034085 462.9082 668.0877 c 0
 470.25863 577.83334 446.35506 475.89744 408.85156 406.96075 c 1
 378.59909 362.6832 335.07603 360.28613 292.65234 377.10919 c 0
 275.50992 383.90893 268.29098 391.058 263.78125 398.25762 c 0
 259.27152 405.45762 256.99721 414.41471 256.90234 426.8709 c 0
 256.72471 450.39015 266.40677 482.46364 273.17969 513.76153 c 1
 318.91121 610.00455 383.123 662.3064 463.88281 680.0252 c 1
 463.88281 680.02539 l 1
EndSplineSet
Validated: 524837
EndChar

StartChar: "+MLAw6jDV 27"
Encoding: 27 12399 26
Width: 1024
LayerCount: 2
Fore
SplineSet
592.94336 832.19336 m 0
 591.951565423 832.184703687 590.999144051 832.138128409 590.02734 832.05273 c 0
 571.145655574 830.385240096 556.31840267 814.509166245 556.31840267 795.197329828 c 0
 556.31840267 794.087674147 556.329915314 793.024374669 556.42578 791.93945 c 2
 565.22656 692.24805 l 1
 532.0795 687.07525 499.3755 681.99608 472.49414 677.89648 c 0
 438.80294 672.75818 411.47155 668.8676 408.55859 668.56641 c 0
 389.938265027 666.643788778 375.396516674 650.888390209 375.396516674 631.763386026 c 0
 375.396516674 630.466525382 375.424222004 629.2215903 375.55469 627.95898 c 0
 377.476416213 609.337724102 393.232245375 594.794964633 412.357914446 594.794964633 c 0
 413.654703024 594.794964633 414.899567778 594.822666323 416.16211 594.95312 c 0
 426.93195 596.06623 449.7793 599.57709 483.64844 604.74219 c 0
 509.33581 608.65978 540.2696 613.4619 571.75 618.37109 c 1
 589.79883 413.94141 l 1
 563.63017 422.84371 537.10589 429.91792 510.96094 433.17969 c 0
 464.35097 438.99479 414.26187 432.77112 380.57422 396.16602 c 0
 353.04722 366.25521 346.84507 326.2915 355.47656 294.58398 c 0
 364.10806 262.8767 384.09195 237.28766 410.96484 222.00586 c 0
 459.78262 194.24485 519.43563 201.65289 571.28516 219.7168 c 0
 597.20992 228.7487 621.22704 241.20723 640.49023 259.24805 c 0
 651.77348 269.81523 661.26266 283.90897 666.75586 299.75195 c 1
 727.01566 268.64157 773.78516 237.4781 773.78516 237.47852 c 1
 779.704601003 233.458225732 786.848331387 231.108206468 794.536606892 231.108206468 c 0
 807.271863747 231.108206468 818.528028893 237.498028056 825.18555 247.30469 c 0
 829.204573676 253.223531749 831.553781662 260.366122928 831.553781662 268.053071238 c 0
 831.553781662 280.784035517 825.16828278 292.036944371 815.36719 298.69531 c 2
 815.36719 298.69531 748.33389 343.70271 666.89648 382.04492 c 1
 645.02148 629.85547 l 1
 708.9573 639.90977 764.80078 648.75391 764.80078 648.75391 c 2
 782.451535701 651.556986919 795.961915087 666.860684295 795.961915087 685.294999057 c 0
 795.961915087 687.283064821 795.841578466 689.200030115 795.53906 691.10352 c 0
 792.736276845 708.754618864 777.432418378 722.265355829 758.997859666 722.265355829 c 0
 758.85819173 722.265355829 758.725244443 722.300377015 758.58594 722.29883 c 0
 756.745227627 722.277066006 754.964284676 722.121593129 753.19727 721.83984 c 2
 753.19727 721.83984 699.96789 713.41319 638.5 703.74219 c 1
 630.14062 798.45117 l 2
 628.476865369 817.275490171 612.686204239 832.105568333 593.45312 832.19336 c 0
 593.366621012 832.193955874 593.280051902 832.194254298 593.19341364 832.194254298 c 0
 593.106775379 832.194254298 593.029858988 832.193955874 592.94336 832.19336 c 0
199.25781 757.51758 m 0
 180.735866266 757.389364756 165.423271403 743.585182412 162.88281 725.73047 c 0
 139.16311 558.99516 148.54776 367.56493 168.96484 223.61523 c 0
 171.509631988 205.668170921 186.952087884 191.84711322 205.597151369 191.84711322 c 0
 207.372325877 191.84711322 209.082274204 191.933579209 210.79102 192.17578 c 0
 228.738078405 194.720572586 242.559135393 210.163028168 242.559135393 228.808091172 c 0
 242.559135393 230.583262293 242.472669882 232.293207322 242.23047 234.00195 c 0
 222.67164 371.90066 213.94757 559.2496 236.14844 715.30859 c 0
 236.392161994 717.022548481 236.518246783 718.77417084 236.518246783 720.555009494 c 0
 236.518246783 739.193454217 222.668228562 754.595398838 204.73047 757.14844 c 0
 203.097739473 757.381105868 201.463358039 757.505728558 199.76953 757.51758 c 0
 199.68269895 757.518180462 199.595797233 757.518481185 199.508825833 757.518481185 c 0
 199.421854433 757.518481185 199.34464105 757.518180462 199.25781 757.51758 c 0
481.13086 361.19141 m 1
 481.13086 361.18941 l 1
 487.40246 361.15921 494.27655 360.69052 501.79883 359.75191 c 0
 529.76782 356.26273 563.52193 345.02929 597.07812 331.51558 c 1
 597.47656 326.99801 l 2
 597.539195966 326.27335665 597.622684969 325.555863949 597.72656 324.84371 c 0
 597.91592 323.56358 598.29958 321.12424 589.90234 313.25973 c 0
 581.50507 305.39532 565.54565 296.08383 546.93945 289.60152 c 0
 509.72706 276.63702 462.10507 278.05108 447.54297 286.33199 c 0
 439.96558 290.64099 429.97884 302.61256 426.87305 314.02144 c 0
 423.7673 325.43025 424.05891 334.13684 435.02344 346.05074 c 0
 443.66589 355.44166 457.56517 360.86234 478.48047 361.17574 c 0
 479.35191 361.18704 480.23488 361.19514 481.13086 361.19134 c 1
 481.13086 361.19141 l 1
EndSplineSet
Validated: 524837
EndChar

StartChar: "+MLAw6jDV 28"
Encoding: 28 12402 27
Width: 1024
LayerCount: 2
Fore
SplineSet
427.49414 773.5 m 0
 417.099811125 773.466656248 407.704639428 769.146949388 401 762.20703 c 0
 400.54037 761.73119 400.06578 761.07766 399.60547 760.59766 c 0
 396.91811 759.23854 393.55984 757.53563 387.42578 755.06836 c 0
 371.75822 748.766 348.26797 740.80088 324 733.63867 c 0
 299.73203 726.47685 274.38575 720.02191 254.86914 716.2832 c 0
 245.11085 714.41423 236.72405 713.25006 231.58594 712.90234 c 0
 227.80958 712.64534 227.04314 713.38693 230.19727 712.19336 c 1
 226.326003126 713.569249476 222.158814519 714.318363002 217.818041755 714.318363002 c 0
 203.227956446 714.318363002 190.608401153 705.901782049 184.58594 693.62109 c 0
 182.180149311 688.714060134 180.829099212 683.1976562 180.829099212 677.36818771 c 0
 180.829099212 662.776989276 189.237318486 650.13324245 201.51953 644.11133 c 0
 218.71113 635.68412 226.56861 638.39888 236.58398 639.07617 c 0
 246.59939 639.75384 257.18832 641.37882 268.79102 643.60156 c 0
 283.29548 646.37989 299.31752 650.3101 315.59961 654.60742 c 1
 285.95957 610.60465 258.6988 562.58355 238.30273 515.30469 c 0
 218.63804 469.72094 205.02087 425.33951 203.88867 383.57422 c 0
 202.75648 341.80855 218.53819 297.05827 257.93164 275.68164 c 0
 306.59706 249.26955 359.16421 244.20255 406.67773 258.17773 c 0
 454.19127 272.15329 496.1974 303.31802 532.39844 344.8418 c 0
 591.12795 412.20658 635.85407 508.08191 662.58398 617.41797 c 1
 668.36258 610.70024 674.48075 603.95931 681.20898 597.33984 c 0
 709.36919 569.63628 750.1082 545.64003 804.50195 543.16406 c 0
 805.06806556 543.138285403 805.637480429 543.125257822 806.209914042 543.125257822 c 0
 826.057826578 543.125257822 842.251960611 558.81277995 843.14648 578.44141 c 0
 843.172243802 579.007407737 843.185265897 579.576703335 843.185265897 580.149016405 c 0
 843.185265897 599.999580156 827.493641641 616.195395794 807.86133 617.08594 c 0
 771.42014 618.74439 752.91412 630.60827 733.11133 650.08984 c 0
 713.30853 669.57142 695.18443 698.23888 669.1543 726.4043 c 0
 662.392446695 733.716042591 652.719340806 738.296813384 641.984781328 738.296813384 c 0
 623.518827579 738.296813384 608.195118978 724.692481008 605.42773 706.99805 c 0
 585.02879 576.37455 535.67247 461.20866 476.62109 393.47461 c 0
 447.09539 359.6074 415.7537 337.98265 385.79297 329.16992 c 0
 355.83225 320.35758 326.7992 322.50496 293.23242 340.72266 c 0
 281.57129 347.05034 277.15749 355.53113 277.86328 381.56641 c 0
 278.56903 407.60168 288.82318 445.59263 306.25391 485.99805 c 0
 340.02364 564.27773 399.61341 652.01248 449.27734 705.05664 c 0
 450.6921 706.22376 451.6066 706.35599 453.30859 708.11914 c 0
 456.05914 710.96815 459.74005 714.82281 462.625 723.05273 c 0
 465.50995 731.28228 465.18692 746.07211 459.11133 755.92383 c 0
 452.593023212 766.490654802 440.910315237 773.5395812 427.594234068 773.5395812 c 0
 427.552269554 773.5395812 427.536071959 773.500139901 427.49414 773.5 c 0
EndSplineSet
Validated: 524841
EndChar

StartChar: "+MLAw6jDV 29"
Encoding: 29 12405 28
Width: 1024
LayerCount: 2
Fore
SplineSet
446.64062 880.9375 m 1
 427.093792 880.837337052 411.107740509 865.516633559 409.90234 846.24805 c 0
 409.854050329 845.475010771 409.829543553 844.695568964 409.829543553 843.910448461 c 0
 409.829543553 824.277410379 425.185805235 808.225358361 444.51562 807.01367 c 1
 441.10453 807.22718 454.22713 803.44357 467.91602 793.10547 c 0
 481.60482 782.76727 497.55229 767.80478 511.7793 752.52148 c 0
 523.7522 739.65979 533.97279 726.97408 541.7207 716.39258 c 1
 511.35156 694.74219 l 2
 501.937088304 688.031719431 495.793089591 677.024039263 495.793089591 664.592675226 c 0
 495.793089591 656.602276847 498.385602161 649.185731922 502.69922 643.13477 c 0
 509.40977713 633.721031604 520.417016818 627.577597631 532.847809512 627.577597631 c 0
 540.838615171 627.577597631 548.255507412 630.170361308 554.30664 634.48438 c 2
 610.20898 674.33203 l 2
 613.527315659 676.697222515 616.385605798 679.542597287 618.76562 682.84961 c 0
 628.56084 696.46571 626.70927 707.96499 625.56445 714.45898 c 0
 624.41967 720.95298 622.66444 725.10208 620.85352 729.11328 c 0
 617.23163 737.13608 612.83692 744.16179 607.5 751.95898 c 0
 596.82601 767.55288 582.3943 785.27165 565.94727 802.93945 c 0
 549.50027 820.60755 531.25588 838.00441 512.50977 852.16211 c 0
 493.76376 866.31951 476.20872 879.16553 449.13672 880.86133 c 0
 448.47118048 880.904117885 447.824998777 880.928464052 447.15039 880.93553 c 0
 447.063889318 880.936125898 446.977318511 880.936424333 446.89067855 880.936424333 c 0
 446.804038589 880.936424333 446.727120682 880.936125898 446.64062 880.93553 c 1
 446.64062 880.9375 l 1
486.99219 586.08398 m 1
 486.99819 586.08198 l 1
 468.642577451 585.954580781 453.439151219 572.396400165 450.69545 554.77534 c 0
 445.71925 522.80092 443.46606 490.71275 450.02358 459.59175 c 0
 456.58117 428.47078 474.67271 397.12792 505.88881 379.248 c 1
 505.88881 379.2597 l 1
 567.0266 344.2367 589.88272 313.56026 593.40834 302.06634 c 0
 595.17111 296.31953 594.54612 295.74369 593.32044 293.41399 c 0
 592.09486 291.08459 588.36106 286.72334 580.60755 282.50384 c 0
 565.10045 274.06494 535.49286 268.63503 507.41029 272.54681 c 0
 479.32768 276.45903 453.92847 288.58755 439.19349 306.97454 c 0
 432.410442849 315.439614623 421.986642314 320.864054566 410.305893658 320.864054566 c 0
 401.565190609 320.864054566 393.515965568 317.786885626 387.18177 312.71087 c 0
 378.719435306 305.927729298 373.29703875 295.505655547 373.29703875 283.827107166 c 0
 373.29703875 275.084640705 376.375387619 267.033936275 381.45325 260.69915 c 0
 411.26545 223.49805 454.90593 205.14386 497.2013 199.25188 c 0
 539.49682 193.35998 581.60273 198.80214 615.97474 217.50774 c 0
 633.16074 226.86022 648.91012 240.14197 658.81263 258.96477 c 0
 668.71503 277.78758 670.86055 301.88045 664.14857 323.76165 c 0
 650.72471 367.52351 611.63041 403.95469 542.66031 443.46477 c 0
 530.99071 450.14887 525.96474 458.05904 522.42593 474.85345 c 0
 518.88716 491.64774 519.56548 516.14218 523.80679 543.39446 c 0
 524.097451579 545.261443254 524.248310319 547.17443931 524.248310319 549.122392266 c 0
 524.248310319 567.596449871 510.642356709 582.891350318 492.9357 585.64641 c 0
 491.072714076 585.935788827 489.163947122 586.085968931 487.22038052 586.085968931 c 0
 487.130567359 586.085968931 487.082003454 586.084550308 486.99234 586.08391 c 2
 486.99219 586.08398 l 1
838.69336 456.24414 m 1
 838.69336 456.24214 l 1
 838.617119635 456.242602828 838.540824905 456.242834575 838.464476474 456.242834575 c 0
 838.388128043 456.242834575 838.320380365 456.242602828 838.24414 456.24214 c 0
 831.188433107 456.175760576 824.556585757 454.107015548 818.96875 450.61128 c 0
 808.513830348 444.070149293 801.554218859 432.452038065 801.554218859 419.221249642 c 0
 801.554218859 412.032502204 803.671150801 405.303910062 807.22461 399.623 c 0
 835.30162 354.7396 843.20904 296.93747 849.04297 232.5937 c 0
 850.748265123 213.750245807 866.606713696 198.96496087 885.891200041 198.96496087 c 0
 887.031380277 198.96496087 888.124269452 198.978878011 889.23828 199.08003 c 0
 908.07794262 200.789065415 922.859069157 216.645765474 922.859069157 235.927539723 c 0
 922.859069157 237.067298088 922.845217969 238.159781142 922.74414 239.27339 c 0
 916.78662 304.98089 909.3964 375.82716 869.96289 438.86518 c 0
 863.438910033 449.295390732 851.883596285 456.208594849 838.69336 456.24409 c 1
 838.69336 456.24414 l 1
138.03516 407.00391 m 1
 137.545803564 407.00282682 137.080444167 406.992658451 136.5957 406.97271 c 0
 116.882985243 406.169395366 101.125383445 389.912249412 101.125383445 370.00376098 c 0
 101.125383445 369.491806229 101.112170272 369.005024916 101.13281 368.4981 c 0
 104.96612 274.5099 150.61409 214.51372 174.18359 182.83599 c 0
 180.93081478 173.771568336 191.72697267 167.895670761 203.884690187 167.895670761 c 0
 211.80482949 167.895670761 219.164034103 170.44126538 225.18555 174.6856 c 2
 324.08789 244.42388 l 2
 333.590533098 251.123602987 339.802538132 262.184135199 339.802538132 274.684109666 c 0
 339.802538132 282.606056768 337.252313001 289.96435712 333.00586 295.98638 c 0
 326.305847585 305.486718908 315.246693769 311.696944143 302.748510112 311.696944143 c 0
 294.827879357 311.696944143 287.470681404 309.147555422 281.44922 304.90239 c 2
 212.66602 256.40435 l 1
 194.21531 284.20723 177.21927 318.96569 175.07617 371.50982 c 0
 174.272200995 391.221934304 158.015329061 406.97885105 138.107273388 406.97885105 c 0
 138.082908023 406.97885105 138.059514405 407.002047184 138.03516 407.002 c 1
 138.03516 407.00391 l 1
EndSplineSet
Validated: 524837
EndChar

StartChar: "+MLAw6jDV 30"
Encoding: 30 12408 29
Width: 1024
LayerCount: 2
Fore
SplineSet
384.15039 674.81836 m 0
 384.082115102 674.817866832 384.01740698 674.817223286 383.94922 674.81636 c 0
 378.18724163 674.758161528 372.696237701 673.358734663 367.84961 670.94917 c 0
 273.50013 624.04906 213.30578 549.36449 150.07617 488.74805 c 0
 143.048330845 482.011629304 138.670138947 472.532151845 138.670138947 462.038162263 c 0
 138.670138947 452.111165489 142.596252259 443.081667422 148.96875 436.43359 c 0
 155.705228878 429.405177049 165.185100351 425.02657756 175.679578395 425.02657756 c 0
 185.607084757 425.02657756 194.636984756 428.953093117 201.28516 435.32617 c 0
 264.97348 496.38217 317.62892 558.46346 387.94336 597.49805 c 1
 567.62115 541.03644 678.45794 437.18351 799.94141 335.08789 c 0
 806.37466594 329.680656789 814.672873863 326.422099687 823.726152773 326.422099687 c 0
 835.093889318 326.422099687 845.282760037 331.527496767 852.07227 339.60547 c 0
 857.477556756 346.038183497 860.734806761 354.334878357 860.734806761 363.386341326 c 0
 860.734806761 374.756238741 855.627506745 384.946817695 847.54688 391.73633 c 0
 725.10303 494.63888 600.33396 612.95553 394.75 673.31836 c 0
 391.44011258 674.290739346 387.938222267 674.812481562 384.315434145 674.812481562 c 0
 384.257845801 674.812481562 384.207916959 674.81862339 384.15039 674.81836 c 0
EndSplineSet
Validated: 524809
EndChar

StartChar: "+MLAw6jDV 31"
Encoding: 31 12411 30
Width: 1024
LayerCount: 2
Fore
SplineSet
688.2832 840.31836 m 2
 688.2832 840.31636 l 2
 687.794221647 840.313275314 687.328077398 840.301179967 686.84375 840.27926 c 2
 686.84375 840.27926 627.19216 837.46214 565.83984 834.64644 c 0
 535.16365 833.23854 504.05772 831.82554 479.8125 830.77144 c 0
 455.56683 829.71764 434.55824 829.05084 436.21484 829.05074 c 1
 415.794896365 829.049623778 399.2168 812.465082303 399.2168 792.04488 c 0
 399.217916404 771.625624147 415.795584147 755.047956404 436.21484 755.04684 c 0
 444.71383 755.04684 458.67111 755.78266 483.0293 756.84176 c 0
 507.38801 757.90036 538.52061 759.31557 569.22852 760.72457 c 0
 574.45371 760.96438 578.28667 761.14477 583.45117 761.38277 c 1
 585.68359 618.53707 l 1
 522.4343 620.20547 457.20093 624.05232 391.72266 623.3398 c 0
 371.488328501 623.121964454 355.128275885 606.627413139 355.128275885 586.341919786 c 0
 355.128275885 586.206436798 355.12159419 586.078461066 355.12305 585.94332 c 0
 355.340839511 565.708948663 371.835408912 549.348849465 392.120931145 549.348849465 c 0
 392.259068986 549.348849465 392.389557687 549.342196652 392.52734 549.34371 c 0
 455.26572 550.02641 520.63733 545.48773 586.85352 543.73434 c 1
 588.7168 424.53121 l 1
 512.76787 436.91903 430.71135 431.08214 349.01953 388.01363 c 0
 315.62663 370.40946 301.8462 330.27355 310.625 293.79098 c 0
 319.4037 257.30795 348.89442 223.53729 396.56641 201.84957 c 0
 448.27031 178.32658 508.65161 179.51842 559.98633 193.31441 c 0
 585.6534 200.21243 609.19154 210.37607 628.67383 225.76558 c 0
 648.15574 241.15548 665.20386 264.81385 664.77148 293.84176 c 0
 664.771481257 293.845736571 664.771481886 293.849713287 664.771481886 293.853690149 c 0
 664.771481886 293.857667011 664.771481257 293.861183429 664.77148 293.86516 c 2
 664.23242 328.31048 l 1
 719.9131 308.52839 774.97624 281.25285 828.24414 256.83782 c 0
 832.930394849 254.689780099 838.141488154 253.4921034 843.630106418 253.4921034 c 0
 858.562782782 253.4921034 871.45317044 262.306642818 877.29688 275.05657 c 0
 879.444918816 279.742823874 880.642594872 284.953915856 880.642594872 290.442532649 c 0
 880.642594872 305.375212224 871.828051593 318.265602208 859.07812 324.10931 c 0
 800.36883 351.01803 734.47893 383.71165 663.01562 405.97454 c 1
 660.86719 543.35735 l 1
 713.6803 544.48743 766.60913 549.23056 818.76562 561.61516 c 0
 835.058700263 565.486395498 847.193027681 580.14496498 847.193027681 597.615293874 c 0
 847.193027681 600.565083038 846.864420387 603.412912122 846.21094 606.16399 c 0
 842.340760149 622.458537636 827.681484328 634.594312081 810.210113791 634.594312081 c 0
 810.13395301 634.594312081 810.064333247 634.613670557 809.98828 634.61321 c 0
 807.121796459 634.594190815 804.347089916 634.246250183 801.66992 633.60931 c 0
 756.6906 622.92907 709.05848 618.90767 659.70117 618.00977 c 1
 657.40625 764.81445 l 1
 675.49443 765.66065 690.33594 766.35938 690.33594 766.35938 c 2
 709.934501817 767.286302909 725.562209338 783.491322494 725.562209338 803.317585531 c 0
 725.562209338 803.910982087 725.574565892 804.475903755 725.54688 805.0625 c 0
 724.622519383 824.663443134 708.416411734 840.293853357 688.588434365 840.293853357 c 0
 688.484862876 840.293853357 688.386572181 840.319211289 688.2832 840.31836 c 2
185.10156 772.69141 m 0
 184.789071374 772.689996625 184.492263214 772.684941786 184.18164 772.67581 c 0
 164.310406857 772.046807132 148.371281518 755.717381718 148.371281518 735.694551294 c 0
 148.371281518 735.292439902 148.358330351 734.910784947 148.37109 734.51175 c 0
 153.23429 581.7742 124.2531 397.27426 164.9375 252.29688 c 0
 169.307295515 236.73210858 183.612568681 225.305829474 200.565532709 225.305829474 c 0
 204.031759445 225.305829474 207.374075479 225.780782686 210.55664 226.67383 c 0
 226.125334049 231.041074428 237.555373316 245.348265504 237.555373316 262.304018744 c 0
 237.555373316 265.770164802 237.080507192 269.112421502 236.1875 272.29492 c 0
 202.8452 391.10853 227.52609 573.92833 222.33789 736.86523 c 0
 221.710390949 756.648694172 205.51569521 772.553243805 185.61328 772.69141 c 0
 185.52644895 772.692010462 185.439547233 772.692311185 185.352575833 772.692311185 c 0
 185.265604433 772.692311185 185.18839105 772.692010462 185.10156 772.69141 c 0
520.83789 356.83984 m 2
 522.28851 356.82854 523.73752 356.81354 525.1875 356.78714 c 0
 546.77079 356.37253 568.29802 353.49996 589.89844 349.14065 c 1
 590.77539 292.73441 l 1
 590.77539 292.96042 591.1246 290.41206 582.80469 283.83987 c 0
 574.48447 277.26728 559.11458 269.71485 540.7793 264.78714 c 0
 504.1096 254.93236 456.12199 256.04701 427.20898 269.2012 c 0
 394.95608 283.8745 384.96263 301.1925 382.57812 311.10159 c 0
 380.19362 321.01117 383.56637 322.5705 383.5293 322.55081 c 1
 430.5603 347.34629 475.8699 357.06706 520.83789 356.83987 c 1
 520.83789 356.83984 l 2
EndSplineSet
Validated: 524841
EndChar

StartChar: "+MLAw6jDV 32"
Encoding: 32 12414 31
Width: 1024
LayerCount: 2
Fore
SplineSet
519.94727 921.10156 m 2
 519.79706449 921.099072623 519.653677254 921.095836135 519.50391 921.09156 c 0
 499.484322519 920.628532414 483.374088035 904.231569017 483.374088035 884.101551297 c 0
 483.374088035 883.812671054 483.362540474 883.53901659 483.36914 883.25171 c 2
 486.71484 738.29664 l 1
 479.08182 738.63044 471.43448 738.85563 463.77734 738.98023 c 0
 401.10015 739.99913 337.81507 734.5853 277.21484 732.2771 c 0
 257.455094479 731.525177263 241.64377631 715.246574106 241.64377631 695.304181342 c 0
 241.64377631 694.826146548 241.630433075 694.371860984 241.64844 693.8982 c 0
 242.400357572 674.138449765 258.67896288 658.327126206 278.621359042 658.327126206 c 0
 279.099393707 658.327126206 279.553679143 658.313783085 280.02734 658.33179 c 0
 352.18348 661.08049 423.48317 666.26489 488.45117 663.11499 c 1
 492.11719 504.2732 l 2
 492.14851138 502.985903183 492.24447122 501.737720931 492.4043 500.48609 c 0
 492.4345 500.24231 492.469 499.99866 492.5 499.75367 c 1
 431.07126 502.89566 374.74921 515.1744 325.74414 542.9314 c 0
 320.417228255 545.94915707 314.226828909 547.707380282 307.67969 547.73804 c 0
 307.620597636 547.738317955 307.561472724 547.738457087 307.502315571 547.738457087 c 0
 293.693097241 547.738457087 281.667415137 540.196482284 275.31055 528.97242 c 0
 272.267543568 523.598864904 270.529952849 517.390501272 270.529952849 510.779504112 c 0
 270.529952849 496.971523955 278.047127285 484.903956404 289.26953 478.54664 c 0
 355.61891 440.96664 428.4877 427.12306 503.45508 424.98804 c 1
 509.55724 385.17507 514.87573 347.49975 514.69727 313.58374 c 1
 474.90315 323.91875 433.85998 330.85151 394.08594 330.76148 c 2
 394.077986474 330.761480838 l 1
 394.07034 330.76148 l 2
 347.92429 330.64658 313.72145 321.97245 289.72073 300.42945 c 0
 265.72005 278.88546 259.89042 246.69672 262.98245 222.66773 c 0
 269.16659 174.60975 299.22855 139.06812 299.22855 139.06812 c 2
 301.88781236 135.538762606 305.107841293 132.553500037 308.83987 130.16578 c 0
 351.4548 102.88379 404.60422 95.98693 453.84183 108.95093 c 0
 502.63893 121.79894 548.54217 156.72399 569.59769 211.82398 c 0
 570.41939 213.66998 570.78628 215.56088 571.55276 217.41187 c 0
 585.24403 212.37289 598.98362 207.28983 611.62308 201.99781 c 0
 678.49981 173.99782 726.91995 146.16187 726.91995 146.16187 c 2
 732.342631177 143.042912823 738.628515534 141.258566499 745.327867601 141.258566499 c 0
 759.04991347 141.258566499 771.053405052 148.681465738 777.44144 159.78882 c 0
 780.559195637 165.21073373 782.342801171 171.495398946 782.342801171 178.193360216 c 0
 782.342801171 191.917824753 774.917258769 203.923123457 763.80667 210.31031 c 2
 763.80667 210.31031 711.48943 240.41052 640.1973 270.25953 c 0
 624.21587 276.95054 607.01272 283.61956 589.39456 290.05054 c 1
 593.66116 335.85853 587.23904 382.04928 579.62503 426.35328 c 1
 601.15088 427.60029 622.72528 429.45182 644.25003 431.66382 c 0
 662.876730522 433.580309703 677.42540444 449.338657122 677.42540444 468.468214942 c 0
 677.42540444 469.757234829 677.398474645 470.99455807 677.26956 472.24976 c 0
 675.356641712 490.880171886 659.596577816 505.432878236 640.464369126 505.432878236 c 0
 639.175621699 505.432878236 637.93856444 505.40596083 636.68362 505.2771 c 0
 613.06449 502.85012 589.87838 500.98 567.19925 499.90601 c 0
 566.79412 502.75097 566.40136 505.58517 566.03909 508.3982 c 2
 562.66214 654.71656 l 1
 582.48508 650.85276 601.34995 645.5699 619.04105 638.44507 c 0
 623.306459179 636.727180594 627.964537989 635.781470748 632.841756143 635.781470748 c 0
 648.386075307 635.781470748 661.711099866 645.35033212 667.18558 658.94507 c 0
 668.903469406 663.210479179 669.849179252 667.868557989 669.849179252 672.745776143 c 0
 669.849179252 688.290095307 660.28031788 701.615119866 646.68558 707.0896 c 0
 618.86701 718.2931 590.15365 725.8349 560.90823 730.7732 c 1
 557.34964 884.95679 l 2
 556.886617743 904.976382204 540.489652197 921.086622156 520.359631061 921.086622156 c 0
 520.351643616 921.086622156 520.343956269 921.101325072 520.33597 921.10132 c 0
 520.269993765 921.101666531 520.203976901 921.101840012 520.137919837 921.101840012 c 0
 520.071862774 921.101840012 520.013276235 921.101666531 519.9473 921.10132 c 2
 519.94727 921.10156 l 2
394.24805 256.76562 m 0
 426.59207 256.83552 463.84455 250.21123 501.32227 240.15625 c 1
 501.166920075 239.782966494 501.014441865 239.398860614 500.87109 239.01953 c 0
 488.72169 206.31252 464.51024 188.28859 434.99609 180.51758 c 0
 407.88108 173.3776 377.55197 177.46075 354.92383 189.50977 c 1
 350.27724 197.06277 338.31087 217.11138 336.38086 232.10938 c 0
 335.21903 241.1384 335.4425 242.03534 339.14844 245.36133 c 0
 342.85407 248.68833 358.00817 256.67363 394.24805 256.76562 c 0
EndSplineSet
Validated: 524841
EndChar

StartChar: "+MLAw6jDV 33"
Encoding: 33 12415 32
Width: 1024
LayerCount: 2
Fore
SplineSet
475.51367 783.11914 m 1
 475.51367 783.11714 l 1
 475.481822478 783.117220687 475.449965553 783.117261054 475.418099274 783.117261054 c 0
 475.386232995 783.117261054 475.358017522 783.117220687 475.32617 783.11714 c 0
 471.383244404 783.072790153 467.573559562 782.400774402 464.01758 781.21284 c 2
 464.01758 781.21284 332.02096 739.59218 259.44336 741.26948 c 0
 259.153427799 741.276201054 258.862675542 741.279580113 258.571140292 741.279580113 c 0
 238.441064705 741.279580113 222.058637309 725.154387504 221.5957 705.13472 c 0
 221.588978949 704.844787877 221.585599893 704.554035698 221.585599893 704.262500526 c 0
 221.585599893 684.132421541 237.710797794 667.749992006 257.73047 667.28706 c 0
 315.31426 665.95626 380.51866 680.46687 427.50586 693.22847 c 1
 422.14358 668.31387 415.34373 638.62926 406.23242 605.28706 c 0
 400.60183 584.68206 394.06405 563.25707 386.92773 541.99409 c 1
 380.24855 541.48007 373.3891 541.34265 366.8125 540.63667 c 0
 295.6371 532.98966 229.45714 514.50821 183.37305 469.82222 c 0
 154.00461 441.34521 139.79319 401.35274 137.42773 360.92378 c 0
 135.06231 320.49478 147.37452 272.72744 190.17188 250.89643 c 0
 210.69434 240.42843 234.22007 239.91712 253.36719 245.24214 c 0
 272.51427 250.56711 288.44843 260.46756 302.77344 271.55854 c 0
 331.42334 293.74055 354.47493 322.04948 370.95312 341.97651 c 0
 399.69421 376.73248 421.90283 422.36908 440.27734 470.28706 c 1
 485.79382 470.71305 533.68273 467.79162 579.98633 462.51362 c 0
 602.69373 459.92461 624.92428 456.86535 646.25586 453.56636 c 1
 639.58737 393.12037 619.20498 338.31862 600.50781 291.63862 c 0
 598.806942731 287.391435747 597.871098041 282.756575985 597.871098041 277.904862827 c 0
 597.871098041 262.337527355 607.469016161 248.996370744 621.0957 243.53706 c 0
 625.342886585 241.836190561 629.977749315 240.900344613 634.829465733 240.900344613 c 0
 650.39680251 240.900344613 663.737960119 250.498264349 669.19727 264.12495 c 0
 687.88094 310.77195 710.88211 371.31581 719.24609 440.83784 c 1
 790.80211 426.99184 840.09375 413.54878 840.09375 413.54878 c 2
 843.207834579 412.696759087 846.485245679 412.241797132 849.868080302 412.241797132 c 0
 866.903985508 412.241797132 881.251613735 423.785311649 885.54492 439.46675 c 0
 886.397863435 442.582396188 886.853335341 445.861584441 886.853335341 449.246314383 c 0
 886.853335341 466.285543024 875.305254084 480.635515808 859.61914 484.92573 c 2
 859.61914 484.92573 802.98775 500.44975 721.89844 515.67573 c 1
 720.37816 544.43975 715.76004 574.27141 706.96875 604.89643 c 0
 702.536092416 620.344274998 688.307346285 631.671585192 671.44727 631.69136 c 0
 671.436421416 631.69136936 671.425571745 631.691374041 671.41472099 631.691374041 c 0
 667.867859083 631.691374041 664.443641158 631.185463398 661.19531 630.2519 c 0
 645.734327272 625.815126024 634.407332586 611.560660674 634.407332586 594.681510592 c 0
 634.407332586 591.138009547 634.906031855 587.7221089 635.83789 584.47651 c 0
 641.30672 565.42652 644.80924 546.69769 646.71484 528.3437 c 1
 627.80602 531.15268 608.28394 533.76704 588.37305 536.03706 c 0
 548.25283 540.61006 506.64322 543.59163 465.39062 544.30464 c 1
 469.57452 558.24463 473.94025 572.33514 477.61523 585.78315 c 0
 500.53954 669.67315 512.24219 740.04292 512.24219 740.04292 c 2
 512.572798138 742.030020041 512.744833744 744.070447147 512.744833744 746.150738246 c 0
 512.744833744 766.573670102 496.164002601 783.154501246 475.741070744 783.154501246 c 0
 475.664072691 783.154501246 475.590558145 783.119560685 475.51367 783.11909 c 1
 475.51367 783.11914 l 1
356.30859 464.14258 m 1
 342.82209 434.03456 328.58814 406.85791 313.92773 389.12891 c 0
 297.63734 369.42891 276.55796 344.85221 257.4707 330.07422 c 0
 247.92709 322.6852 239.09451 318.08015 233.53906 316.53516 c 0
 227.98361 314.99012 226.87017 315.24756 223.79492 316.81641 c 0
 216.35832 320.60943 209.93774 333.33364 211.29883 356.59766 c 0
 212.65991 379.86065 224.64115 406.7534 234.89062 416.69141 c 0
 258.944 440.01544 302.53759 456.11456 356.30859 464.14258 c 1
EndSplineSet
Validated: 524837
EndChar

StartChar: "+MLAw6jDV 34"
Encoding: 34 12416 33
Width: 1024
LayerCount: 2
Fore
SplineSet
443.43555 858.21289 m 1
 443.43355 858.20119 l 2
 443.357972324 858.201644811 443.282341229 858.201872541 443.206657365 858.201872541 c 0
 443.130973502 858.201872541 443.063817676 858.201644811 442.98824 858.20119 c 0
 442.160918661 858.190661349 441.366140192 858.153955149 440.55269 858.08986 c 0
 421.52130522 856.572026403 406.529027786 840.627020766 406.529027786 821.208013174 c 0
 406.529027786 820.206233184 406.532996441 819.247425653 406.61129 818.26564 c 2
 406.61129 818.26564 410.34787 770.47325 408.64058 705.95705 c 1
 337.97839 707.96776 269.64858 711.37682 219.29488 709.44143 c 0
 199.542216464 708.681751116 183.738994525 692.406378337 183.738994525 672.469092006 c 0
 183.738994525 671.985541116 183.725677039 671.525973628 183.7441 671.0469 c 0
 184.503812399 651.294267078 200.779171213 635.491080131 220.71643547 635.491080131 c 0
 221.199323384 635.491080131 221.658256848 635.477737291 222.13668 635.49611 c 0
 265.83488 637.17592 333.0914 634.01008 404.32808 632.03127 c 1
 404.02648 628.79429 403.70631 625.54785 403.3691 622.29104 c 0
 400.43248 593.92916 395.87393 565.20656 389.77926 537.85158 c 1
 380.63167 545.24457 370.09367 551.19726 358.00777 554.40627 c 0
 307.45027 567.82824 258.20386 545.96142 219.96676 515.52541 c 0
 181.72965 485.09042 148.36115 440.64854 160.02535 387.81252 c 0
 169.26895 345.92953 205.95084 326.86894 239.45504 317.79494 c 0
 269.85504 309.56196 302.31997 308.45727 332.57027 320.94729 c 1
 332.25359 315.79927 331.82907 310.66962 331.85348 305.47658 c 0
 332.00556 273.17659 342.61425 234.78358 375.40035 212.93557 c 1
 375.41035 212.93557 l 1
 435.80254 172.6946 517.01293 159.11263 595.03535 168.80666 c 0
 673.05776 178.49964 750.42927 212.76568 793.34199 280.67971 c 0
 796.948802299 286.389818335 799.036867093 293.153089138 799.036867093 300.400205122 c 0
 799.036867093 313.571011559 792.202262839 325.15959004 781.82636 331.71682 c 0
 776.11507587 335.325800905 769.349755853 337.415228784 762.100274802 337.415228784 c 0
 748.927974082 337.415228784 737.338275675 330.579059546 730.78144 320.20119 c 0
 703.84392 277.5702 648.38097 250.0032 585.9123 242.24221 c 0
 523.44359 234.48121 456.51229 247.81947 416.43769 274.52346 c 0
 408.57011 279.76547 405.94598 285.82007 405.85175 305.8301 c 0
 405.75765 325.84009 411.34871 354.42133 417.09589 384.1133 c 0
 418.54202 391.58531 419.62711 399.31503 420.97871 406.91604 c 0
 428.47328 420.52502 435.23933 434.66179 440.90253 449.38479 c 0
 460.87023 501.29576 471.26785 559.54301 476.97675 614.67971 c 0
 477.53076 620.02982 478.02482 625.34298 478.49042 630.63088 c 1
 557.20033 629.98118 633.29579 632.76971 690.80878 652.06252 c 0
 705.472008098 656.981057981 716.04881186 670.840826308 716.04881186 687.151445556 c 0
 716.04881186 691.263794499 715.360001161 695.217345594 714.11933 698.91408 c 0
 709.19961854 713.575240666 695.34088313 724.150129389 679.031740552 724.150129389 c 0
 678.83112182 724.150129389 678.65122509 724.141878192 678.45136 724.13869 c 0
 674.556662809 724.075240065 670.789878584 723.398893309 667.27558 722.21877 c 0
 628.88718 709.34147 557.88146 704.67035 482.64667 704.70705 c 1
 484.45189 773.66545 480.3791 824.14846 480.3791 824.14846 c 2
 478.864157447 843.182711353 462.917833148 858.178159559 443.496772165 858.178159559 c 0
 443.476400337 858.178159559 443.456104169 858.212942987 443.43574 858.21291 c 2
 443.43555 858.21289 l 1
780.3418 689.50586 m 1
 780.110991793 689.504584675 779.891904567 689.501352593 779.66211 689.49586 c 0
 769.757961003 689.30801374 760.783111161 685.22513135 754.24609 678.71071 c 0
 747.51910285 672.009359763 743.353521619 662.738588115 743.353521619 652.502570365 c 0
 743.353521619 642.319550869 747.476852106 633.081519618 754.14258 626.38844 c 2
 849.125 531.03711 l 2
 855.826350629 524.31011988 865.097124358 520.144536562 875.333144673 520.144536562 c 0
 885.516161614 520.144536562 894.754190789 524.267865055 901.44727 530.93359 c 0
 908.17425715 537.634940237 912.339838381 546.905711885 912.339838381 557.141729635 c 0
 912.339838381 567.324749131 908.216507894 576.562780382 901.55078 583.25586 c 2
 806.57617 678.60742 l 2
 799.874086024 685.339983807 790.599406456 689.509486156 780.358572188 689.509486156 c 0
 780.354464535 689.509486156 780.345907342 689.503911342 780.3418 689.50391 c 1
 780.3418 689.50586 l 1
331.0625 483.71875 m 0
 334.121 483.74895 336.80898 483.46594 339.02148 482.87891 c 0
 352.75708 479.23189 349.92454 480.59519 351.71094 466.86719 c 0
 352.72334 459.08616 351.77194 446.81909 349.97656 432.83008 c 1
 337.48417 413.27911 323.37965 398.285 307.65625 390.08203 c 0
 301.15805 386.69202 277.53273 384.14771 258.80273 389.2207 c 0
 240.07264 394.29272 232.07341 404.72969 232.28711 403.76172 c 1
 230.45811 412.04671 240.91693 437.61697 266.05273 457.625 c 0
 284.90453 472.62999 308.55834 481.45289 325.18164 483.33789 c 0
 327.25954 483.57298 329.2275 483.70182 331.0625 483.71875 c 0
EndSplineSet
Validated: 524841
EndChar

StartChar: "+MLAw6jDV 35"
Encoding: 35 12417 34
Width: 1024
LayerCount: 2
Fore
SplineSet
576.04102 762.7207 m 0
 556.670040822 762.570650902 540.816922643 747.469663932 539.42578 728.41602 c 0
 539.2848 726.48352 531.73202 699.98387 521.08203 668.79297 c 1
 460.87076 664.79517 396.90663 653.62839 337.67773 632.2207 c 1
 326.85474 659.50239 317.15508 687.17545 308.85938 715.37305 c 0
 304.347406435 730.715612113 290.151059082 741.929806686 273.356164974 741.929806686 c 0
 273.290056965 741.929806686 273.233997055 741.933937065 273.16797 741.93359 c 0
 269.611882936 741.913974969 266.174215645 741.385295317 262.92188 740.42773 c 0
 247.581523631 735.914368049 236.369425273 721.719104729 236.369425273 704.925780389 c 0
 236.369425273 701.298757419 236.894478972 697.803498482 237.86914 694.49023 c 0
 247.23174 662.66583 258.12398 631.68727 270.20898 601.4043 c 1
 197.26948 559.73429 139.78144 494.75757 131.96094 403.18555 c 0
 127.30524 348.67856 155.26198 302.77695 192.45508 276.33594 c 0
 229.64818 249.89395 275.11198 238.31055 318.17578 238.31055 c 0
 342.73798 238.31055 361.45809 249.91698 377.95508 263.54297 c 0
 393.33938 276.24997 407.51049 292.18683 421.5918 310.58984 c 1
 437.01378 284.73081 452.47553 259.02076 467.69531 233.34375 c 0
 474.141982952 222.468740281 485.998965263 215.171533082 499.546852255 215.171533082 c 0
 506.418147134 215.171533082 512.870612832 217.111891385 518.38672 220.38086 c 0
 529.263623243 226.827073461 536.562363157 238.685123346 536.562363157 252.23443307 c 0
 536.562363157 259.108128219 534.620693207 265.562689141 531.34961 271.08008 c 0
 509.9026 307.2621 488.30058 343.09511 467.22461 378.91211 c 1
 482.52897 404.56713 497.42401 432.09172 511.60352 460.13672 c 0
 535.17503 506.7587 555.80433 553.6665 572.83594 595.89648 c 1
 587.40186 595.92668 602.24436 596.13098 615.48828 595.25391 c 0
 687.80678 590.46192 769.11907 543.4142 801.72656 482.4082 c 0
 818.03027 451.90519 823.77875 418.98786 813.90625 381.17188 c 0
 804.03337 343.35589 777.31414 299.46568 722.85156 252.51367 c 0
 714.977367479 245.726286215 709.989243112 235.68100089 709.989243112 224.479870239 c 0
 709.989243112 215.260675596 713.396270985 206.813196718 718.98242 200.33203 c 0
 725.769762953 192.459879426 735.813718041 187.473247787 747.013172562 187.473247787 c 0
 756.234747821 187.473247787 764.684189699 190.88196846 771.16602 196.4707 c 0
 833.87223 250.5297 870.9447 306.68541 885.51172 362.48242 c 0
 900.07881 418.2794 890.90973 472.53512 866.99023 517.28711 c 0
 819.1512 606.7901 718.7603 662.5768 620.375 669.0957 c 0
 614.2056 669.5047 607.15789 669.20055 600.76172 669.45117 c 1
 607.33749 689.25707 612.05987 706.99234 613.23047 723.02734 c 0
 613.296310088 723.928580488 613.329808556 724.838740069 613.329808556 725.756661895 c 0
 613.329808556 745.260026896 598.17253546 761.226670051 579.02344 762.625 c 0
 578.12843267 762.689922436 577.224639696 762.722949922 576.313193611 762.722949922 c 0
 576.209338427 762.722949922 576.144674778 762.721555954 576.04102 762.7207 c 0
490.72852 591.26172 m 1
 477.11738 559.5197 462.24385 526.51541 445.56445 493.52539 c 0
 438.68118 479.91138 431.60957 466.45983 424.45508 453.38281 c 1
 404.08875 489.97582 384.77817 526.79102 367.23438 564.16602 c 1
 405.99908 577.59902 448.67628 586.2727 490.72852 591.26172 c 1
299.66992 533.57227 m 1
 324.27232 480.93127 351.88107 430.14854 380.57227 380.35156 c 1
 375.45847 372.75656 370.40753 365.60391 365.45703 359.00391 c 0
 352.57613 341.83291 340.26663 328.39365 330.82812 320.59766 c 0
 321.38953 312.80162 315.65058 312.30766 318.17578 312.30664 c 1
 289.38778 312.30664 256.62188 321.51534 235.33008 336.65234 c 0
 214.03828 351.78935 203.24521 368.24968 205.69141 396.88867 c 0
 210.97931 458.80569 245.97082 502.13026 299.66992 533.57227 c 1
EndSplineSet
Validated: 524841
EndChar

StartChar: "+MLAw6jDV 36"
Encoding: 36 12418 35
Width: 1024
LayerCount: 2
Fore
SplineSet
455.01758 841.95898 m 1
 455.01758 841.95298 l 1
 455.002726386 841.952997548 454.987870733 841.953006324 454.973013046 841.953006324 c 0
 441.115988839 841.953006324 429.052143075 834.358349248 422.71289 823.07017 c 0
 408.76058 798.21937 391.87578 758.25269 376.05469 709.08189 c 1
 336.38289 708.90168 298.64594 707.1478 264.43164 708.0897 c 0
 264.08844925 708.09912726 263.744097455 708.103871722 263.398646275 708.103871722 c 0
 243.325052657 708.103871722 226.98039887 692.06652305 226.42969 672.125 c 0
 226.420226531 671.781153117 226.415463786 671.436140595 226.415463786 671.090024453 c 0
 226.415463786 651.016364923 242.45291572 634.671696849 262.39453 634.12109 c 0
 292.99533 633.27909 324.01174 633.8792 354.83594 634.12109 c 1
 354.37923 632.26708 353.92091 630.41682 353.4707 628.54883 c 0
 340.14551 573.28284 329.95351 513.03175 329.04102 454.21875 c 1
 306.80051 459.05277 286.32509 465.19297 268.83789 472.66797 c 0
 264.388719105 474.56789141 259.465830442 475.637988688 254.32617 475.64062 c 0
 254.316621026 475.640627252 254.30707121 475.640630878 254.297520555 475.640630878 c 0
 239.025828428 475.640630878 225.920523882 466.394886539 220.27344 453.17773 c 0
 218.369445698 448.72131328 217.315347546 443.816439537 217.315347546 438.667310774 c 0
 217.315347546 423.398328156 226.540498166 410.267874137 239.75391 404.61914 c 0
 268.41621 392.36814 300.37516 383.22972 333.91406 376.92773 c 1
 334.80556 371.10575 335.81615 365.32651 336.97266 359.60352 c 0
 351.01476 290.11951 383.46083 224.35965 445.69336 195.43164 c 0
 507.92593 166.50465 588.50037 184.85175 675.41016 255.84375 c 0
 716.16106 289.13077 778.75952 345.65267 804.45312 416.09766 c 0
 805.895481292 420.05050118 806.682536235 424.317466877 806.682536235 428.766808495 c 0
 806.682536235 444.74231025 796.561995276 458.368308035 782.36719 463.54297 c 0
 778.416442365 464.98359842 774.152048498 465.769662578 769.705508293 465.769662578 c 0
 753.730298614 465.769662578 740.104566317 455.649477734 734.92969 441.45508 c 0
 719.30168 398.6071 664.32506 342.34519 628.59375 313.1582 c 0
 553.26705 251.62719 507.13642 248.47608 476.88281 262.53906 c 0
 447.86802 276.02506 422.94571 314.95563 410.97852 367.47266 c 1
 468.65592 363.82764 527.15337 367.35354 578.76758 376.89258 c 0
 595.967664616 380.070886382 609.012809368 395.162211132 609.012809368 413.276349365 c 0
 609.012809368 415.584501953 608.832953226 417.812310507 608.42773 420.00391 c 0
 605.249422907 437.203993737 590.158098572 450.249137589 572.043960963 450.249137589 c 0
 569.735811752 450.249137589 567.508006484 450.069282067 565.31641 449.66406 c 0
 517.42643 440.81207 458.96044 438.74459 403.33203 443.39258 c 1
 403.30553 497.05057 412.24948 556.62517 425.4082 611.20117 c 0
 427.17218 618.51717 429.01853 625.76027 430.92383 632.9043 c 1
 474.41693 630.5543 516.43773 624.2966 555.12305 608.64062 c 0
 559.404757652 606.907402349 564.083647781 605.952802007 568.983737355 605.952802007 c 0
 584.506220821 605.952802007 597.815904941 615.494149868 603.30469 629.05859 c 0
 605.036200354 633.33848754 605.989810121 638.015064169 605.989810121 642.912610709 c 0
 605.989810121 658.43406505 596.449732419 671.742962818 582.88672 677.23242 c 0
 539.95612 694.60642 496.28336 702.76976 453.58789 706.41406 c 1
 466.60198 743.55836 479.30761 772.70611 487.24609 786.8457 c 0
 490.248615939 792.192553683 491.961345408 798.359213058 491.961345408 804.922745127 c 0
 491.961345408 818.782295604 484.387269679 830.888247863 473.0957 837.22656 c 0
 467.758943411 840.221014778 461.566218273 841.954156524 455.01758 841.95898 c 1
EndSplineSet
Validated: 524841
EndChar

StartChar: "+MLAw6jDV 37"
Encoding: 37 12420 36
Width: 1024
LayerCount: 2
Fore
SplineSet
703.15234 878.76562 m 0
 690.718628724 878.697047954 679.745445111 872.517409631 673.08594 863.04297 c 0
 668.856855592 857.028542439 666.372996844 849.699923462 666.372996844 841.795746156 c 0
 666.372996844 829.279075224 672.546176768 818.191141521 682.07031 811.49414 c 2
 806.7793 723.82031 l 2
 812.793206052 719.592414285 820.120785088 717.109320475 828.023745202 717.109320475 c 0
 840.542141125 717.109320475 851.631402016 723.284195776 858.32812 732.81055 c 0
 862.55562676 738.824285361 865.038470281 746.151524085 865.038470281 754.05408589 c 0
 865.038470281 766.573054686 858.863031849 777.662756277 849.33594 784.35938 c 2
 724.63477 872.0332 l 2
 718.620454315 876.262029364 711.292058454 878.745723985 703.388142296 878.745723985 c 0
 703.319884889 878.745723985 703.220511089 878.765989986 703.15234 878.76562 c 0
365.70898 844.89258 m 1
 362.329365254 844.885651789 359.063386284 844.419783916 355.95312 843.5625 c 0
 340.305423013 839.246941271 328.799531916 824.901158829 328.799531916 807.889237881 c 0
 328.799531916 804.47875979 329.257528225 801.189566888 330.12305 798.05273 c 0
 344.15265 747.18573 355.35766 681.66094 368.53906 611.50195 c 1
 358.90916 606.80294 349.2882 602.09109 339.7793 597.41211 c 0
 253.65969 555.03412 178.79492 515.90234 178.79492 515.90234 c 2
 166.97064443 509.723888118 158.892366036 497.341260966 158.892366036 483.086739764 c 0
 158.892366036 476.919038857 160.46485194 471.086569898 163.13867 465.9707 c 0
 169.318068139 454.149359494 181.699098124 446.073535928 195.951453329 446.073535928 c 0
 202.119504558 446.073535928 207.952279205 447.646208124 213.06836 450.32031 c 2
 213.06836 450.32031 287.28057 489.10171 372.45117 531.01172 c 0
 376.05117 532.78371 379.70722 534.56955 383.35352 536.35156 c 1
 389.00701 509.45153 395.17046 482.38968 402.09766 455.67969 c 0
 434.14756 332.10267 482.49651 211.50917 585.58203 150.41016 c 0
 591.099420859 147.139076793 597.537848219 145.260650834 604.411543368 145.260650834 c 0
 617.960853092 145.260650834 629.835036539 152.496146757 636.28125 163.37305 c 0
 639.550549355 168.889358008 641.42786881 175.326016961 641.42786881 182.197687305 c 0
 641.42786881 195.749040168 634.190172604 207.624756959 623.31055 214.07031 c 0
 549.45264 257.84529 504.00361 357.51175 473.72461 474.25977 c 0
 465.66443 505.33874 458.69604 537.30431 452.27734 569.32031 c 1
 512.55212 597.50232 568.30043 621.74217 593.14844 628.86719 c 0
 655.96864 646.88017 712.01583 628.06568 744.76562 598.8457 c 0
 761.14054 584.23567 771.06132 567.37414 774.29883 552.82617 c 0
 777.53633 538.27715 775.77865 526.37811 765.93555 512.91211 c 0
 733.23855 468.18012 709.17412 463.58783 682.97852 466.92383 c 0
 656.78291 470.25782 626.57739 488.58715 603.37109 506.45312 c 0
 597.12825019 511.258592165 589.310971295 514.117334697 580.831266216 514.117334697 c 0
 568.891263975 514.117334697 558.25157652 508.494805306 551.48438 499.70508 c 0
 546.676614881 493.461425007 543.816365214 485.64226038 543.816365214 477.160320334 c 0
 543.816365214 465.218597499 549.440528258 454.577609165 558.23242 447.81055 c 0
 585.17312 427.06956 624.06461 399.8286 673.63281 393.51758 c 0
 723.2009 387.20758 781.56464 408.89123 825.67773 469.24023 c 0
 847.59204 499.22024 853.83352 536.08927 846.53125 568.9043 c 0
 839.22905 601.71929 820.06892 630.82256 794.02344 654.06055 c 0
 754.95514 688.91755 698.98894 711.36681 636.72266 709.88281 c 0
 615.96723 709.38881 594.51345 706.23805 572.75195 699.99805 c 0
 539.67602 690.51305 490.83064 669.48438 437.88672 644.73438 c 1
 426.39272 706.87138 415.53499 766.67461 401.45508 817.72461 c 0
 397.178953053 833.238974587 383.040025991 844.692599425 366.2207 844.89062 c 0
 366.13386895 844.891220462 366.046967233 844.891521185 365.959995833 844.891521185 c 0
 365.873024433 844.891521185 365.79581105 844.891220462 365.70898 844.89062 c 1
 365.70898 844.89258 l 1
EndSplineSet
Validated: 524841
EndChar

StartChar: "+MLAw6jDV 38"
Encoding: 38 12422 37
Width: 1024
LayerCount: 2
Fore
SplineSet
462.12305 862.82031 m 1
 462.12305 862.81631 l 1
 462.051443702 862.816718239 461.97978949 862.816922635 461.908087915 862.816922635 c 0
 461.836386341 862.816922635 461.772776298 862.816718239 461.70117 862.81631 c 0
 448.565838008 862.683895415 437.076797992 855.731596492 430.61523 845.29482 c 0
 427.119071742 839.645855156 425.100406987 832.987955219 425.100406987 825.862291439 c 0
 425.100406987 812.564521393 432.068001397 800.879811068 442.61133 794.35732 c 0
 486.52713 767.18332 518.84059 738.71057 542.05078 709.13857 c 1
 537.09178 708.46257 532.11915 707.7435 527.11914 706.93349 c 0
 449.01256 694.2935 383.33259 651.57013 330.80469 590.44912 c 0
 314.36019 571.31515 299.42211 549.81216 285.13281 527.28115 c 1
 281.63781 590.24917 270.45646 651.55335 249.72266 710.56435 c 0
 244.662591061 724.97316609 230.930340841 735.315414797 214.801590663 735.315414797 c 0
 214.761692035 735.315414797 214.735179202 735.304716483 214.69531 735.30459 c 0
 210.446087047 735.291165965 206.351623463 734.548809866 202.55273 733.21474 c 0
 188.147072611 728.152950163 177.807722159 714.422288435 177.807722159 698.295798332 c 0
 177.807722159 693.999857285 178.563256693 689.874330764 179.91211 686.03701 c 0
 215.74921 584.041 220.20227 471.94775 201.88867 351.17178 c 0
 201.616328035 349.362723776 201.475152979 347.510946403 201.475152979 345.626456026 c 0
 201.475152979 325.20352417 218.055984123 308.622693026 238.478915979 308.622693026 c 0
 254.398762241 308.622693026 267.972546746 318.719476281 273.18945 332.83584 c 0
 304.96815 419.05782 342.84699 490.92073 386.92969 542.21474 c 0
 431.0124 593.50875 479.86608 624.32269 538.94531 633.88467 c 0
 553.29969 636.20768 567.23492 637.7462 580.69922 638.61318 c 1
 595.07144 596.27219 596.13106 552.18443 590.05664 506.85342 c 0
 583.07045 454.71842 564.64382 401.71284 542.54492 351.96084 c 1
 497.34903 363.17284 454.83112 383.80248 429.19141 396.64248 c 0
 424.214669002 399.134944231 418.599253263 400.537960637 412.658731366 400.537960637 c 0
 398.179375512 400.537960637 385.617026737 392.26047759 379.54102 380.13076 c 0
 377.047583524 375.153249184 375.643983089 369.536732485 375.643983089 363.594974296 c 0
 375.643983089 349.111902127 383.925771096 336.546802856 396.06055 330.47256 c 0
 419.54494 318.71154 460.5051 297.94 509.5625 284.03701 c 1
 496.89439 259.72399 484.22667 236.86901 472.72266 216.12099 c 0
 469.780291212 210.814497503 468.104431825 204.71032584 468.104431825 198.217824999 c 0
 468.104431825 184.289529992 475.754755959 172.132521984 487.13867 165.82021 c 0
 492.444968968 162.87812673 498.548842567 161.202442119 505.041004847 161.202442119 c 0
 518.969910465 161.202442119 531.12737238 168.853445002 537.43945 180.23818 c 0
 551.99834 206.49516 569.20202 236.97202 586.24414 270.61904 c 1
 652.25004 267.39801 726.04168 288.07408 776 357.99209 c 0
 817.48009 416.04608 840.29009 469.01778 845.21289 518.12881 c 0
 850.13557 567.23878 834.97231 612.52052 805.13672 644.80849 c 0
 763.04242 690.3625 698.77112 711.74896 624.5 713.91396 c 1
 595.16743 766.30296 549.08077 815.50296 481.55078 857.28896 c 0
 475.913095071 860.775377686 469.231344749 862.813873221 462.12305 862.82021 c 1
 462.12305 862.82031 l 1
655.88867 635.88867 m 1
 699.26567 629.34166 732.5935 614.27308 750.79102 594.58008 c 0
 766.9601 577.08208 774.71362 556.7868 771.57812 525.50781 c 0
 768.4427 494.2278 752.21776 451.99486 715.78516 401.00586 c 0
 688.22378 362.43189 656.06257 347.24963 620.25586 344.22461 c 1
 639.92157 391.87761 656.22426 443.50729 663.39648 497.0293 c 0
 669.47839 542.4153 667.92125 589.56467 655.88867 635.88867 c 1
EndSplineSet
Validated: 524837
EndChar

StartChar: "+MLAw6jDV 39"
Encoding: 39 12424 38
Width: 1024
LayerCount: 2
Fore
SplineSet
516.42578 897.23828 m 1
 516.42578 897.23428 l 1
 516.295635568 897.23563002 516.165331016 897.23630669 516.034869667 897.23630669 c 0
 515.904408318 897.23630669 515.788344432 897.23563002 515.6582 897.23428 c 0
 498.353978365 896.986177131 483.900559842 884.812874607 480.14258 868.58584 c 0
 472.44368 835.33284 472.97128 786.78212 474.4668 717.82412 c 0
 475.96281 648.86712 480.03143 563.5739 485.19922 473.8749 c 0
 487.38072 436.00993 495.5913 401.41874 503.4043 369.21474 c 1
 440.66369 381.08375 376.42305 384.28239 308.87695 372.72842 c 0
 263.81096 365.01943 232.57404 354.2953 212.65234 327.44131 c 0
 202.69154 314.01431 198.31473 296.12925 199.86133 280.98623 c 0
 201.40793 265.84223 207.2242 253.48186 213.9668 242.79287 c 0
 240.9373 200.03787 288.46465 171.34346 308.81055 156.80849 c 0
 353.22244 125.08049 406.01916 121.31252 450.97656 132.68349 c 0
 495.93408 144.0545 534.98052 168.99077 562.5332 199.63076 c 0
 581.13381 220.31577 589.2034 244.30806 591.4707 269.03506 c 1
 649.75941 249.79707 709.66131 225.04977 773.50781 199.04678 c 0
 777.809726975 197.294416635 782.514484021 196.328702303 787.44301584 196.328702303 c 0
 802.935575651 196.328702303 816.224167862 205.832434629 821.73242 219.35537 c 0
 823.484259385 223.656736058 824.449669411 228.360787043 824.449669411 233.288542287 c 0
 824.449669411 248.783008955 814.943549691 262.072963682 801.41797 267.57998 c 0
 728.15447 297.41795 656.61482 327.3595 584.06641 349.01748 c 1
 574.6897 393.9005 561.34165 438.83865 559.07812 478.13467 c 0
 556.38015 524.96467 554.00167 570.45837 552.12695 612.93935 c 1
 557.05066 612.51737 562.25565 612.16614 567.75195 611.86513 c 0
 589.89503 610.65312 616.52308 610.31198 643.09766 610.70498 c 0
 669.67227 611.09899 696.02082 612.21877 717.70703 614.13076 c 0
 728.55012 615.08675 738.15622 616.20958 746.75586 617.76357 c 0
 755.35576 619.3176 760.57265 617.31838 775.78906 628.5624 c 0
 784.910640297 635.303723426 790.830184353 646.134228033 790.830184353 658.336406005 c 0
 790.830184353 666.55573084 788.093927832 674.166416771 783.55273 680.31045 c 0
 776.811686029 689.435045208 765.979344757 695.356888404 753.774797365 695.356888404 c 0
 753.698391212 695.356888404 753.644657923 695.324583528 753.56836 695.32412 c 0
 746.542398753 695.280210985 739.93460644 693.250457258 734.35352 689.80263 c 1
 739.14853 693.03364 737.64146 691.31584 733.60156 690.58584 c 0
 728.64626 689.69084 720.66215 688.68155 711.20312 687.84756 c 0
 692.28432 686.17855 667.17083 685.06721 641.99805 684.69521 c 0
 616.82522 684.32221 591.41338 684.68621 571.79688 685.75771 c 0
 562.69698 686.25571 554.90345 686.92872 549.29883 687.63271 c 1
 548.96585 698.55771 548.66807 709.24768 548.44727 719.42568 c 0
 546.98606 786.78868 549.69411 840.88843 552.24219 851.89443 c 0
 552.864994017 854.583866542 553.194217544 857.385233609 553.194217544 860.262888163 c 0
 553.194217544 877.807653854 540.93700554 892.49369157 524.53906 896.28896 c 0
 521.923749115 896.893263205 519.21980269 897.221822494 516.42578 897.23818 c 2
 516.42578 897.23828 l 1
394.85156 305.85547 m 0
 435.98427 305.64533 476.69108 299.44493 517.7168 289.75195 c 1
 518.37829 271.37196 515.51924 258.01543 507.50781 249.10742 c 0
 490.53543 230.23242 461.80733 211.74696 432.83203 204.41797 c 0
 403.85674 197.08897 376.56292 199.34555 351.82422 217.01953 c 0
 329.43752 233.01253 287.4591 264.98656 276.55859 282.26758 c 0
 275.37019 284.15058 275.67764 283.88336 275.21484 284.98438 c 0
 278.28644 286.88536 289.98586 294.42015 321.35156 299.78516 c 0
 340.13226 302.99817 358.71941 304.87725 377.19531 305.57227 c 0
 383.09093 305.79412 388.97549 305.8857 394.85156 305.85547 c 0
EndSplineSet
Validated: 524837
EndChar

StartChar: "+MLAw6jDV 40"
Encoding: 40 12425 39
Width: 1024
LayerCount: 2
Fore
SplineSet
496.00781 884.09375 m 2
 496.00781 884.09175 l 1
 495.97032716 884.09186179 495.932831281 884.091917725 495.89532244 884.091917725 c 0
 495.857813599 884.091917725 495.82459284 884.09186179 495.78711 884.09175 c 0
 485.155453026 883.957891998 475.593154188 879.344547742 468.92383 872.03706 c 0
 462.922491448 865.45914141 459.260768664 856.710623494 459.260768664 847.113613269 c 0
 459.260768664 836.288483295 463.901943793 826.532256094 471.32227 819.76362 c 2
 574.51367 725.59956 l 1
 511.50195 687.46675 l 2
 500.788524102 680.981980582 493.621744993 669.216396886 493.621744993 655.790131232 c 0
 493.621744993 648.797165629 495.628998043 642.238610546 499.00586 636.65815 c 0
 505.490008878 625.94201509 517.257129792 618.773055254 530.68543798 618.773055254 c 0
 537.680431797 618.773055254 544.240749152 620.781437372 549.82227 624.16011 c 2
 655.17578 687.91792 l 2
 665.889559603 694.403502175 673.056477733 706.16985518 673.056477733 719.596922356 c 0
 673.056477733 730.420025561 668.374380872 740.137121709 660.95703 746.9062 c 2
 521.20312 874.42773 l 2
 514.62515752 880.429278143 505.876484578 884.09114464 496.279286027 884.09114464 c 0
 496.191820519 884.09114464 496.095133552 884.094357298 496.00781 884.09375 c 2
332.95898 752.5957 m 1
 332.95898 752.5897 l 1
 332.888368755 752.590096965 332.817710927 752.590295712 332.747007046 752.590295712 c 0
 332.676303165 752.590295712 332.613581245 752.590096965 332.54297 752.5897 c 0
 332.054234479 752.585294276 331.587578804 752.571921881 331.10352 752.5487 c 0
 311.50495796 751.621777331 295.877250186 735.416757644 295.877250186 715.590494446 c 0
 295.877250186 714.997094492 295.864893792 714.432169564 295.89258 713.84557 c 0
 301.76732 589.79171 272.17402 472.94166 239.125 352.80469 c 0
 238.264447093 349.676033678 237.804769309 346.382058422 237.804769309 342.981566893 c 0
 237.804769309 322.558635036 254.385600453 305.977803893 274.808532309 305.977803893 c 0
 281.155122371 305.977803893 287.164487772 307.611490189 292.38672 310.43164 c 0
 348.04952 340.49567 419.1739 378.42081 488.76562 399.9668 c 0
 558.35735 421.51283 623.13157 425.58289 671.68164 398.37891 c 0
 694.32351 385.69088 706.20409 377.13417 711.56641 366.5332 c 0
 716.92869 355.9322 720.4894 335.30349 707.83203 288.98047 c 0
 704.11702 275.38449 691.34911 260.95116 667.16406 247.95117 c 0
 642.97905 234.95115 609.3955 224.95822 575.06836 219.44922 c 0
 540.74118 213.94022 505.51738 212.74226 478.32031 215.07227 c 0
 451.12329 217.40325 431.38535 228.72258 436.39258 223.72461 c 1
 429.697284692 230.406471412 420.458191617 234.540350904 410.26119835 234.540350904 c 0
 400.038195865 234.540350904 390.767712585 230.385735629 384.06836 223.67381 c 0
 377.387636911 216.978670142 373.254556478 207.740377474 373.254556478 197.544369771 c 0
 373.254556478 187.321379059 377.40914799 178.050890768 384.12106 171.35154 c 0
 409.2437 146.27956 437.54057 144.29671 472.00192 141.34373 c 0
 506.46328 138.39075 546.51691 139.92272 586.79685 146.3867 c 0
 627.07678 152.85071 667.4227 164.07849 702.19919 182.77146 c 0
 736.97568 201.46546 768.20822 229.1975 779.21481 269.4785 c 0
 794.32752 324.7875 794.37193 366.77843 777.59763 399.93943 c 0
 760.82329 433.1004 731.93879 449.44736 707.85349 462.94334 c 0
 633.06968 504.84836 546.0791 495.17915 466.87888 470.65818 c 0
 418.99445 455.83318 373.36974 435.19157 331.96677 414.51756 c 1
 356.1514 510.46257 374.89539 610.05366 369.81442 717.34568 c 0
 368.888152049 736.908653389 352.736652225 752.540522223 332.95895 752.59568 c 1
 332.95898 752.5957 l 1
EndSplineSet
Validated: 524837
EndChar

StartChar: "+MLAw6jDV 41"
Encoding: 41 12426 40
Width: 1024
LayerCount: 2
Fore
SplineSet
639.89062 912.63477 m 0
 636.514040224 912.615399717 633.248247478 912.137610282 630.14258 911.26953 c 0
 614.556539704 906.913583947 603.109865829 892.597913715 603.109865829 875.629826756 c 0
 603.109865829 872.174866326 603.581297457 868.843260351 604.46875 865.66992 c 0
 708.3062 494.23293 623.74462 354.88335 563.86719 159.19336 c 0
 562.818325038 155.767035196 562.253885711 152.129905142 562.253885711 148.361983529 c 0
 562.253885711 131.707708639 573.274862333 117.616935036 588.41992 112.98242 c 0
 591.845610736 111.933980771 595.482000888 111.36977963 599.249127406 111.36977963 c 0
 615.906001324 111.36977963 629.998576372 122.39426355 634.63086 137.54297 c 0
 691.72455 324.13496 783.86724 498.78475 675.73242 885.59375 c 0
 671.403489656 901.085250174 657.234793821 912.496086786 640.40234 912.63477 c 0
 640.31550895 912.635370462 640.228607233 912.635671185 640.141635833 912.635671185 c 0
 640.054664433 912.635671185 639.97745105 912.635370462 639.89062 912.63477 c 0
373.4082 785.11328 m 1
 373.4082 785.11128 l 1
 373.369059033 785.111401903 373.329903843 785.1114629 373.290734518 785.1114629 c 0
 373.251565194 785.1114629 373.216870967 785.111401903 373.17773 785.11128 c 0
 356.196227678 784.968444696 341.925968028 773.349607473 337.73828 757.64643 c 0
 313.08318 665.11843 270.29669 558.25856 322.35352 438.47456 c 0
 328.051211294 425.370879288 341.115849013 416.198298327 356.305951948 416.198298327 c 0
 366.007745923 416.198298327 374.83734037 419.969963713 381.43945 426.08784 c 2
 476.04492 513.75581 l 2
 483.337774095 520.515635717 487.905068051 530.175525996 487.905068051 540.893747018 c 0
 487.905068051 550.594822121 484.148796024 559.439465189 478.03125 566.04097 c 0
 471.271196132 573.336859707 461.609257162 577.906329633 450.888483233 577.906329633 c 0
 441.188811735 577.906329633 432.34533559 574.151083435 425.74414 568.03511 c 2
 375.15625 521.15034 l 1
 363.72677 592.03031 388.20085 659.6127 409.24609 738.5937 c 0
 410.055821221 741.635072006 410.487438893 744.829962334 410.487438893 748.124866862 c 0
 410.487438893 765.247718434 398.823314322 779.653458025 383.01953 783.86518 c 0
 379.975215032 784.676597714 376.776993334 785.109145117 373.478542 785.109145117 c 0
 373.450609462 785.109145117 373.43611813 785.113292006 373.4082 785.11323 c 1
 373.4082 785.11328 l 1
EndSplineSet
Validated: 524837
EndChar

StartChar: "+MLAw6jDV 42"
Encoding: 42 12427 41
Width: 1024
LayerCount: 2
Fore
SplineSet
564.75586 872.59766 m 2
 563.356908412 872.594841699 562.01291412 872.515643989 560.6543 872.36133 c 2
 560.6543 872.36133 388.29456 852.86737 364.24414 851.16016 c 0
 345.058448343 849.79931368 329.894908342 833.783392197 329.894908342 814.253783896 c 0
 329.894908342 813.360431102 329.892687958 812.506491818 329.95508 811.62891 c 0
 331.316191035 792.443476248 347.331994104 777.280223485 366.861417433 777.280223485 c 0
 367.752116487 777.280223485 368.603495217 777.277814935 369.47852 777.33984 c 0
 390.33531 778.82066 446.67016 785.00698 496.59375 790.62109 c 1
 429.09052 680.15457 343.52342 579.86804 257.61328 477.36914 c 0
 244.24256 465.32416 233.39194 454.24245 225.2793 444.27734 c 0
 221.01576 439.04043 217.45487 434.26689 214.16211 428.28125 c 0
 212.51571 425.28824 210.86244 422.04447 209.41602 416.98633 c 0
 207.96955 411.92819 205.59671 404.25213 210.05859 391.87305 c 0
 215.200856243 377.614575117 228.858000547 367.410177263 244.879702087 367.410177263 c 0
 256.365732171 367.410177263 266.612961874 372.644160842 273.40234 380.86719 c 0
 285.67791 395.7419 298.30465 410.64488 310.76953 425.49805 c 0
 334.74428 446.58214 369.51383 471.99319 410.46289 492.31836 c 0
 494.33064 533.94683 597.34662 554.79764 698.18555 486.86328 c 0
 732.2222 463.93289 741.51568 442.01399 742.45508 416.01953 c 0
 743.39452 390.02507 732.23977 358.05024 712.91992 327.83594 c 0
 700.55282 308.49496 685.01367 290.37009 669.07227 274.75195 c 1
 656.39516 285.37998 639.37992 299.36311 619.23633 314.80664 c 0
 601.14827 328.67448 581.97264 342.60284 564.00586 353.68555 c 0
 555.02245 359.22709 546.40144 364.07729 537.49805 367.97852 c 0
 528.59461 371.87974 520.15908 375.91034 505.12695 375.20508 c 0
 463.37107 373.2522 433.45269 348.84141 411.00781 328.47656 c 0
 391.41716 310.70144 379.30124 295.42928 376.04688 291.25781 c 0
 366.40265 282.7758 357.77635 271.21627 355.40039 256.11328 c 0
 352.65649 238.6719 359.8819 222.22247 368.17773 211.91797 c 0
 384.76933 191.30858 405.82767 182.18142 430.27539 173.33203 c 0
 477.58374 156.20775 538.26382 147.19206 592.63281 153.96875 c 1
 629.46873 150.36232 656.73766 169.20532 686.98828 192.14062 c 0
 718.75944 216.22869 750.55711 249.34022 775.25977 287.97266 c 0
 799.96242 326.6051 818.12253 371.19975 816.40625 418.69141 c 0
 814.68993 466.18268 789.36243 514.66543 739.53125 548.23633 c 0
 638.31664 616.4243 530.64773 612.85853 441.37695 584.06836 c 1
 498.9025 657.12814 553.17705 733.6797 597.62305 818.41406 c 0
 600.310156581 823.540095906 601.830569657 829.372160632 601.830569657 835.556534607 c 0
 601.830569657 855.837284188 585.494592096 872.367051563 565.26758 872.5957 c 0
 565.131789638 872.597169704 564.995824786 872.597906442 564.859689218 872.597906442 c 0
 564.821878018 872.597906442 564.79364478 872.597813588 564.75586 872.5977 c 2
 564.75586 872.59766 l 2
506.19141 300.6543 m 1
 506.19141 300.6523 l 2
 506.81526 300.48978 506.95229 300.566 507.79883 300.19527 c 0
 511.75244 298.46274 518.02981 295.09792 525.1543 290.70308 c 0
 539.40327 281.91342 557.25105 269.07386 574.20703 256.07418 c 0
 585.91382 247.09856 595.43255 239.20586 605.20312 231.22652 c 1
 599.66249 229.11301 596.21311 227.88818 598.59766 227.51363 c 1
 596.714218324 227.809573869 594.783808016 227.963227817 592.817793103 227.963227817 c 0
 590.990268732 227.963227817 589.266636388 227.830640164 587.50977 227.57423 c 0
 549.66332 222.04969 491.43995 229.88976 455.46289 242.91212 c 0
 448.5357 245.41984 443.50618 248.27118 438.69141 250.9297 c 1
 443.64406 256.74374 450.67782 264.543 460.73242 273.66603 c 0
 476.48345 287.95718 496.32495 298.85374 506.19141 300.65431 c 1
 506.19141 300.6543 l 1
EndSplineSet
Validated: 524841
EndChar

StartChar: "+MLAw6jDV 43"
Encoding: 43 12428 42
Width: 1024
LayerCount: 2
Fore
SplineSet
340.14062 863.89648 m 0
 339.684749495 863.894150404 339.250680079 863.883991175 338.79883 863.86528 c 0
 338.466493813 863.848035422 338.14247057 863.826855132 337.8125 863.80088 c 1
 337.8125 863.81458 l 1
 318.587789693 862.493873301 303.380754705 846.46004148 303.380754705 826.902444207 c 0
 303.380754705 826.374639913 303.358929128 825.872191597 303.38086 825.34974 c 2
 308.91211 693.17982 l 1
 291.61034 681.51128 271.12656 667.74075 249.58594 653.42201 c 0
 224.3534 636.6496 198.72206 619.81964 178.92188 607.24818 c 0
 169.02178 600.96207 160.53549 595.71861 154.64453 592.27357 c 0
 151.80168 590.6102 149.62116 589.41994 148.48828 588.83411 c 0
 134.021450348 583.805805541 123.625911102 570.044403833 123.625911102 553.874153714 c 0
 123.625911102 551.803633177 123.805206052 549.818224896 124.13281 547.83997 c 0
 127.037351197 530.308615153 142.28494205 516.92234261 160.634392323 516.92234261 c 0
 162.705391286 516.92234261 164.702952391 517.057147708 166.68164 517.3849 c 0
 179.12301 519.44549 178.7422 521.18315 181.94531 522.82044 c 0
 185.14839 524.45736 188.34899 526.26124 192.00391 528.39857 c 0
 199.31389 532.67435 208.27197 538.22793 218.58789 544.77747 c 0
 232.88853 553.85779 251.01272 565.86937 268.46484 577.37122 c 1
 249.78816 542.12902 246.25083 535.66852 224.44141 494.24036 c 0
 196.51591 441.19394 168.85561 388.33845 148.61719 348.93763 c 0
 138.49799 329.23722 130.26363 312.95422 124.62109 301.36732 c 0
 121.79994 295.5733 119.6745 291.11297 117.9668 287.12708 c 0
 117.11289 285.13489 116.43662 283.88045 115.23242 279.67005 c 0
 114.63034 277.56448 111.54388 277.93112 114.25781 262.46302 c 0
 114.93635 258.59543 116.25838 252.87222 121.4668 246.14466 c 0
 126.67521 239.41786 137.11248 233.24392 145.93359 232.08021 c 0
 163.56974 229.75504 169.06439 236.32322 172.37109 238.67786 c 0
 179.82262 243.97525 176.91675 242.38705 178.42188 243.77943 c 0
 179.92707 245.17256 181.79554 246.9291 184.11719 249.13294 c 0
 188.76049 253.54138 195.17068 259.69022 203.17383 267.39857 c 0
 219.18013 282.81715 241.50083 304.43362 268.04102 330.2013 c 0
 283.90528 345.60325 303.49364 364.67035 321.91211 382.58607 c 1
 329.80469 193.9806 l 2
 330.627193507 174.285509966 346.876295605 158.548008119 366.772082634 158.548008119 c 0
 367.298525024 158.548008119 367.799192154 158.534951595 368.32031 158.55677 c 0
 388.012597278 159.382321481 403.746904262 175.630144271 403.746904262 195.52391168 c 0
 403.746904262 196.049774587 403.760050638 196.549889682 403.73828 197.07044 c 2
 393.07422 451.8457 l 1
 415.49566 473.68495 437.75107 495.35649 460.72852 517.75586 c 0
 551.58284 606.32606 589.82702 643.71075 641.73438 694.39648 c 1
 628.24857 640.94074 616.79368 580.68321 618.41211 519.00586 c 0
 621.56968 398.66759 684.44143 271.65405 866.81055 200.67188 c 0
 870.96715875 199.053799519 875.487417382 198.165815869 880.213439076 198.165815869 c 0
 895.908729251 198.165815869 909.339618908 207.926005227 914.71289 221.73047 c 0
 916.330970481 225.88707875 917.218954131 230.407337382 917.218954131 235.133359076 c 0
 917.218954131 250.828649251 907.458764773 264.259538908 893.6543 269.63281 c 0
 731.85386 332.60919 694.9904 421.71602 692.38672 520.94336 c 0
 689.78293 620.17145 731.44975 727.2029 748.64648 807.36328 c 0
 749.18377791 809.871200405 749.46661733 812.473041128 749.46661733 815.140421239 c 0
 749.46661733 835.563353095 732.885786186 852.144184239 712.46285433 852.144184239 c 0
 711.549485013 852.144184239 710.678110479 852.086667905 709.78125 852.02148 c 0
 700.807686808 851.369156275 692.676678584 847.512700837 686.61133 841.58984 c 2
 686.61133 841.58984 548.36806 706.54263 409.06836 570.74609 c 0
 401.97003 563.82653 395.74242 557.7713 388.91992 551.125 c 1
 385.20898 639.8125 l 1
 391.147 650.97798 402.49414 672.33984 402.49414 672.33984 c 2
 405.248323381 677.51492594 406.809420992 683.419760365 406.809420992 689.686331436 c 0
 406.809420992 705.978687708 396.287233809 719.854254335 381.65039 724.78906 c 1
 377.31445 828.44727 l 2
 376.488640957 848.139320397 360.240926292 863.87335738 340.347329573 863.87335738 c 0
 340.277219182 863.87335738 340.210639309 863.896870333 340.14062 863.89648 c 0
316.56641 510.25195 m 1
 317.75586 481.84961 l 1
 306.75343 471.14599 295.7303 460.41864 284.62695 449.61523 c 1
 286.57866 453.3256 287.96889 456.05665 289.92578 459.77344 c 0
 298.95776 476.9306 307.72345 493.51054 316.56641 510.25195 c 1
EndSplineSet
Validated: 524837
EndChar

StartChar: "+MLAw6jDV 44"
Encoding: 44 12429 43
Width: 1024
LayerCount: 2
Fore
SplineSet
569.72656 832.61328 m 0
 567.930163187 832.607389156 566.198466211 832.474464045 564.4707 832.2207 c 2
 383.17188 805.69922 l 2
 365.303496792 803.084937079 351.565310547 787.679260214 351.565310547 769.090178688 c 0
 351.565310547 767.258324934 351.660340417 765.493250852 351.91797 763.73242 c 0
 354.531556921 745.863245066 369.937604129 732.124226249 388.527248922 732.124226249 c 0
 390.35834233 732.124226249 392.122676735 732.219140428 393.88281 732.47656 c 2
 492.00391 746.83594 l 1
 412.41688 638.23159 314.37875 546.99183 211.55859 457.43555 c 0
 203.787399613 450.650056706 198.87451937 440.67158351 198.87451937 429.554700514 c 0
 198.87451937 409.131768105 215.455350962 392.550936514 235.87828337 392.550936514 c 0
 242.859152126 392.550936514 249.449120312 394.518984947 255.02344 397.88477 c 0
 315.27704 434.35947 374.4973 474.67563 434.52148 498.20508 c 0
 494.54567 521.73453 553.21844 529.76481 621.92383 504.45898 c 0
 714.08685 470.51845 745.01206 432.11757 750.14844 406.46289 c 0
 755.28444 380.80821 739.57653 350.2153 700.81445 321.27734 c 0
 662.05237 292.33901 603.81016 270.18956 546.4082 266.10352 c 0
 489.00625 262.01747 433.96704 275.12463 393.94336 310.48438 c 0
 387.418147954 316.249115122 378.846306009 319.749270619 369.463410033 319.749270619 c 0
 358.424095731 319.749270619 348.496508379 314.927823914 341.71484 307.25 c 0
 335.950687799 300.72492569 332.450928712 292.153523232 332.450928712 282.7711586 c 0
 332.450928712 271.732313672 337.271963418 261.805086605 344.94922 255.02344 c 0
 403.26204 203.50621 479.59187 187.16264 551.66406 192.29297 c 0
 623.73663 197.4233 693.07466 223.1503 745.08398 261.97852 c 0
 797.09331 300.80674 835.34936 357.87137 822.71289 420.99023 c 0
 810.07642 484.10872 751.49055 535.60319 647.49609 573.90039 c 0
 577.13754 599.81548 510.42526 597.34676 449.97852 580.92773 c 1
 505.37316 640.02292 557.01134 703.94443 601.36523 776.26758 c 0
 604.811752705 781.888738721 606.799367547 788.499173396 606.799367547 795.570177045 c 0
 606.799367547 815.993109453 590.218535955 832.573941045 569.795603547 832.573941045 c 0
 569.764176985 832.573941045 569.75796832 832.613358476 569.72656 832.61328 c 0
EndSplineSet
Validated: 524841
EndChar

StartChar: "+MLAw6jDV 45"
Encoding: 45 12431 44
Width: 1024
LayerCount: 2
Fore
SplineSet
381.46289 921.66602 m 1
 381.46289 921.66402 l 1
 381.395589639 921.664380589 381.328246991 921.664561112 381.260862511 921.664561112 c 0
 381.193478031 921.664561112 381.133710361 921.664380589 381.06641 921.66402 c 0
 362.037861536 921.489370279 346.414498345 906.882630382 344.58398 888.29098 c 0
 338.18246 823.24698 335.72274 756.74729 335.61914 689.48629 c 1
 165.89844 585.08789 l 2
 155.309407928 578.575294097 148.242547002 566.880479441 148.242547002 553.548135812 c 0
 148.242547002 546.456942629 150.304522789 539.812979498 153.76953 534.18164 c 0
 160.282548784 523.594544565 171.976258826 516.529235864 185.30713816 516.529235864 c 0
 192.395950993 516.529235864 199.037852023 518.589869728 204.66797 522.05273 c 2
 275.4375 565.58398 l 1
 148.75781 295.96875 l 2
 146.526976762 291.208993574 145.280233713 285.8976897 145.280233713 280.29749124 c 0
 145.280233713 259.874559384 161.861064857 243.29372824 182.283996713 243.29372824 c 0
 191.554193874 243.29372824 200.031708489 246.685043328 206.52734 252.32617 c 0
 254.56937 294.13217 300.59538 342.99764 345.67773 390.18164 c 1
 350.11591 305.52465 354.7338 221.17855 356.58008 138.51953 c 0
 357.027845095 118.486423592 373.430957973 102.360537096 393.57075205 102.360537096 c 0
 393.851434295 102.360537096 394.117282393 102.349238763 394.39648 102.35547 c 0
 414.429529956 102.803298875 430.555351072 119.206386077 430.555351072 139.346139327 c 0
 430.555351072 139.624832852 430.566693481 139.888789919 430.56055 140.16602 c 0
 428.1734 247.03998 421.51543 355.29869 416.36719 462.13867 c 1
 428.8377 474.21267 441.27746 485.79083 453.71094 496.67383 c 0
 493.71848 531.69482 533.32737 559.23159 571.45898 574.18359 c 0
 608.83167 588.8386 643.97886 592.16979 682.875 580.7168 c 1
 755.17188 546.12679 787.78747 510.13737 799.13867 481.27539 c 0
 810.63962 452.03137 804.94119 425.47895 787.05469 397.46094 c 0
 769.16822 369.44394 738.03403 343.26295 706.82031 327.37695 c 0
 675.60659 311.49194 644.41529 308.18387 633.99805 311.38086 c 0
 630.564932082 312.434292922 626.919872506 313.001288291 623.143429086 313.001288291 c 0
 606.500743062 313.001288291 592.417889397 301.995978808 587.77344 286.86719 c 0
 586.719764314 283.433711584 586.152633085 279.788231072 586.152633085 276.011335235 c 0
 586.152633085 259.367801307 597.159080919 245.284343394 612.28906 240.64062 c 0
 654.4512 227.70062 698.39512 240.05587 740.37891 261.42188 c 0
 782.36262 282.78887 822.48638 315.44272 849.42383 357.63672 c 0
 876.36128 399.83072 889.05189 454.86039 868.01172 508.35938 c 0
 846.9715 561.85738 796.45801 609.20212 711.88477 649.03711 c 0
 710.337371399 649.764998375 708.698268574 650.401418488 707.04297 650.91211 c 0
 650.56534 668.35611 594.72824 662.79607 544.44922 643.08008 c 0
 496.9669 624.46205 453.64629 594.11299 412.26953 558.66602 c 1
 408.38875 669.74701 408.12135 778.30797 418.23242 881.04297 c 0
 418.35093158 882.247311928 418.411597051 883.468530587 418.411597051 884.703806613 c 0
 418.411597051 903.888232832 403.740610929 919.64601134 385.03711 921.48828 c 0
 383.84907349 921.60516108 382.681064226 921.664425823 381.46289 921.66602 c 1
339.13281 527.13281 m 1
 339.60858 515.21581 340.10842 503.29323 340.64648 491.36523 c 1
 328.78234 479.42423 317.01454 467.30626 305.3125 455.15625 c 1
 339.13281 527.13281 l 1
EndSplineSet
Validated: 524841
EndChar

StartChar: "+MLAw6jDV 46"
Encoding: 46 12434 45
Width: 1024
LayerCount: 2
Fore
SplineSet
432.33398 893.48633 m 0
 432.184366701 893.480648426 432.039775512 893.474286693 431.89062 893.46683 c 0
 411.979396116 892.882295858 395.994263583 876.534654763 395.994263583 856.482947897 c 0
 395.994263583 856.114279778 395.981457711 855.764558923 395.99219 855.39847 c 0
 397.20511 814.20447 396.97516 774.26748 394.51367 736.06448 c 1
 357.56116 740.85848 321.98864 748.6808 287.61914 757.7598 c 0
 284.598878564 758.557495258 281.427864082 758.982480718 278.158372211 758.982480718 c 0
 278.025267149 758.982480718 277.912075101 758.985815219 277.7793 758.98441 c 0
 260.805234795 758.805146882 246.552935317 747.159309873 242.39844 731.44144 c 0
 241.599623258 728.419203496 241.174020046 725.245956778 241.174020046 721.974089527 c 0
 241.174020046 704.822381644 252.878261477 690.397247232 268.72266 686.21292 c 0
 305.50295 676.49792 344.81679 667.84405 386.45117 662.54105 c 1
 375.57479 595.193 354.8971 535.15195 319.125 485.62695 c 0
 314.732865099 479.54259102 312.143786864 472.072270743 312.143786864 464.002010738 c 0
 312.143786864 443.579078882 328.724618008 426.998247738 349.147549864 426.998247738 c 0
 357.779838338 426.998247738 365.733728075 429.941739718 372.03125 434.9043 c 0
 413.01596 467.2213 458.62335 484.37424 493.27734 482.74023 c 1
 459.60243 458.18627 429.66393 430.96859 405.35352 402.72656 c 0
 367.36313 358.59257 340.74713 310.54552 345.55273 258.97852 c 0
 347.95543 233.1945 359.99861 207.64668 380.04102 188.30469 c 0
 400.08332 168.96269 426.93677 155.27178 460.12695 145.84375 c 0
 495.81605 135.70778 548.34945 130.94202 603.43164 130.54102 c 0
 658.51372 130.13903 712.33813 133.03917 753.32812 149.74219 c 0
 766.850538436 155.250683656 776.392529606 168.531805954 776.392529606 184.023992991 c 0
 776.392529606 188.953416495 775.3877351 193.666200508 773.63477 197.96875 c 0
 768.124461005 211.487281379 754.845341771 221.025819847 739.355957857 221.025819847 c 0
 734.426131997 221.025819847 729.712994883 220.020816651 725.41016 218.26758 c 0
 706.65693 210.62658 654.31511 204.17012 603.9707 204.53711 c 0
 553.62622 204.9041 501.4654 211.02836 480.3457 217.02734 c 0
 455.384 224.11736 439.95817 233.33158 431.43359 241.55859 c 0
 422.9091 249.7856 420.10456 256.46376 419.23047 265.84375 c 0
 417.48217 284.60476 430.5957 318.62303 461.44141 354.45703 c 0
 486.2012 383.22003 520.87272 412.23428 560.26953 437.61328 c 1
 573.31801 414.30229 583.93606 378.63696 587.42773 327.91797 c 0
 588.752358022 308.697063882 604.784444001 293.494272865 624.339312022 293.494272865 c 0
 625.202891844 293.494272865 626.028074255 293.490494154 626.87695 293.54883 c 0
 646.097856118 294.873458022 661.300647135 310.905544001 661.300647135 330.460412022 c 0
 661.300647135 331.323991844 661.304425846 332.149174255 661.24609 332.99805 c 0
 657.2291 391.34704 645.07742 437.68766 624.86133 473.72266 c 1
 666.54823 493.67565 710.15395 508.28533 750.93555 513.98633 c 0
 768.917726767 516.499890435 782.775864047 531.958748309 782.775864047 550.62880583 c 0
 782.775864047 552.380216454 782.692898645 554.067052428 782.45703 555.75391 c 0
 779.945174581 573.737999664 764.485423534 587.598158294 745.814004454 587.598158294 c 0
 745.570924444 587.598158294 745.339629836 587.63358683 745.09766 587.62891 c 0
 743.596629398 587.597887138 742.141655803 587.478477671 740.68945 587.27344 c 0
 683.43925 579.27044 625.71313 559.27286 572.57422 531.75586 c 1
 559.89024 540.33784 546.25574 546.77245 532.10742 550.89648 c 0
 499.67983 560.34946 466.48617 558.62872 434.16406 549.80273 c 1
 446.33036 584.12375 454.79952 620.07717 460.50781 657.16016 c 1
 497.5595 656.59216 536.15981 659.30497 576.19922 666.66797 c 0
 593.414381617 669.834061482 606.474951121 684.932518053 606.474951121 703.057362322 c 0
 606.474951121 705.353311488 606.297525866 707.569278512 605.89648 709.75 c 0
 602.731757476 726.966849557 587.632502585 740.029146526 569.506459708 740.029146526 c 0
 567.211415136 740.029146526 564.996324801 739.851907034 562.81641 739.45117 c 0
 530.35454 733.48217 498.91365 730.98455 468.39453 731.06055 c 1
 471.07074 772.49055 471.21647 814.86617 469.95898 857.57617 c 0
 469.372728016 877.485852363 453.025788942 893.469209859 432.975195408 893.469209859 c 0
 432.888109491 893.469209859 432.805695195 893.486932043 432.71875 893.48633 c 0
 432.653435005 893.486669616 432.588080194 893.486839632 432.522685988 893.486839632 c 0
 432.457291782 893.486839632 432.399294995 893.486669616 432.33398 893.48633 c 0
EndSplineSet
Validated: 524841
EndChar

StartChar: "+MLAw6jDV 47"
Encoding: 47 12435 46
Width: 1024
LayerCount: 2
Fore
SplineSet
450.87891 862.33984 m 0
 450.859805794 862.339179579 450.841406876 862.338529436 450.82231 862.33784 c 0
 435.921951393 862.195651125 423.128212043 853.256768172 417.39848 840.44331 c 0
 311.2848 603.06031 196.61334 431.40119 84.142578 222.98633 c 0
 81.3365624661 217.774109898 79.7439485274 211.813637861 79.7439485274 205.484126233 c 0
 79.7439485274 185.061193825 96.3247801193 168.480362233 116.747712527 168.480362233 c 0
 127.044557711 168.480362233 136.345721021 172.65025818 143.05664 179.44727 c 2
 407.20312 447.54297 l 2
 413.6635 454.1 416.63321 456.14365 417.83008 456.81836 c 1
 417.92008 456.38261 423.35494 453.1598 431.23242 441.29102 c 0
 449.66896 413.513 472.54213 353.88842 500.44336 288.88281 c 0
 531.94686 215.48212 609.41838 173.20504 692.27734 164.01172 c 0
 775.13593 154.81802 867.9577 179.0972 934.15234 249.02148 c 0
 940.426820492 255.652484208 944.276721298 264.600906349 944.276721298 274.441425303 c 0
 944.276721298 285.019033946 939.839181068 294.576345464 932.71289 301.32227 c 0
 926.081492815 307.598941799 917.131483745 311.450359488 907.289026371 311.450359488 c 0
 896.713470809 311.450359488 887.157812203 307.01448841 880.41211 299.89062 c 0
 832.20461 248.96678 763.1347 230.60823 700.44141 237.56445 c 0
 637.74849 244.52067 585.99668 277.17891 568.44531 318.07227 c 0
 541.50749 380.83245 520.88993 440.01982 492.88477 482.21484 c 0
 478.88237 503.31217 461.57371 523.57675 432.86328 529.62891 c 0
 404.15248 535.68106 375.70132 521.01061 354.49023 499.48242 c 2
 286.84961 430.83008 l 1
 353.69811 546.99046 420.64232 666.36811 484.95703 810.24414 c 0
 487.014671 814.847786564 488.158975189 819.947558017 488.158975189 825.312486983 c 0
 488.158975189 840.36625971 479.197759305 853.343392069 466.28125 859.11914 c 0
 461.676817665 861.17762629 456.575994228 862.322428527 451.209897871 862.322428527 c 0
 451.107488046 862.322428527 450.981124982 862.340672318 450.87891 862.33984 c 0
EndSplineSet
Validated: 524841
EndChar

StartChar: "+MLAw6jDV 48"
Encoding: 48 12364 47
Width: 1024
LayerCount: 2
Fore
SplineSet
342.42188 910.53516 m 1
 342.42188 910.52516 l 1
 324.070460971 910.377037272 308.87788332 896.804158401 306.1543 879.17578 c 0
 292.63077 791.57378 278.12882 705.66254 261.2793 624.47656 c 1
 161.27734 619.79883 l 2
 141.667976504 618.883535217 126.028007118 602.673580394 126.028007118 582.839540807 c 0
 126.028007118 582.250498605 126.015686676 581.689763587 126.04297 581.10742 c 0
 126.96015481 561.499811301 143.169307914 545.861834344 163.002084098 545.861834344 c 0
 163.592513841 545.861834344 164.15458119 545.849538711 164.73828 545.87695 c 2
 244.70312 549.62109 l 1
 216.84916 432.1081 182.63759 327.58241 137.27148 246.64844 c 0
 134.277941279 241.307564051 132.570725793 235.150200856 132.570725793 228.597242665 c 0
 132.570725793 214.731650492 140.151491044 202.621217664 151.45117 196.28516 c 0
 156.79196361 193.291744882 162.949198857 191.584605217 169.502011531 191.584605217 c 0
 183.370713084 191.584605217 195.483464902 199.168807086 201.81836 210.47266 c 0
 255.39198 306.04769 292.78848 423.93513 322.11523 553.24414 c 1
 480.875 560.67578 l 1
 483.68625 555.55377 486.96667 545.81802 489.00977 538.20703 c 0
 514.80772 442.11402 511.88993 367.04145 495.35938 317.06445 c 0
 483.1018 280.00743 464.68499 257.57724 444.60156 245.94922 c 1
 408.99805 296.03711 l 2
 402.289967133 305.471655573 391.270234853 311.631119354 378.823235147 311.631119354 c 0
 370.850866411 311.631119354 363.449638785 309.049797229 357.40625 304.75391 c 0
 347.968878977 298.046166012 341.807237604 287.024738285 341.807237604 274.575538542 c 0
 341.807237604 266.601286039 344.389761577 259.198481688 348.6875 253.1543 c 2
 400.78125 179.875 l 2
 407.490383614 170.442685663 418.509312584 164.285052441 430.955084804 164.285052441 c 0
 433.622683516 164.285052441 436.179389458 164.603236346 438.6875 165.14062 c 0
 496.69807 177.56064 543.1243 225.83813 565.61328 293.82812 c 0
 588.10223 361.81812 589.10373 450.78844 560.48242 557.39844 c 0
 558.09164 566.30444 554.18283 581.72409 544.94336 597.91211 c 0
 540.32364 606.00608 534.24619 614.68348 524.39844 622.27148 c 0
 514.55069 629.85847 499.77826 635.64332 484.75762 634.94531 c 2
 337.99004 628.07617 l 1
 353.43004 705.56716 366.67666 786.20267 379.28692 867.88867 c 0
 379.573304355 869.742287181 379.721900593 871.641145117 379.721900593 873.574435687 c 0
 379.721900593 892.064497622 366.0922549 907.369837092 348.36309 910.10547 c 0
 346.515329053 910.389991086 344.622662983 910.537602029 342.69579259 910.537602029 c 0
 342.590267769 910.537602029 342.527007893 910.536043669 342.42169 910.53516 c 1
 342.42188 910.53516 l 1
842.26562 859.68359 m 1
 842.26562 859.68159 l 1
 842.217538139 859.681802765 842.169431379 859.681909259 842.121299942 859.681909259 c 0
 842.073168505 859.681909259 842.030501861 859.681802765 841.98242 859.68159 c 0
 838.382602548 859.653445916 834.910065373 859.020167711 831.68555 857.89448 c 0
 819.197616645 853.532588605 810.228855088 841.64287115 810.228855088 827.674917394 c 0
 810.228855088 823.981783452 810.874098477 820.434596724 812.02734 817.13276 c 0
 822.96658 785.82177 831.89941 758.76356 831.73633 722.22456 c 0
 831.736119055 722.176684101 831.736013473 722.128783517 831.736013473 722.080858467 c 0
 831.736013473 704.466621917 846.001141185 690.159978281 863.59766 690.08393 c 0
 863.645550416 690.083718927 863.693465533 690.08361328 863.741405131 690.08361328 c 0
 881.351657852 690.08361328 895.655812617 704.342509357 895.73828 721.93354 c 0
 895.95031 769.42854 883.59559 806.32923 872.44727 838.23823 c 0
 868.087575519 850.716459857 856.220468862 859.671523844 842.26562 859.68354 c 1
 842.26562 859.68359 l 1
546.17773 810.49805 m 1
 546.17773 810.49605 l 1
 546.087260082 810.496701888 545.996713393 810.497028389 545.906091049 810.497028389 c 0
 545.815468704 810.497028389 545.734999918 810.496701888 545.64453 810.49605 c 0
 537.523945382 810.413980822 529.987838926 807.692338641 523.91992 803.17379 c 0
 514.859490374 796.426970392 508.986528583 785.633777479 508.986528583 773.479705218 c 0
 508.986528583 765.210670248 511.754490201 757.557970808 516.3457 751.39449 c 0
 581.41658 664.02649 638.31719 570.00523 682.99219 464.90621 c 0
 688.625113548 451.657033031 701.764872754 442.356575114 717.059728751 442.356575114 c 0
 722.183627335 442.356575114 727.074720874 443.443667935 731.51367 445.33004 c 0
 744.76359131 450.962633331 754.064703972 464.102779182 754.064703972 479.398173542 c 0
 754.064703972 484.523338747 752.977095033 489.415602697 751.08984 493.85543 c 0
 703.77757 605.15843 643.61285 704.40157 575.68945 795.59957 c 0
 568.973079591 804.617184414 558.262982057 810.445046408 546.17773 810.49801 c 1
 546.17773 810.49805 l 1
726.14648 793.92969 m 0
 726.139957197 793.929693912 726.13343394 793.929695869 726.126910229 793.929695869 c 0
 719.579881901 793.929695869 713.457461696 791.940183823 708.38477 788.56055 c 0
 699.775573449 782.822932813 694.098909619 773.025791218 694.098909619 761.913256325 c 0
 694.098909619 755.362690624 696.122876677 749.255971932 699.50586 744.18164 c 0
 713.03978 723.87164 723.26944 693.03764 728.85547 653.80664 c 0
 731.063643658 638.293125274 744.415396492 626.348481353 760.534955385 626.348481353 c 0
 762.075105476 626.348481353 763.558709692 626.423991988 765.04102 626.63477 c 0
 780.555859093 628.841769578 792.50189981 642.194141223 792.50189981 658.314642592 c 0
 792.50189981 659.856680276 792.426126008 661.342122937 792.21484 662.82617 c 0
 785.80099 707.87217 774.15507 747.57678 752.76562 779.67578 c 0
 747.029673316 788.282743542 737.255268402 793.926456962 726.14648 793.92969 c 0
EndSplineSet
Validated: 524837
EndChar

StartChar: "+MLAw6jDV 49"
Encoding: 49 12366 48
Width: 1024
LayerCount: 2
Fore
SplineSet
789.12305 951.63086 m 0
 784.7166025 951.598086922 780.492752586 950.657565556 776.67969 949.01172 c 0
 765.306957291 944.102249878 757.33883597 932.782901309 757.33883597 919.617184222 c 0
 757.33883597 915.122224158 758.306446867 910.834080315 759.98242 906.95117 c 2
 802.98047 807.32422 l 2
 807.889397595 795.95024046 819.209395762 787.981026281 832.376015682 787.981026281 c 0
 836.871334169 787.981026281 841.159813358 788.948774059 845.04297 790.625 c 0
 856.416074177 795.534308503 864.384521086 806.85385061 864.384521086 820.019836679 c 0
 864.384521086 824.51542876 863.416648926 828.804155338 861.74023 832.6875 c 2
 818.74219 932.3125 l 2
 813.863045362 943.617088978 802.661535026 951.534650077 789.59766 951.63086 c 0
 789.517135097 951.631457173 789.436539835 951.631756284 789.355875263 951.631756284 c 0
 789.27521069 951.631756284 789.203574903 951.631457173 789.12305 951.63086 c 0
677.5332 901.81055 m 0
 671.974795129 901.807199574 666.711901316 900.363573868 662.15625 897.86328 c 0
 652.245387309 892.422865378 645.521019138 881.886410356 645.521019138 869.791788586 c 0
 645.521019138 864.2246423 646.999487789 858.973946501 649.50391 854.41211 c 2
 711.85156 740.8418 l 2
 717.29330163 730.935488387 727.827247119 724.214878581 739.91848847 724.214878581 c 0
 745.48669887 724.214878581 750.73832971 725.693906273 755.30078 728.19922 c 0
 765.211564433 733.639657458 771.935867971 744.176069331 771.935867971 756.270632976 c 0
 771.935867971 761.836223029 770.458198638 767.085541367 767.95508 771.64648 c 2
 705.60742 885.2168 l 2
 700.16576827 895.123420149 689.631652634 901.844284728 677.5401821 901.844284728 c 0
 677.530999482 901.844284728 677.542380821 901.810557751 677.5332 901.81055 c 0
387.46875 881.13867 m 1
 387.46875 881.13467 l 1
 387.425017668 881.134822193 387.381267562 881.134898352 387.337499809 881.134898352 c 0
 379.606277917 881.134898352 372.391851363 878.737174544 366.45312 874.67568 c 0
 356.706230962 868.009233745 350.304775234 856.803423411 350.304775234 844.114271417 c 0
 350.304775234 836.38524126 352.73749209 829.191561633 356.79688 823.25381 c 2
 408.56445 747.5624 l 1
 381.67663 742.5294 355.56061 737.66584 334.59961 733.83584 c 0
 320.34851 731.23184 308.28479 729.06602 299.68359 727.57802 c 0
 295.38299 726.83403 291.92963 726.26205 289.67383 725.91006 c 0
 288.80283 725.77305 287.49114 725.72599 286.55664 725.70498 c 1
 287.21424 725.70498 288.3804 725.71398 290.0625 725.72448 c 1
 269.886086439 725.440050409 253.584142523 708.971846091 253.58398 688.72839 c 0
 253.58398 668.307500229 270.168950229 651.72448 290.58984 651.72448 c 0
 301.12315 651.72448 298.12876 652.33079 301.10156 652.79479 c 0
 304.07446 653.25979 307.78043 653.88193 312.29883 654.66393 c 0
 321.33563 656.22593 333.53034 658.42074 347.90234 661.04675 c 0
 376.64644 666.29974 414.03964 673.27478 451.16016 680.25378 c 0
 452.20134 680.44978 453.16837 680.63395 454.20898 680.82995 c 2
 501.11914 612.2401 l 1
 211.08594 543.41198 l 2
 194.789823759 539.542928855 182.652502364 524.882897988 182.652502364 507.410413947 c 0
 182.652502364 504.463215108 182.980443148 501.617880046 183.63281 498.86901 c 0
 187.499202064 482.56919964 202.161010994 470.428234749 219.636117366 470.428234749 c 0
 222.582693895 470.428234749 225.427440436 470.755970536 228.17578 471.40807 c 2
 545.87109 546.80456 l 1
 602.48242 464.03307 l 1
 521.97542 469.21707 452.7756 465.58094 396.88867 455.45495 c 0
 323.29699 442.11994 269.56927 422.5967 244.20117 376.2987 c 0
 223.80127 339.06771 216.26819 299.99753 225.30469 264.13854 c 0
 234.34109 228.27952 259.11114 198.76414 291.71094 177.57214 c 0
 356.91064 135.18712 454.97558 118.555 577.92188 124.82799 c 0
 597.454336563 125.825766682 613.007135398 142.000570123 613.007135398 161.779259217 c 0
 613.007135398 162.420248381 613.01860576 163.030904959 612.98633 163.66393 c 0
 611.987569665 183.195465336 595.813187467 198.747221869 576.035161137 198.747221869 c 0
 575.3941381 198.747221869 574.783448052 198.758709151 574.15039 198.72643 c 0
 460.56538 192.93143 374.57586 211.96407 332.03906 239.61706 c 0
 310.77066 253.44306 300.75424 267.54363 297.05664 282.21667 c 0
 293.35904 296.89064 295.14631 315.26906 309.10352 340.74206 c 0
 311.87112 345.79306 346.36086 371.09254 410.08008 382.63854 c 0
 473.79917 394.18356 563.7505 396.8641 672.94922 383.03307 c 0
 674.484119639 382.838734103 676.048208523 382.73857584 677.635506023 382.73857584 c 0
 698.058437879 382.73857584 714.639269023 399.319406984 714.639269023 419.74233884 c 0
 714.639269023 427.470919794 712.205099383 434.687071108 708.14648 440.62487 c 2
 623.00586 565.11315 l 1
 757.0957 596.93542 l 2
 773.39551036 600.801812064 785.536475251 615.463620994 785.536475251 632.938727366 c 0
 785.536475251 635.885303895 785.208739464 638.730050436 784.55664 641.47839 c 0
 780.689264477 657.776834307 766.028113044 669.916451804 748.553976385 669.916451804 c 0
 748.478444967 669.916451804 748.409405659 669.935872982 748.33398 669.93542 c 0
 745.466799022 669.916548272 742.691458228 669.568596309 740.01367 668.93151 c 2
 578.25391 630.54479 l 1
 533.60352 695.83385 l 1
 570.81111 702.88985 598.5332 708.1737 598.5332 708.1737 c 2
 615.627979482 711.436675943 628.565655244 726.478134759 628.565655244 744.517504405 c 0
 628.565655244 746.896350907 628.371237268 749.192693861 627.94141 751.44714 c 0
 624.680732161 768.544796287 609.637909811 781.485401827 591.596497743 781.485401827 c 0
 591.405046542 781.485401827 591.223965365 781.514493975 591.0332 781.51159 c 0
 588.85211132 781.476727243 586.736306314 781.252747928 584.66211 780.85534 c 2
 584.66211 780.85534 541.4971 772.62168 488 762.50768 c 1
 417.88281 865.0332 l 2
 411.237568057 874.744758351 400.104129335 881.097130034 387.46875 881.13867 c 1
EndSplineSet
Validated: 524841
EndChar

StartChar: "+MLAw6jDV 50"
Encoding: 50 12370 49
Width: 1024
LayerCount: 2
Fore
SplineSet
719.04297 972.39453 m 0
 717.673417213 972.379687267 716.350664826 972.279763288 715.02734 972.09766 c 0
 699.412158016 969.980249869 687.360022224 956.581036122 687.360022224 940.38910836 c 0
 687.360022224 938.920391945 687.425202609 937.506265677 687.61719 936.08984 c 2
 707.26953 791.1543 l 2
 709.386936432 775.539113902 722.786152098 763.486973749 738.978082789 763.486973749 c 0
 740.446795356 763.486973749 741.860917881 763.552153598 743.27734 763.74414 c 0
 758.891724488 765.862267102 770.943015004 779.261108896 770.943015004 795.452468837 c 0
 770.943015004 796.921935206 770.877730268 798.336791022 770.68555 799.75391 c 2
 751.03516 944.68945 l 2
 748.920454833 960.30763995 735.519838212 972.362964228 719.325768742 972.362964228 c 0
 719.230042158 972.362964228 719.13849961 972.395370731 719.04297 972.39453 c 0
835.46289 956.44922 m 0
 835.455196648 956.449225442 835.447502665 956.449228164 835.439808051 956.449228164 c 0
 832.80403076 956.449228164 830.257794418 956.127497853 827.80664 955.52539 c 0
 813.831197205 952.094742894 803.450590134 939.472936105 803.450590134 924.44574098 c 0
 803.450590134 921.815508935 803.755816242 919.276541901 804.35547 916.83008 c 2
 825.85156 829.15625 l 2
 829.280912744 815.178975213 841.903603819 804.796571034 856.932099654 804.796571034 c 0
 859.564793294 804.796571034 862.106144758 805.10237742 864.55469 805.70312 c 0
 878.534728495 809.130519392 888.919844036 821.754544407 888.919844036 836.785002458 c 0
 888.919844036 839.417214839 888.614199635 841.958112031 888.01367 844.40625 c 2
 866.51172 932.07422 l 2
 863.084709291 946.042287425 850.478253657 956.435423989 835.46289 956.44922 c 0
530.06445 871.96289 m 0
 526.343429091 871.936679548 522.747222797 871.352394068 519.36328 870.30273 c 0
 504.282045097 865.629381241 493.31498071 851.561856723 493.31498071 834.953050315 c 0
 493.31498071 831.141290404 493.900199506 827.470985455 494.97266 824.00977 c 0
 510.80907 772.91477 528.95791 724.02879 545.22852 675.2168 c 1
 343.48828 615.39062 l 2
 328.18933776 610.851273651 317.016564331 596.676374015 317.016564331 579.912525709 c 0
 317.016564331 576.258411522 317.550325649 572.737454092 318.53906 569.40234 c 0
 323.075550006 554.098832934 337.252695168 542.921728004 354.019792694 542.921728004 c 0
 357.672943308 542.921728004 361.193002031 543.455127795 364.52734 544.44336 c 2
 566.9707 604.47656 l 1
 574.7797 575.92155 581.26641 547.04559 585.60742 517.43359 c 0
 601.03942 412.16461 591.50915 296.86288 516.53516 146.08789 c 0
 514.072060273 141.134525476 512.686671618 135.552461901 512.686671618 129.649376859 c 0
 512.686671618 115.1291162 521.011821421 102.53693506 533.19727 96.48047 c 0
 538.149464505 94.0188319606 543.729862803 92.6343201836 549.631079378 92.6343201836 c 0
 564.147319301 92.6343201836 576.736521706 100.954801635 582.79492 113.13477 c 0
 663.52132 275.47776 676.10552 410.30999 658.82812 528.16602 c 0
 653.8746 561.95601 646.63826 594.28721 638.11523 625.57422 c 1
 794.55273 671.96484 l 2
 809.853944122 676.502765007 821.028873215 690.678782255 821.028873215 707.444247684 c 0
 821.028873215 711.101420682 820.494239164 714.625312575 819.50391 717.96289 c 0
 814.965925944 733.264009753 800.789955118 744.438849299 784.024556861 744.438849299 c 0
 783.929685962 744.438849299 783.846653788 744.442124387 783.75195 744.44141 c 0
 780.195905461 744.414001001 776.756766423 743.877333854 773.50586 742.91211 c 2
 616.51172 696.35547 l 1
 599.47032 747.67647 580.869 796.84911 565.66211 845.91211 c 0
 561.014394311 860.915674309 547.071970249 871.84821999 530.57617 871.96289 c 0
 530.48933895 871.963490462 530.402437233 871.963791185 530.315465833 871.963791185 c 0
 530.228494433 871.963791185 530.15128105 871.963490462 530.06445 871.96289 c 0
214.45117 658.76953 m 0
 214.413380312 658.769643629 214.375577369 658.769700484 214.337761251 658.769700484 c 0
 214.201630599 658.769700484 214.075235436 658.768999744 213.93945 658.76753 c 2
 213.93945 658.76353 l 1
 213.886391136 658.763754068 213.833306062 658.763866214 213.780195001 658.763866214 c 0
 213.72708394 658.763866214 213.680008864 658.763754068 213.62695 658.76353 c 0
 195.650713927 658.45845566 180.767486747 645.272865321 177.79492 628.06822 c 0
 158.29942 515.35038 132.94065 374.48124 197.46875 224.57422 c 0
 203.139067998 211.407423951 216.236605264 202.179554597 231.472419141 202.179554597 c 0
 242.749115487 202.179554597 252.827703736 207.24119158 259.61719 215.20703 c 2
 291.875 253.0625 l 2
 297.378222703 259.521937524 300.70135095 267.894442215 300.70135095 277.036980284 c 0
 300.70135095 288.315630957 295.673890191 298.43381014 287.70508 305.22266 c 0
 281.245751368 310.725474871 272.873561029 314.048328311 263.73140099 314.048328311 c 0
 257.436488364 314.048328311 251.44756525 312.459353134 246.25586 309.68164 c 1
 216.82846 417.08863 234.04749 519.10494 250.71289 615.46094 c 0
 251.06907052 617.52066612 251.254706519 619.638499183 251.254706519 621.799347714 c 0
 251.254706519 640.059407292 237.964131918 655.214762445 220.55859 658.22461 c 0
 218.563053649 658.571149345 216.542225455 658.756917742 214.45117 658.76953 c 0
EndSplineSet
Validated: 524841
EndChar

StartChar: "+MLAw6jDV 51"
Encoding: 51 12372 50
Width: 1024
LayerCount: 2
Fore
SplineSet
653.16602 918.5918 m 1
 653.16602 918.5898 l 1
 653.126883355 918.589940936 653.087730246 918.590011464 653.048560795 918.590011464 c 0
 653.009391344 918.590011464 652.974686645 918.589940936 652.93555 918.5898 c 0
 649.980776184 918.547166816 647.118074732 918.097810257 644.4082 917.30465 c 0
 631.112861661 913.418912682 621.389272984 901.128191942 621.389272984 886.584326794 c 0
 621.389272984 883.467115176 621.837124837 880.462870398 622.66992 877.61324 c 2
 662.19922 742.36129 l 2
 666.084788592 729.065684837 678.375640369 719.341842281 692.919695383 719.341842281 c 0
 696.037556615 719.341842281 699.042424154 719.789880327 701.89258 720.62301 c 0
 715.187916971 724.508748183 724.911504346 736.799468251 724.911504346 751.343332425 c 0
 724.911504346 754.460540713 724.463653448 757.464782297 723.63086 760.31441 c 2
 684.10156 895.57223 l 2
 680.214930965 908.866157977 667.924902871 918.588404762 653.382041311 918.588404762 c 0
 653.306803208 918.588404762 653.241136655 918.592279591 653.16602 918.59176 c 1
 653.16602 918.5918 l 1
814.34375 904.50391 m 0
 811.86967673 904.489956936 809.475479037 904.19276508 807.16406 903.64648 c 0
 793.062060642 900.306128209 782.556953788 887.623324714 782.556953788 872.506283865 c 0
 782.556953788 869.96083599 782.8396237 867.503342776 783.40234 865.12891 c 2
 810.76758 749.59375 l 2
 814.107773454 735.4915309 826.7906827 724.986207249 841.907879535 724.986207249 c 0
 844.453985556 724.986207249 846.912116056 725.269031205 849.28711 725.83203 c 0
 863.3893291 729.172223454 873.894652751 741.8551327 873.894652751 756.972329535 c 0
 873.894652751 759.518435556 873.611828795 761.976566056 873.04883 764.35156 c 2
 845.67578 879.88477 l 2
 842.355248311 893.895473845 829.809224911 904.371844513 814.82031 904.50391 c 0
 814.739454808 904.504512086 814.658528674 904.50481366 814.577532659 904.50481366 c 0
 814.496536643 904.50481366 814.424605192 904.504512086 814.34375 904.50391 c 0
460.43945 722.83789 m 0
 396.09455 722.48889 335.72279 708.62291 286.9043 693.00391 c 0
 271.98740097 688.232278725 261.174496423 674.246177326 261.174496423 657.754515869 c 0
 261.174496423 653.82607901 261.799122494 650.045600523 262.93555 646.49219 c 0
 267.706495184 631.574129369 281.693173262 620.760138497 298.18566312 620.760138497 c 0
 302.116689428 620.760138497 305.899634445 621.385573688 309.45508 622.52344 c 0
 359.61018 638.56844 422.48123 651.78305 483.99414 648.24805 c 0
 535.68065 645.27906 585.72665 631.07682 630.50195 597.42383 c 1
 580.51172 532.375 l 2
 575.715934152 526.13561169 572.863556963 518.326303637 572.863556963 509.856044372 c 0
 572.863556963 497.903755796 578.497531351 487.254486354 587.30273 480.48828 c 0
 593.541504132 475.694214054 601.349396074 472.84296686 609.817977386 472.84296686 c 0
 621.768980966 472.84296686 632.417279069 478.475720034 639.18359 487.2793 c 2
 710.64062 580.26953 l 2
 715.434460548 586.508676207 718.28552982 594.316768553 718.28552982 602.785509041 c 0
 718.28552982 613.176163427 714.01760802 622.604174796 707.11133 629.32812 c 0
 642.19832 692.49512 562.89608 717.83795 488.23828 722.12695 c 0
 478.90617 722.66295 469.63157 722.88789 460.43945 722.83789 c 0
215.91992 338.3125 m 0
 204.916753092 338.262730913 195.045124657 333.417521751 188.29688 325.74023 c 0
 182.565762248 319.223025497 179.088454623 310.676563761 179.088454623 301.324342291 c 0
 179.088454623 290.255568994 183.934982429 280.304454845 191.64844 273.52148 c 0
 320.30733 160.39047 518.50402 144.55588 693.07812 171.75586 c 0
 710.781064045 174.514118943 724.345883349 189.842304623 724.345883349 208.313722476 c 0
 724.345883349 210.262086445 724.232191916 212.140452239 723.94141 214.00781 c 0
 721.18407593 231.711827511 705.85538677 245.277767843 687.383205672 245.277767843 c 0
 685.434281189 245.277767843 683.555368475 245.163996063 681.6875 244.87305 c 0
 520.4634 219.75404 342.41226 239.48778 240.50977 329.0918 c 0
 233.991718224 334.826449061 225.442587136 338.306155459 216.087140471 338.306155459 c 0
 216.036308129 338.306155459 215.970704537 338.312705262 215.91992 338.3125 c 0
EndSplineSet
Validated: 524837
EndChar

